<?xml version="1.0" encoding="UTF-8"?><svg id="CIRCLE_OUTLINE_BLACK" xmlns="http://www.w3.org/2000/svg" viewBox="0 0 512 512"><path d="m512,256c0,141.38499-114.61502,256-256,256S0,397.38499,0,256,114.61499,0,256,0s256,114.61502,256,256" fill="#fff"/><path d="m256,.00002C114.61499.00002,0,114.61599,0,255.99999s114.61499,255.99998,256,255.99998,256-114.61499,256-255.99998S397.38498.00002,256,.00002m122.76898,173.79797c5.85901-4.54901,15.52701.67001,14.828,8.06601.39301,6.745-7.965,11.832-13.78101,8.35898-6.405-2.879-7.05899-12.733-1.047-16.42499m-28.979,35.642c.582,10.33401-12.465,17.617-20.91901,11.55499-8.78098-5.047-8.09698-19.26199,1.01801-23.56,8.49002-4.94098,20.27802,2.25201,19.901,12.005m-26.806,65.659c-10.69901,7.528-27.272,3.575-33.15997-8.196-7.13702-12.17598.04498-29.38499,13.60699-33.09801,9.65298-2.76099,20.99197.95901,26.181,9.75302,6.86099,10.05701,3.586,25.05699-6.62802,31.54099Zm11.353-167.40298c5.276-2.57303,10.117,2.25198,10.88901,7.254-1.10699,4.26999-4.68201,8.17999-9.508,6.94598-7.065-.854-8.18399-11.96298-1.38101-14.19998Zm-28.97299,39.242c3.37302-8.69101,17.03799-8.95401,20.87601-.49402,3.79401,6.58401-.87302,14.73801-7.63202,16.97601-8.95499,1.672-17.45999-8.008-13.24399-16.48199Zm-3.05301,49.59198c7.26901,10.53702,3.401,26.58401-7.87799,32.63-11.68799,7.151-28.754,1.09-33.07098-11.96201-4.90002-11.685,2.23898-26.30798,14.28799-29.97,9.668-3.47299,21.151.68301,26.66098,9.302m-50.50098-97.36801c7.44299-3.88098,16.52899,5.12302,12.57401,12.55902-2.29602,6.061-11.004,7.673-15.45201,3.05298-4.713-4.435-3.17599-13.19897,2.87801-15.612m-9.64,63.76501c-.07401-7.47101,6.731-13.03699,13.83098-13.54599,4.70901.944,9.84201,2.95099,11.862,7.703,3.76501,6.55499.42102,15.57999-6.38098,18.58899-3.11099,1.74301-6.789,1.08899-10.177.88599-5.179-2.54199-9.53999-7.52798-9.13499-13.63199Zm-23.242,25.45001c10.714-5.05801,25.134-.815,30.30901,10.146,6.091,10.668,1.382,25.52301-9.507,31.03198-10.90199,6.19101-26.283,1.49701-31.56-9.957-5.916-11.07599-.662-26.121,10.758-31.22098m-2.063,85.23898c-10.62599,9.883-30.22299,5.91501-35.87799-7.57199-6.49901-12.36401,1.395-28.93399,14.85699-32.18799,9.929-2.73203,21.282,1.948,26.15201,11.07498,5.334,9.186,3.15399,21.948-5.13101,28.685m-26.89499-131.75101c7.55899-4.78098,18.345,2.33902,17.183,11.11902-.39301,8.86499-12.168,14.00101-18.812,8.008-6.423-4.70801-5.45001-15.50699,1.629-19.12701m-18.215-34.073c4.521-1.86099,10.245,2.28101,9.784,7.20901.47899,5.349-6.062,9.28699-10.67101,6.74399-6.106-2.36499-5.407-12.27701.88701-13.953m-71.58002,149.608c-.27698,6.489-9.85599,8.98401-13.375,3.56201-3.10898-3.765-1.24799-9.57001,3.01001-11.51199,5.16-2.25201,11.543,2.22,10.36499,7.94998m22.94-83.58798c6.905-4.245,16.22101,3.50198,13.60699,11.00299-1.439,6.48801-10.16098,9.12799-15.14697,4.98599-5.32202-3.88098-4.479-13.21298,1.53998-15.98898Zm14.23199,157.94798c-.76999,6.659-9.159,10.465-14.68399,6.687-5.931-3.431-5.71201-13.198.423-16.32399,6.44101-4.28801,15.70898,2.10699,14.26099,9.63699Zm9.24402-71.75699c-2.12201,7.74699-13.04001,10.61-18.67999,4.89799-6.599-5.36301-4.15601-17.29599,4.07098-19.62201,8.577-3.24399,18.08401,6.22,14.60901,14.72401Zm15.54001-52.209c.81499-6.90302,7.32698-11.39499,13.89798-11.86002,7.10501.79901,12.711,6.41,13.50401,13.51703-.464,7.09299-5.94501,14.02499-13.46201,13.98199-8.269.71201-15.519-7.51401-13.93999-15.63901m11.83499,81.25c9.536-1.62701,18.47699,9.01199,14.60899,18.06699-2.821,9.649-16.86301,12.26601-23.071,4.38501-7.28299-7.57001-1.84599-21.407,8.46201-22.452Zm4.73799,114.86798c-5.31999,3.58701-11.493-1.325-11.964-6.97899,1.30801-3.93901,4.47701-7.854,9.11401-6.83001,6.75999.48,8.767,10.669,2.84999,13.809Zm28.855-43.31599c.21901,6.60001-6.222,12.224-12.73399,11.24901-5.394-.11601-8.912-4.95201-10.64101-9.55.08801-5.011,2.151-10.593,7.21001-12.483,7.18201-3.77901,16.819,2.74699,16.16499,10.784Zm17.18301-34.96399c-10.744-1.73001-19.17401-12.07901-18.826-22.93501.201-10.64299,7.593-19.79399,17.955-22.23,13.578-3.53099,28.17299,7.791,28.259,21.772.88599,14.12801-13.48901,26.65599-27.388,23.39301Zm39.14899,83.34898c-2.035,2.41301-4.651,4.826-8.03899,4.739-6.29501.737-11.97501-6.37999-9.61-12.267,1.295-5.828,8.838-8.662,13.81-5.56599,3.28598,1.41,4.245,5.086,5.08899,8.211-.45099,1.627-.854,3.256-1.25,4.883Zm-16.09299-48.80499c-9.15701-5.291-7.63101-20.85899,2.53-24.11299,8.43198-3.72101,19.17398,3.62,18.375,12.907.625,10.26199-12.66101,17.368-20.905,11.20599Zm31.63098-34.539c-12.806-1.65599-22.255-15.726-18.67999-28.153,2.02499-8.381,8.53198-14.946,16.89398-17.04599,13.78101-3.85201,28.81201,7.67299,28.59402,21.97699.72699,13.867-13.19901,25.97301-26.80801,23.222Zm48.52499,34.877c.19,8.983-11.672,14.73801-18.548,8.836-6.65799-4.625-5.845-15.74399,1.366-19.422,7.38501-4.564,17.88101,1.991,17.18201,10.586Zm17.41699,37.714c-.625,6.72899-10.46698,8.793-13.84,3.02199-3.285-4.97099.58301-10.95899,5.91702-12.09299,4.289.873,8.82397,4.098,7.92297,9.07101m4.578-95.73599c.341,10.159-12.54498,17.16499-20.86099,11.235-9.418-5.32401-7.70401-20.992,2.573-24.25801,8.504-3.562,18.94101,3.79401,18.28799,13.02301Zm14.508-44.873c-.38199-7.17198,5.07303-13.31898,12.23901-13.79298,5.87399.92999,11.586,5.66898,11.121,12.06299.53799,8.446-9.638,14.18599-16.83401,10.21799-3.37198-1.71399-5.10199-5.174-6.526-8.48799Zm27.07101,78.58899c-4.146,5.24701-13.53699,3.75-15.79001-2.52899-3.32898-6.207,2.71899-14.433,9.61002-13.284,3.431-.05801,5.82999,2.64499,8.02499,4.91199.45099,3.67801,1.20801,8.067-1.845,10.901Zm27.28201-73.166c-7.32501.66801-9.69501-10.49597-3.64902-13.72098,3.46899-2.20502,8.06799-1.181,10.27301,2.28699.24698.39001.45798.802.629,1.23001,2.44199,4.63599-2.035,10.98799-7.25299,10.20398Z" fill="#0033ad"/></svg>