<?xml version="1.0" encoding="UTF-8"?><svg id="CIRCLE_OUTLINE_BLACK" xmlns="http://www.w3.org/2000/svg" xmlns:xlink="http://www.w3.org/1999/xlink" viewBox="0 0 512 512"><defs><linearGradient id="Degradado_sin_nombre_35" x1="26.13966" y1="333.51432" x2="511.42816" y2="169.86361" gradientUnits="userSpaceOnUse"><stop offset="0" stop-color="#044e97"/><stop offset="1" stop-color="#4a9bf8"/></linearGradient><linearGradient id="Degradado_sin_nombre_35-2" x1="106.56145" y1="309.03523" x2="423.71391" y2="196.60527" xlink:href="#Degradado_sin_nombre_35"/></defs><circle cx="254.13746" cy="255.18875" r="220.27922" fill="#fff"/><path d="m256,0C114.61511,0,0,114.61511,0,256s114.61511,256,256,256,256-114.61511,256-256S397.38489,0,256,0Zm174.76086,312.85083c-7.271,22.27222-18.44543,42.55469-32.91095,60.08154l-17.29736,50.59106c-.76538,2.06665-2.52576,2.44922-3.97998.91846l-16.7616-16.83813c-6.50568,4.43921-13.39404,8.49561-20.51196,12.16943-43.7027,22.1958-93.45184,26.09912-140.13953,10.86829-2.29608-.68884-4.59222-1.37769-6.73523-2.2196-92.99261-34.28857-141.8233-134.93494-111.1319-229.30518,5.58722-17.06787,13.39398-32.75793,23.1142-46.91724-6.04639-8.34253-8.11292-19.28735-4.6687-29.77295,5.74023-17.60352,24.56836-27.17065,42.0954-21.43042,3.29108.99487,6.27606,2.52563,8.95483,4.43921,45.61615-31.8396,105.16205-42.70776,162.02911-24.18579,97.35516,31.83936,149.24738,135.01147,117.94366,231.60132Z" fill="url(#Degradado_sin_nombre_35)"/><path d="m314.04175,98.3938c-1.98999-.76538-4.05652-1.4541-6.04645-2.14307-51.43292-16.7616-105.23846-7.271-146.87469,21.27734,3.90344,7.57715,4.97491,16.76172,2.06653,25.56348-5.7403,17.60352-24.56842,27.17065-42.09546,21.43042-1.6073-.53589-3.21454-1.22461-4.7453-1.98999-8.41907,12.552-15.30743,26.40527-20.20581,41.48303-28.70142,88.24731,18.67505,182.77063,107.76428,211.70178,42.63116,13.92969,88.17078,10.40894,128.19965-9.94995,5.66376-2.90845,11.0979-6.12292,16.37897-9.56714l-15.38391-15.46045c-1.45422-1.45422-1.07153-3.2146.9184-3.90344l55.4129-18.67505c11.32751-14.92468,20.28235-31.76282,26.25226-50.13171h-.00006c28.08911-86.25732-16.53198-178.33154-101.6413-209.63525Zm6.58221,248.89868h-125.90356v-29.69629l52.35144-53.65259c10.56207-10.71521,18.06274-19.21082,22.57843-25.63989,4.51569-6.35254,6.73529-12.55212,6.73529-18.44556,0-5.96985-1.98999-10.86816-5.89337-14.92468-3.97998-3.97986-8.9549-5.96985-15.07782-5.96985-11.1745,0-21.88965,7.95984-31.91602,23.95605l-31.91595-18.90466c8.34253-12.93469,17.52698-22.65491,27.47681-29.31372,9.94983-6.65869,22.57843-9.94983,38.03894-9.94983,15.38397,0,28.93103,4.89844,40.5647,14.69507,11.63367,9.79688,17.52704,23.11426,17.52704,39.95239,0,9.18457-2.44922,17.98633-7.11798,26.4054-4.66876,8.49561-13.31744,19.21082-25.94611,32.37512l-31.99249,33.37024h70.49066v35.7428Z" fill="url(#Degradado_sin_nombre_35-2)"/></svg>