<?xml version="1.0" encoding="UTF-8"?><svg id="CIRCLE_OUTLINE_BLACK" xmlns="http://www.w3.org/2000/svg" viewBox="0 0 512 512"><path d="m512,256c0,141.38499-114.61502,256-256,256S0,397.38499,0,256,114.61499,0,256,0s256,114.61502,256,256" fill="#fff"/><g id="btc-circle-solid-default"><path d="m302.80469,201.23669c-12.57831-10.15887-28.24408-12.82304-44.00708-16.89439-4.73346,17.43463-9.18805,33.78967-13.64264,50.14471,14.73193,4.496,29.14362,8.44867,44.1344,7.48352,10.98535-.61768,18.44006-6.29333,21.65338-16.0589,3.04596-9.11775.30325-18.11824-8.13806-24.67494Z" fill="#f7931a"/><path d="m292.87555,281.59332c-15.85876-12.61853-35.2511-16.01495-54.46899-20.97864-5.06812,18.73029-10.02466,37.02869-15.09271,55.75891,4.53455,1.17126,8.58148,2.44684,12.6842,3.50647,14.955,3.63239,29.63837,7.42487,45.29126,4.78799,10.34473-1.70453,17.68787-6.9483,20.63666-17.47321,2.73279-10.5806-.82495-19.10062-9.05042-25.60153Z" fill="#f7931a"/><path d="m256,0C114.61511,0,0,114.61511,0,256s114.61511,256,256,256,256-114.61511,256-256S397.38489,0,256,0Zm87.44946,274.84686c9.17914,9.0506,12.77124,20.11322,11.3197,32.86743-1.56299,13.18616-5.82172,25.21539-13.36801,35.70453-10.38199,13.44199-24.7608,19.172-41.09583,19.09894-12.38531-.20459-24.97229-2.30389-37.56641-3.48376-.70355.04858-1.35132-.11871-2.27081-.12585-3.45074,12.46826-7.57782,28.44714-11.30737,41.99512l-25.26401-6.52533c3.40199-13.17181,7.68933-28.879,11.03564-41.83499-6.63806-1.94482-13.06024-3.83392-20.13023-5.89032-3.50647,12.6842-7.63361,28.66309-11.36316,42.211l-25.26399-6.52533c3.51367-13.60364,7.96826-29.95868,11.31458-42.91455-17.21875-4.67773-34.00568-9.24384-51.00848-13.86578,4.34875-9.70258,8.58594-18.97333,12.93469-28.6759,5.6142,1.45007,11.22841,2.90015,16.84265,4.35016,7.7735,2.00781,12.00922-.12286,14.07275-8.11237,9.52985-36.00476,19.33142-72.16968,29.07721-108.11871,2.23083-8.63727-1.02094-14.7749-9.70685-17.70935-2.96722-.9967-6.20624-1.83331-9.44519-2.66986-2.96729-.99677-6.20624-1.83331-9.87708-2.78143,2.34241-9.06915,4.78925-17.65063,7.18744-26.93567,17.21875,4.67767,33.84546,8.97211,51.06421,13.64978,3.28339-11.82043,7.57782-28.44715,11.25159-41.77912l25.048,6.46955c-3.40201,13.17181-7.8009,29.31091-10.86835,41.18713,6.69391,1.72888,13.17181,3.40199,20.29755,5.24255,3.28339-11.8205,7.46631-28.01532,11.08429-41.13141l25.26401,6.52533c-3.45789,13.38776-7.96826,29.95874-11.09149,42.0509,6.63101,2.86432,13.04599,5.67291,19.34943,8.91339,8.87396,4.50516,16.73874,10.76837,23.116,18.40869,15.96881,19.32672,7.58008,61.61493-22.98071,68.46307-.48767.10437-1.03107.42474-1.79041.68927,5.00089,3.82535,9.89725,7.16302,14.13864,11.2529Z" fill="#f7931a"/></g></svg>