<?xml version="1.0" encoding="UTF-8"?><svg id="uuid-316f07d1-eb06-42fc-972f-108c0aa7f6c2" xmlns="http://www.w3.org/2000/svg" width="14.72847cm" height="14.11111cm" viewBox="0 0 417.5 400"><path d="M208.89999,25.10003c-15.10001,0-30.10001,2.7-44.2,8.1-1.89999.7-3.7,1.5-5.5,2.3h-.3c-1.8.8-3.60001,1.6-5.3,2.5h-.3c-1.8.9-3.5,1.8-5.3,2.8h-.2c-1.7,1-3.5,2-5.2,3.1-58.5,36.5-76.4,113.5-39.9,172,10.1,16.2,23.7,29.8,39.9,39.89999,1.7,1.10001,3.39999,2.10001,5.10001,3,.10001,0,.2.10001.2.10001,1.7.89999,3.39999,1.89999,5.2,2.70001.10001.10001.2.10001.39999.20001,1.7.89999,3.5,1.70001,5.2,2.39999.10001.10001.3.10001.39999.20001,1.8.79999,3.60001,1.5,5.39999,2.20001,64.5,24.5,136.69998-8,161.10001-72.60001,5.39999-14.2,8.10001-29.2,8.10001-44.3h0c.10001-69-55.79999-124.9-124.8-124.9h0v.3l.00002-.00002ZM208.8,266.90003h0c-64.5,0-116.8-52.3-116.8-116.8s52.3-116.8,116.8-116.8,116.8,52.2,116.8,116.7-52.29999,116.90001-116.8,116.90001Z" fill="#606d7a" stroke-width="0"/><path d="M288.39999,80.60003c.10001,1.7.5,3.3,1.29999,4.8.5.8.70001,1.6.79999,2.5,0,.4-.20001.8-.5,1.1-.39999.3-.79999.4-1.20001.3-.60001,0-1-.5-1.39999-1-.5-.6-.79999-1.5-.60001-2.3.20001-.6.5-1.1,1-1.5l-3.10001-3.4c-1.10001,1-1.79999,2.3-2,3.8,0,2,.79999,3.9,2.20001,5.3.79999,1,1.70001,1.9,2.89999,2.6.89999.5,1.89999.7,3,.6,1,0,1.89999-.5,2.70001-1.1.60001-.5,1.10001-1.2,1.39999-1.9.29999-.9.29999-1.8.10001-2.7-.39999-1.5-1-3-1.70001-4.4-.29999-.5-.5-1.1-.60001-1.6,0-.3.10001-.5.29999-.7.29999-.2.60001-.3,1-.2.39999,0,.79999.4,1.10001.8h.10001c.79999,1,.70001,2.3-.20001,3.1h0l3,3.4c1.10001-.9,1.60001-2.3,1.60001-3.7-.20001-1.6-.89999-3.1-2-4.3-.79999-1.1-1.79999-2-2.89999-2.6-.79999-.5-1.70001-.7-2.60001-.6-.79999,0-1.60001.4-2.20001.9-.89999.5-1.5,1.6-1.5,2.8h0l.00006-.00002Z" fill="#606d7a" stroke-width="0"/><polygon points="292.5 100.50003 294.79999 104.80003 300.60001 101.60003 311.5 102.40003 308.89999 97.80003 302.70001 97.60003 305.79999 92.20003 303.20001 87.50003 298.20001 97.30003 292.5 100.50003" fill="#606d7a" stroke-width="0"/><path d="M308.10001,105.60003c-1.10001.4-2,1.3-2.29999,2.4-.39999,1.6-.5,3.3-.20001,4.9.20001.9.20001,1.8,0,2.6-.20001.7-1,1.1-1.79999.9-.10001,0-.20001,0-.29999-.2-.5-.3-.89999-.8-1-1.3-.29999-.8-.29999-1.6.10001-2.3.39999-.5.79999-.9,1.39999-1.2l-1.89999-4.2h0c-1.29999.6-2.39999,1.7-3.10001,3-.60001,1.9-.39999,4,.5,5.7.39999,1.2,1.10001,2.3,1.89999,3.3.70001.7,1.60001,1.3,2.60001,1.5s2,.2,2.89999-.2c.79999-.3,1.39999-.8,2-1.4.5-.7.89999-1.6.89999-2.5.10001-1.6,0-3.2-.29999-4.8-.10001-.6-.20001-1.2,0-1.7.10001-.3.29999-.5.5-.6h1c.39999.3.70001.6.79999,1.1h.10001c.5,1.1,0,2.3-1.10001,2.8h0l1.89999,4.2c1.29999-.6,2.29999-1.7,2.70001-3,.29999-1.6.10001-3.2-.60001-4.7-.39999-1.2-1.10001-2.4-1.89999-3.4-.60001-.7-1.39999-1.2-2.29999-1.4-.89999,0-1.79999,0-2.5.3v.2h-.00003Z" fill="#606d7a" stroke-width="0"/><polygon points="315 125.10003 303.39999 127.50003 304.39999 132.30003 316 129.90003 317 134.70003 320.79999 133.90003 317.70001 119.50003 313.89999 120.30003 315 125.10003" fill="#606d7a" stroke-width="0"/><polygon points="306.20001 151.50003 309.79999 151.40003 309.29999 143.00003 312.39999 142.80003 312.79999 150.40003 316 150.20003 315.60001 142.60004 318.10001 142.50003 318.5 150.60004 321.89999 150.40003 321.20001 137.50003 305.5 138.30003 306.20001 151.50003" fill="#606d7a" stroke-width="0"/><polygon points="305.89999 157.00003 317.70001 158.40003 305.5 160.00003 305.10001 163.60004 316.60001 168.00003 304.70001 166.60004 304.20001 170.60004 319.79999 172.40003 320.60001 166.10004 311.39999 162.50003 321.20001 161.20003 321.89999 154.90003 306.29999 153.00003 305.89999 157.00003" fill="#606d7a" stroke-width="0"/><path d="M316.5,176.90003c-.5-.60001-1.20001-1.10001-2-1.3-1.10001-.39999-2.29999-.2-3.29999.39999-1.29999,1-2.39999,2.3-3.20001,3.8-.39999.8-.89999,1.5-1.60001,2.10001-.39999.2-.79999.3-1.20001.2s-.79999-.5-.89999-.89999c-.20001-.5-.20001-1.10001,0-1.7.20001-.8.79999-1.5,1.5-1.8.60001-.2,1.20001-.2,1.79999-.10001l1.10001-4.5h0c-1.39999-.39999-3-.2-4.29999.5-1.60001,1.2-2.70001,2.89999-3.10001,4.89999-.39999,1.2-.60001,2.5-.5,3.8.10001,1,.5,2,1.20001,2.8.60001.8,1.5,1.3,2.39999,1.60001.79999.2,1.60001.3,2.39999.10001.89999-.2,1.60001-.7,2.20001-1.39999,1-1.2,1.89999-2.5,2.70001-4,.20001-.5.60001-1,1-1.39999.20001-.2.5-.2.70001-.10001.29999.10001.60001.3.70001.7s.10001.89999,0,1.3h0c-.29999,1.2-1.5,1.89999-2.60001,1.60001h0l-1.10001,4.5c1.39999.3,2.79999.10001,4-.8,1.20001-1.10001,2-2.5,2.39999-4.10001.39999-1.2.60001-2.60001.5-3.89999,0-.7-.20001-1.60001-.79999-2.3h0l-.00003-.00002Z" fill="#606d7a" stroke-width="0"/><path d="M292.89999,212.90003c-1.5-1.2-3.79999-1-5,.5s-1,3.8.5,5c.70001.60001,1.70001.89999,2.60001.8,1.89999-.2,3.39999-2,3.10001-3.89999,0-1-.5-1.8-1.20001-2.39999h0v-.00002Z" fill="#606d7a" stroke-width="0"/><polygon points="269.89999 74.50003 274 69.50003 278.70001 73.40003 280.70001 70.90003 276 67.10003 277.70001 65.00003 283.20001 69.50003 285.39999 66.90003 276.10001 59.20003 266.10001 71.40003 269.89999 74.50003" fill="#606d7a" stroke-width="0"/><path d="M257.89999,66.50003c1.29999.8,2.70001,1.3,4.29999,1.4,1.29999,0,2.60001-.3,3.70001-1,1.29999-.9,2.29999-2.1,3.10001-3.4,1.20001-1.8,1.60001-4,1.20001-6.2-.70001-2.1-2.20001-3.9-4.10001-4.9-3.29999-2.4-8-1.7-10.39999,1.7-.3.4-.5.8-.7,1.2h0c-.89999,1.3-1.3,2.9-1.39999,4.5,0,1.3.39999,2.6,1.10001,3.7.7,1.3,1.90001,2.3,3.2,3h-.00003ZM259,57.80003h0c.5-1.1,1.39999-2,2.5-2.5.89999-.3,1.79999-.2,2.60001.3.79999.4,1.39999,1.2,1.60001,2.1.10001,1.2-.20001,2.3-.89999,3.2-.5,1.2-1.39999,2.1-2.60001,2.7h-.10001c-1.79999.4-3.60001-.7-4-2.5-.10001-1.2.20001-2.4.89999-3.3Z" fill="#606d7a" stroke-width="0"/><path d="M236.60001,50.20003h.39999c.39999.2.8.5,1,.8.3.4.39999.9.5,1.4l1.10001,5.3,5.3,1.6-.89999-5c-.10001-.4-.2-.8-.39999-1.1-.10001-.4-.3-.7-.5-1-.3-.4-.7-.7-1-.9h2.10001c2.3-.8,3.60001-3.3,2.8-5.6-.2-.8-.8-1.5-1.39999-1.9-1-.6-2.10001-1.1-3.2-1.4l-7.7-2.3-4.5,15,4.7,1.4,1.7-6.1v-.2h-.00003ZM238.3,44.30003l2,.6c.60001,0,1.2.4,1.60001.9.2.4.3.8.10001,1.3-.10001.3-.3.6-.60001.8s-.60001.3-.89999.2c-.39999,0-.89999,0-1.3-.2l-2-.6,1.10001-3h-.00002Z" fill="#606d7a" stroke-width="0"/><path d="M203.10001,53.00003l-.2-6.4h.39999c.39999,0,.8,0,1.2.3s.7.7.89999,1.2l2.8,4.7,5-.2,4.39999.6,1.10001-2.5,5.5.7.5,2.7,5,.6-3.89999-16.3-5.3-.7-7.3,13.9-2-3.5c-.2-.3-.39999-.7-.7-.9-.5-.7-1.2-1.2-2.10001-1.3.60001,0,1.2-.4,1.7-.7.10001,0,.2,0,.2-.2,2-1.5,2.39999-4.3.89999-6.2-.5-.7-1.2-1.1-2-1.4-1.10001-.3-2.3-.3-3.5-.3l-8.10001.3.60001,15.7h4.89999l.00003-.09999ZM222.5,42.10003l1,5.8-3.39999-.4s2.39999-5.4,2.39999-5.4ZM204.7,40.40003c.60001,0,1.3,0,1.8.3.60001.5.7,1.4.3,2.1-.2.3-.5.5-.8.5s-.8.2-1.3.3h-2v-3.1c-.10001,0,2,0,2,0h0v-.1Z" fill="#606d7a" stroke-width="0"/><polygon points="185.10001 43.60003 187.39999 55.20003 192.10001 54.30003 189.8 42.70003 194.7 41.70003 193.89999 37.90003 179.5 40.80003 180.2 44.60003 185.10001 43.60003" fill="#606d7a" stroke-width="0"/><path d="M167.8,52.70003c1.60001.5,3.3.5,4.89999.2.89999-.2,1.8-.2,2.60001,0s.7.4.89999.8c.10001.4.10001.9-.10001,1.3-.3.5-.8.8-1.3,1-.8.3-1.60001.3-2.3-.2-.5-.4-.89999-.8-1.2-1.4l-4.2,1.9c.60001,1.4,1.60001,2.5,3,3.1,1.89999.6,4,.4,5.7-.4,1.2-.4,2.39999-1.1,3.3-1.9.8-.7,1.3-1.6,1.5-2.6s.2-2-.2-2.9c-.3-.8-.7-1.5-1.39999-2s-1.60001-.9-2.5-.9c-1.60001,0-3.2,0-4.8.3h-1.7c-.3,0-.5-.3-.60001-.5-.10001-.3-.10001-.7.10001-1,.3-.4.60001-.7,1.10001-.8h.10001c1.10001-.5,2.3,0,2.8,1.2l4.2-1.8c-.60001-1.3-1.60001-2.3-3-2.7-1.60001-.3-3.2,0-4.7.5-1.3.4-2.39999,1-3.39999,1.9-.7.6-1.2,1.4-1.39999,2.3-.2.8-.2,1.6.10001,2.4.60001,1,1.39999,1.9,2.5,2.3h0l-.00003-.09999Z" fill="#606d7a" stroke-width="0"/><rect x="159.19275" y="48.28042" width="4.89999" height="15.7" transform="translate(-7.98472 78.61426) rotate(-26.7)" fill="#606d7a" stroke-width="0"/><path d="M143.3,67.60003c.8,1.3,1.89999,2.3,3.2,3,1.2.7,2.5,1,3.89999.8,1.60001-.2,3-.8,4.3-1.8,1.10001-.7,2.10001-1.6,3-2.6.89999-1.2,1.5-2.4,2-3.8l-3.8-5.5-6.2,4.2,1.8,2.7,2.7-1.8.8,1.2c-.3.6-.60001,1.1-1,1.6-.3.4-.7.8-1.2,1.1-.8.6-1.8.8-2.8.6-1.2-.5-2.2-1.3-2.8-2.5-.8-1-1.2-2.2-1.2-3.4.10001-1,.7-1.8,1.5-2.3.5-.4,1.10001-.6,1.7-.6s1.10001.2,1.60001.6l3.39999-3.3c-.7-.6-1.60001-1.1-2.5-1.4-.8-.2-1.7-.2-2.60001,0-1.3.4-2.39999,1-3.5,1.8-1.3.8-2.3,1.8-3.10001,3-.7,1.2-1.10001,2.7-1,4.1.3,1.5.89999,3,1.8,4.3h.00002Z" fill="#606d7a" stroke-width="0"/><polygon points="147 74.70003 144.60001 72.20003 138.5 77.90003 136.39999 75.70003 141.8 70.50003 139.60001 68.10003 134.2 73.30003 132.39999 71.50003 138.3 65.90003 136 63.50003 126.6 72.40003 137.39999 83.80003 147 74.70003" fill="#606d7a" stroke-width="0"/><path d="M130.5,92.50003l-5.1-3.9.3-.3c.3-.3.6-.6,1-.7h1.50001l5.39999.9,3.3-4.4-5-.9h-2.3c-.39999.2-.89999.4-1.2.7.3-.5.5-1.1.5-1.7v-.3c.10001-2.4-1.8-4.5-4.2-4.6-.8,0-1.6.2-2.3.7-.9.7-1.7,1.5-2.4,2.5l-4.9,6.4,12.5,9.6s2.89999-4,2.89999-3.99999ZM124.9,84.10003c-.2.4-.4.8-.6,1.1l-1.2,1.6-2.5-1.9,1.3-1.7c.3-.5.8-1,1.4-1.2.8,0,1.5.4,1.8,1.1,0,.4,0,.7-.2,1h-.00002Z" fill="#606d7a" stroke-width="0"/><path d="M120.3,110.00003c.4-.9.7-1.8.8-2.8,0-.8,0-1.7-.2-2.5-.3-.9-.8-1.7-1.5-2.4-1-.9-2.1-1.6-3.3-2.1-.9-.4-1.9-.7-2.9-.9-.9-.2-1.9,0-2.8,0s-1.7.7-2.4,1.3c-.8.8-1.5,1.8-1.9,2.9l-3,6.6,14.3,6.4,2.9-6.6h0v.1ZM116.5,109.60003l-.5,1.1-7.8-3.5.5-1.1c.3-.9,1-1.7,1.9-2.1,1.2-.2,2.4,0,3.5.7.9.3,1.7.8,2.3,1.4.4.4.6.9.7,1.4,0,.7-.2,1.4-.6,2.1Z" fill="#606d7a" stroke-width="0"/><polygon points="116.7 118.10003 113.3 117.20003 111.1 125.30003 108.2 124.50003 110.1 117.20003 107 116.40003 105.1 123.70003 102.6 123.00003 104.8 115.10003 101.5 114.30003 98.1 126.80003 113.3 130.90003 116.7 118.10003" fill="#606d7a" stroke-width="0"/><polygon points="100.2 140.50003 112 141.80003 112.5 137.00003 100.7 135.70003 101.3 130.70003 97.4 130.30003 95.8 145.00003 99.7 145.40003 100.2 140.50003" fill="#606d7a" stroke-width="0"/><rect x="95.85822" y="148.45177" width="15.7" height="4.89999" transform="translate(-2.35747 1.64759) rotate(-.9)" fill="#606d7a" stroke-width="0"/><polygon points="112.9 166.00003 104.3 167.10004 112.1 160.20003 111.5 155.60004 95.9 157.70003 96.5 162.20003 105.2 161.10004 97.3 168.10004 97.9 172.60004 113.5 170.50003 112.9 166.00003" fill="#606d7a" stroke-width="0"/><path d="M116.4,179.30003c-.3-1.10001-.8-2.10001-1.5-3.10001-.5-.60001-1.1-1.10001-1.8-1.5-.8-.39999-1.6-.60001-2.5-.60001s-1.8.10001-2.6.39999l-8.9,2.89999,1.5,4.60001,9.1-2.89999c.7-.3,1.5-.2,2.1.10001,1.3.8,1.8,2.39999,1.2,3.8-.4.60001-1,1.10001-1.7,1.3l-9.1,2.89999,1.5,4.60001,8.9-2.89999c.9-.3,1.7-.7,2.4-1.2.6-.39999,1.1-.89999,1.4-1.5.4-.60001.7-1.3.8-2v-2.39999c-.2-.89999-.4-1.7-.7-2.5h-.1v-.00002Z" fill="#606d7a" stroke-width="0"/><path d="M124.4,212.50003c-.8.60001-1.2,1.39999-1.3,2.39999-.2,1.89999,1.2,3.7,3.1,3.89999,1.89999.2,3.7-1.2,3.89999-3.10001s-1.2-3.7-3.1-3.89999c-.9-.2-1.8.10001-2.6.7h0v.00002Z" fill="#606d7a" stroke-width="0"/><path d="M206.8,256.80002c1.2-.70001,2.3-1.60001,3.2-2.7.60001-.8.89999-1.7,1-2.7,0-.89999-.2-1.7-.60001-2.5-.5-.7-1.10001-1.3-1.89999-1.7-1.10001-.39999-2.3-.7-3.60001-.7-1.2-.10001-2.39999,0-3.5.39999-.8.3-1.5.8-2,1.5-.60001.89999-.89999,1.8-1.10001,2.8l4.39999.5c.10001-.7.3-1.3.8-1.8.8-.7,2-.60001,2.7.10001.3.3.5.8.5,1.2s-.3,1-.60001,1.39999c-.8.8-1.60001,1.5-2.5,2.10001-1.7,1-3.2,2.3-4.39999,3.90001-.8,1.10001-1.3,2.29999-1.5,3.60001l13.10001.5v-3.60001c.10001,0-6.7-.29999-6.7-.29999.39999-.39999.8-.70001,1.10001-.89999.10001-.10001.7-.5,1.60001-1.10001h0v-.00003Z" fill="#606d7a" stroke-width="0"/><path d="M211.89999,247.10004l.3,3.7,7.7-.7c-1.2,1.8-2.2,3.8-3,5.89999-.60001,2.10001-1,4.29999-1,6.60001l4.3-.39999c-.10001-1.60001.10001-3.29999.39999-4.79999.3-1.7.89999-3.39999,1.7-4.89999.7-1.3,1.5-2.39999,2.5-3.5l-.3-2.89999-12.60001,1h0l.00002-.00003Z" fill="#606d7a" stroke-width="0"/><path d="M238.10001,246.90003c-.3-.5-.60001-1-1-1.39999s-.8-.8-1.3-1c-.60001-.3-1.2-.5-1.89999-.60001-.89999-.10001-1.8,0-2.60001.2-1.8.3-3.39999,1.3-4.39999,2.89999-.8,2.10001-.89999,4.39999-.10001,6.5h0c.2,1.10001.60001,2.10001,1.10001,3.2.3.79999.8,1.5,1.39999,2.10001.7.70001,1.5,1.10001,2.39999,1.29999,1.10001.20001,2.2.20001,3.3-.10001,1.89999-.20001,3.5-1.39999,4.39999-3.10001.60001-2.10001.60001-4.3,0-6.39999-.3-1.39999-.7-2.5-1.3-3.60001h0l.00002.00003ZM235.3,256.20004c-.2.39999-.60001.60001-1,.70001-.7.10001-1.39999-.10001-1.7-.70001-.7-1.2-1.2-2.5-1.5-3.89999h0c-.39999-1.3-.60001-2.7-.5-4.10001.10001-.7.60001-1.3,1.3-1.39999.7-.2,1.39999.10001,1.8.7.7,1.2,1.3,2.60001,1.5,4,.3,1,.39999,2.10001.5,3.10001,0,.60001-.10001,1.10001-.39999,1.59999h-.00002Z" fill="#606d7a" stroke-width="0"/><path d="M251.2,241.90003c-.3-.5-.7-.89999-1.10001-1.3s-.89999-.60001-1.39999-.89999c-.60001-.2-1.3-.39999-1.89999-.3-.89999,0-1.8.2-2.60001.60001-1.7.5-3.2,1.8-3.89999,3.5-.5,2.2-.2,4.39999.8,6.39999h0c.39999,1,.89999,2,1.5,3,.39999.7,1,1.39999,1.7,1.89999.7.60001,1.60001.89999,2.5,1,1.10001.10001,2.2-.10001,3.2-.60001,1.8-.5,3.3-1.89999,3.89999-3.7.3-2.2,0-4.39999-.89999-6.39999-.5-1.10001-1.10001-2.2-1.8-3.2ZM249.8,251.60004c-.2.39999-.5.7-.89999.89999-.60001.2-1.39999.10001-1.8-.5-.89999-1.10001-1.60001-2.3-2-3.60001h0c-.60001-1.2-.89999-2.60001-1-4,0-.7.39999-1.3,1.10001-1.60001s1.39999-.10001,1.89999.39999c.89999,1.10001,1.60001,2.39999,2,3.7.39999,1,.7,2,.89999,3,0,.60001,0,1.10001-.2,1.7h0v.00003Z" fill="#606d7a" stroke-width="0"/><path d="M256,234.40003c.10001,1.10001-.10001,2.10001-.5,3.10001-.5,1.2-1.3,2.3-2.2,3.2l1.7,3.10001c.60001-.60001,1.20001-1.3,1.70001-2.10001.5-.7.79999-1.39999,1.20001-2.2l5.10001,9.10001,3.89999-2.2-7.79999-13.89999-3.10001,1.89999h0l-.00003-.00002Z" fill="#606d7a" stroke-width="0"/><path d="M183.5,243.50003c-3.8-1.39999-8.10001.5-9.60001,4.39999-.2.5-.3.89999-.39999,1.39999h0c-.5,1.5-.5,3.2-.10001,4.7.3,1.3,1,2.40001,2,3.3,1.2.89999,2.60001,1.60001,4,2s3,.5,4.5.20001c1.3-.29999,2.39999-1,3.3-2,1-1.20001,1.7-2.60001,2.10001-4.10001.7-2.10001.5-4.3-.5-6.2-1.2-2-3.10001-3.3-5.3-3.7ZM184.7,252.00003c-.2,1.3-.8,2.39999-1.8,3.3,0,0-.10001,0-.10001.10001-1.60001.90001-3.7.3-4.5-1.3h0c-.39999-1.10001-.39999-2.39999,0-3.5h0c.2-1.2.8-2.3,1.8-3.10001.7-.5,1.7-.7,2.5-.39999.89999.2,1.7.8,2.10001,1.60001.39999,1,.39999,2.2,0,3.3h0v-.00002Z" fill="#606d7a" stroke-width="0"/><path d="M173,245.20003c.5-1.3.39999-2.8-.2-4-.89999-1.3-2.2-2.3-3.7-2.89999-1.2-.60001-2.5-.89999-3.8-1-.89999,0-1.8.2-2.60001.7-.7.39999-1.2,1.10001-1.60001,1.8-.5,1.10001-.5,2.3,0,3.3.8,1.5,2,2.7,3.39999,3.60001.8.5,1.39999,1.10001,1.89999,1.89999.2.39999.2.8,0,1.2s-.5.7-1,.8c-.60001.10001-1.2.10001-1.7-.2-.8-.3-1.39999-1-1.60001-1.8-.10001-.60001-.10001-1.2.2-1.8l-4.3-1.60001c-.5,1.39999-.5,2.89999,0,4.3.89999,1.8,2.5,3.10001,4.39999,3.7,1.2.60001,2.39999.89999,3.7,1,1,0,2-.3,2.89999-.8.8-.5,1.5-1.3,1.89999-2.2.3-.7.5-1.60001.39999-2.39999-.10001-.89999-.5-1.7-1.10001-2.39999-1.10001-1.2-2.3-2.2-3.60001-3.10001-.5-.3-.89999-.7-1.2-1.2-.10001-.2-.10001-.5,0-.8s.39999-.5.8-.60001.89999,0,1.3.2h.10001c1.10001.39999,1.60001,1.7,1.2,2.8h0l4.2,1.5h.00006Z" fill="#606d7a" stroke-width="0"/><rect x="147.08959" y="237.76986" width="15.7" height="4.89999" transform="translate(-130.7688 249.30664) rotate(-59)" fill="#606d7a" stroke-width="0"/><path d="M208.8,57.00003h0c-51.40001,0-93.1,41.7-93.1,93.10001s41.7,93.10001,93.1,93.10001,93.09999-41.7,93.09999-93.10001-41.70001-93.1-93.10001-93.1h.00002ZM147,96.80003l.2-.2c.10001,0,.2-.3.3-.4,1.3-1.4,2.60001-2.9,4-4.2,0,0,.10001,0,.2-.2h.2c1.3-1.4,2.7-2.6,4-3.8.10001,0,.2-.2.3-.2s.2-.2.3-.2c1.39999-1.2,2.89999-2.4,4.39999-3.4l.39999-.2c.5,0,1-.2,1.5-.2s.8,0,1.2.2c.8.2,1.60001.3,2.3.4.89999,0,1.8.3,2.7.6.3,0,.60001.3.8.5.39999.4.8.8,2.7.9.89999,0,1.60001,0,2.10001.2h1.2c.39999,0,.8,0,1.2-.3.3,0,.60001-.3,1-.3.5-.2.8-.2.8-.5s-.2-.3-1.3-.5h-2c-.60001,0-1,0-1.3-.4-.2-.2-.5-.4-.8-.5h-.10001v-.4c.2-.4.3-.5.39999-.7.2-.3.2-.4,0-.9-.10001-.2,0-.3.39999-.5h.5c0,.3.2.3.3.3h1.60001c1.5-.2,3.10001-.3,4.60001-.3h1.8c.5,0,1.10001-.2,1.60001-.3h.5c-.39999.2-.8.3-1.2.4s-.8,0-1,.4c-.10001.2-.10001.4-.10001.6v.7c-.10001.6.10001.7,1,.9.39999,0,.8.2,1.2.4h-4.60001c-.39999,0-.7.2-.7.7s-.10001.4-.2.6c-.10001.3-.2.5-.10001.7s.5.3,1.3.4h1.7c.5,0,1,0,1.39999-.3h1s.2,0,.7-.7c.3-.3,1.10001-1.3,1.5-1.6-.10001.4-.3.9-.60001,1.2-.2.2-.39999.8-.2,1.1.10001,0,.2.2.39999.2s.39999,0,.60001-.2c.3-.2.7-.3,1-.3.60001,0,1.3-.3,1.3-1.3s-.10001-.8-.2-1.2c-.10001-.2,0-.3.10001-.4h.10001c.10001,0,1.3-.5,1.2-1,0-.2-.2-.3-.5-.3h-2.7c-.2,0-.39999,0-.60001-.2v-.2c.13333-.13333.23334-.23333.3-.3.3-.4.5-.6,1.60001-.7h1.5c.5,0,.60001-.2.8-.4h0c.10001.3.10001.5-.10001.7s-.10001.2-.10001.3c.10001,0,.2.2.60001,0,.8,0,1.60001,0,2.2-.5.39999-.2.7-.3.89999-.4s.39999-.2.7-.3h.10001c.10001,0,.3.2.39999.3h0c.10001.2.10001.3.2.4-.2,0-.39999,0-.60001.2-.39999.2-.89999.3-1.39999.4-.39999,0-.8.2-1.10001.5-.2,0-.3.2-.39999.3-.60001.4-.7.5-.5,1.5.10001.2.10001.3.10001.5.2.7.3.8,1.10001.8s1.10001,0,1.10001.2l-.3.3c-.2.2-.39999.3-.5.4-.60001.4-.8.6-.7,1.3.10001.2.2.4.39999.6h.10001s-.10001,0-.7.4c-1.39999.8-2.8,1.6-4.2,2.2-1.60001.3-3.10001.8-4.5,1.5-.39999.3-.89999.5-1.3.7-.60001.2-1,.6-1.2,1.2-.10001.3-.3.5-.39999.8-.3.5-.39999.7.10001,1.3.5.8,1.3,1.4,2.2,1.6.39999,0,.7.3,1,.5.60001.4,1.39999.7,2.10001.8h2.2v.2c-.2,0-.3.3-.39999.5-.60001,1-1.39999,2.3-.7,3.1.39999.6,1.10001.9,1.8,1,.60001,0,1.2-.4,1.39999-1,.3-.5.5-1.1.60001-1.7,0-.6.39999-1.1.8-1.4.3-.2.7-.3,1.10001-.3h.3c.60001,0,1.2-.3,1.60001-1.5.3-.6.39999-1.3.3-2,0-.3-.10001-.5.5-1.1.7-.8,1.39999-1.7,2-2.7.2-.3.5-.5.89999-.5h0c.7,0,1.39999.2,2.10001.3,1.10001,0,2.10001.7,2.8,1.5.2.3.2.6.10001.9-.2.3-.39999.6-.60001.9-.2.2-.39999.4-.3.6s.3.2.60001.3h.89999c.7,0,1.3-.4,1.8-.9s.39999-.4.60001-.6c.39999-.4.7-.7.89999-.7s.10001,0,.3.2c.10001.2.2.3.39999.5.39999.4.60001.9.39999,1.5,0,.3-.2.6-.39999.8-.2.3-.39999.6.10001,1.3.5.5,1.10001.9,1.7,1.1.5,0,1,.4,1.39999.8.10001.3.3.5.5.7.2.3.5.6.39999.8,0,0-.2.2-.39999.3-1.10001.4-1,1.7-1,2.4v.3c0,.5.3.7.60001.9.3.2.5.4.8.6.5.6.8,1.2.7,1.5,0,0-.10001,0-.3.2h-.5c-.39999-.2-1-.3-1.5-.3h-3.3c.2-.5.3-.7,1.3-1.4.3-.2.5-.4.7-.5.60001-.4,1-.7,1-1.4s0-1.3-.60001-1.3h0c-.3,0-.5,0-.7.2-.3.2-.5.4-.8.7-.2.3-.39999.5-1.10001.5h-3c-.5,0-.89999,0-1.3-.2h-.8c-.3,0-.8,0-1.10001.3-.3,0-.60001.3-.89999.4-1.2.6-1.89999.9-2,1.3v.3c.2.2.5.3.7.2.39999,0,.8,0,1.10001-.2.5-.2,1-.2,1.5-.2h.8-.10001c-.2,0-.39999.3-.60001.4-.60001.3-1.10001.7-.8,1.4h0c.5.7,1.3,1.1,2.2,1.1h.10001c.3,0,.7,0,.89999-.3.3-.2.7-.3,1.10001-.3s.60001,0,.8.2h-.10001c-.7.8-1.60001,1.4-2.60001,1.9h-3c-.60001,0-1.2.2-1.8.2h-.89999c-.2,0-.3,0-.39999-.2-.2,0-.39999-.2-.60001-.2h-.5c-.60001,0-1.10001.4-1.5.9-.39999.4-.8.7-1.3,1.1-1.10001.6-2.10001,1.2-3,2-.5.4-.89999.8-1.3,1.2-.3.4-.7.7-1.10001,1-.3.2-.5.5-.60001.8h-.2c-.3,0-.5-.2-.7-.3-.10001,0-.3-.2-.39999-.2-.3,0-.39999.4-.39999.5-.2.5-.2,1.1,0,1.6,0,0,.10001.3.10001.4.2.3.2.7,0,1.1h0c-15.2,2.2-28.3,6.4-37.39999,11.8-.3-.5-.60001-.89999-.8-1.3-.3-.5-.7-1-1-1.39999-.5-.39999-.7-1-.7-1.60001v-.9c.10001-.7.10001-1.1-.7-1.4-.3,0-.5-.3-.7-.4-.2-.2-.39999-.3-.7-.4-.39999,0-.5.5-.5.7s0,.3-.10001.4c-.2.7-.10001,1.5.2,2.1.2.3.39999.7.5,1.10001s.3.8.5,1.10001.2.60001.3.89999c0,.39999.2.7.39999,1,.2.2.3.39999.5.60001.3.3.5.60001.60001.89999-.3.2-.5.39999-.8.60001l-.39999-.39999c-.2-.2-.39999-.39999-.5-.60001h0c.10001-.10001.3-.10001.39999-.2.10001-.2.10001-.3,0-.5-.10001-.10001-.10001-.3-.10001-.5,0-.3-.10001-.5-.7-.8-.2-.10001-.39999-.2-.60001-.2h-.2c0-.10001-.10001-.2-.10001-.3-.10001-.39999-.2-.60001-.10001-.7.2-.2.3-.39999.3-.7.10001-.39999-.10001-.8-.39999-1.10001-.2,0-.3-.3-.39999-.5-.2-.4-.3-.8-.3-1.3v-1.2c0-.8-.3-1.6-1-2-.10001,0-.3-.3-.39999-.4-1-1.2-1.5-2.7-1.3-4.3v-1.2c0-.6,0-1.2.10001-1.9.10001-2.6,1.39999-5.1,3.60001-6.6.5-.5.89999-1.1.89999-1.8s-.3-.9-.60001-1.2c-.3-.3-.60001-.5-1-.7-.39999-.3-.5-.4-.5-.6.10001-.2.3-.3.7-.3s.8.2,1.10001.5c.2.3.3.6.39999.9.2.6.3,1.1,1,1.1s1.10001-.3,1.3-.8c.10001-.4,0-.8-.39999-1.1-.3-.2-.5-.4-.8-.6-.60001-.3-1-.8-1.2-1.4-.10001-.3-.2-.6-.3-.9-.10001,0-.10001-.2-.2-.4,1-1.6,2.2-3.1,3.5-4.6v-.2l-.00002-.00002ZM172.89999,80.80003c-.89999,0-1.8.2-2.7.5-.39999,0-.8.2-1.2.4-.2,0-.5.2-.7.3,0,0,.10001,0,.10001-.2.2-.3.39999-.6.5-.9.2-.4.2-.5,1.2-.9,1.10001-.5,2.2-.7,3.39999-.7h2.7c-.10001,0-.2,0-.3.2l-.60001.3c-1.10001.5-1.5.7-1.5,1h-.89999ZM209,85.10003c.10001.2.3.3.8.5h1.60001c.3,0,.60001,0,.8.4.10001.3.3.5.5.7.10001.2.3.4.3.5h-.2c-.5.3-1.10001.4-1.7.3-.39999,0-.89999-.2-1.2-.4-.3-.2-.7-.3-1-.3h-.3c-.10001.2,0,.4.10001.5.3.5.8.8,1.3,1.1.39999.2.5.3.5.4s-.10001.3-.10001.4c-.10001.4-.10001.7-.8.7s-1.3,0-1.89999-.3c-.10001,0-.2-.3-.2-.4s0-.3-.2-.3h-.2c-.10001.3-.10001.5-.2.7-.10001.3,0,.7.2,1h-.39999c-.5,0-1,.2-1.5.3-.2,0-.3,0-.60001-.4s-.3-.3-.39999-.4c-.3-.3-.60001-.6-1-.7-.10001,0-.2,0-.2-.2-.10001-.2-.3-.3-1.3-.3h0c-.7,0-1.39999.2-2.10001.4l-.10001-.2c-.10001-.2,0-.4.10001-.6.3-.3.8-.5,1.2-.5h1.3c.39999,0,.8-.2,1.10001-.5.5-.3,1-.5,1.5-.6s.89999-.2,1-.5,0-.6-.10001-.8c-.7-1.2-1.10001-1.7-2.3-2-.89999-.2-1.89999-.3-2.8-.3h-1.39999c-.2,0-.8,0-.8.7v.5c0,.6,0,.8-.3,1-.2,0-.3.3-.39999.5s-.39999.4-.7.4c-.5.2-1.10001.2-1.60001.2s-1,.2-1.5.4h.10001c.10001-.3.2-.5.3-.8.10001-.2.10001-.3.60001-.6.3-.2.60001-.3.89999-.3.5,0,.8-.2.89999-1,0-.5.10001-.5,0-.6h-.2c-.10001-.2-.10001-.3-.10001-.5-.10001-.5-.2-1-.3-1.4-.10001-.3,0-.7.3-.9h.8c1.39999-.4,2.89999-.6,4.39999-.6s.89999,0,1.3.2c.2,0,.60001.2,1.3.4.60001.2,1.2.3,1.8.4.8,0,1.60001.3,2.2.8.3.3.7.6,1.10001.8.5.3.7.5.7.9s-.10001.5-.3.7c-.5-.2-.60001,0-.60001.2h0v.4l-.00003.00002ZM196.10001,84.10003v.3c-.10001.6-.2.6-.60001.7-.3,0-.7.2-1,.4-.60001.4-.7.5-.8.9-.10001.3-.10001.5-.3.7,0,0-.10001.2-.10001.3h-.10001c-.10001-.2-.2-.4-.3-.5-.10001-.5,0-.5.5-.9.2,0,.3-.2.5-.4.10001,0,.5-.4.39999-.8s-1-.5-1.5-.5-.60001-.2-.7-.6c0,0-.10001-.3-.10001-.5-.10001-.5,0-.8.3-1,.10001,0,.3-.2.5-.3.3-.2.60001-.4,1-.4s1-.2,1.39999-.4h.2c-.2.3-.2.7-.10001,1,.10001.4.2.9.3,1.4.2.4.3.7.5.7h0l.00005-.09999ZM178.60001,129.00003c0,.5.10001,1,.2,1.39999.2.8.2,1.2-.3,1.39999-.2.10001-.3.10001-.5.10001-.7,0-1.39999-.60001-1.39999-2s0-1.8-.2-2.7h-.10001c-.7-.2-1.39999-.4-2.10001-.5h-.7c1.8-.6,3.60001-1.1,5.5-1.6-.10001.2-.2.4-.2.6-.3,1.1-.39999,2.3-.2,3.5h0v-.2ZM169.5,127.80003h0c0,.2,0,.39999-.39999.39999h-.2s-.2,0-.3-.10001c.3,0,.60001-.2.89999-.3h0v.00002ZM158.7,136.20003v.5c.39999,1.60001.8,3.2,1.8,3.5.60001.2,1.2.2,1.8.2s1.10001,0,1.7-.10001c1.10001,0,2.10001-.7,2.60001-1.7.2-.3.39999-.60001.7-.8.39999.89999.60001,1.89999.5,2.8h0c-.3.5-.39999,1.10001-.2,1.60001.10001.10001.10001.3.2.39999v3.7c-.5-.39999-1-.7-1.60001-.89999-1.2-.3-2.39999-.89999-3.39999-1.8-1.3-1.10001-2.10001-1.5-2.7-1.5s-.3,0-.5.10001c-.60001.2-1.2.39999-1.8.39999h-.2c-1.39999,0-2.8-.5-3.89999-1.39999-.7-.60001-1.39999-1.10001-2.2-1.5-.2-.10001-.39999-.3-.60001-.39999,2.7-2.89999,5.8-5.39999,9.2-7.3-.10001.2-.2.3-.3.5s-.2.39999-.39999.60001c-.60001.89999-.89999,2-.7,3.10001h0l-.00002-.00002ZM185.8,148.60004c.2.39999.3.5.39999.5s.2-.10001.3-.2c.3-.39999.60001-.7,1.10001-.8,0,0,.10001,0,.2-.10001v6c0,2.7-.39999,9.2-7.5,9.2-1.7.10001-3.3-.60001-4.39999-1.8.3-.3.60001-.5,1-.60001,1-.5,1.2-.89999,1.7-2,.10001-.3.3-.8.60001-1.3.39999-.89999.60001-1.8.5-2.8-.10001-.89999,0-1.8.10001-2.7h-.3c0-.10001.7-1.2.7-1.2.8-1.10001,2-1.89999,3.3-2.10001h.10001c.60001-.5,1.3-1,2-1.39999.10001,0,.10001-.10001.2-.10001-.2.5-.2,1,0,1.39999h0l-.00002.00003ZM190,149.20003c.39999.5.60001.7.89999.7h0c.10001,0,.3,0,.39999-.10001.39999-.10001.89999-.10001,1.3-.10001,1.7.10001,3.3.5,4.8,1.2.60001.2,1.10001.5,1.60001.89999.39999.60001.89999,1.10001,1.39999,1.5l.5.5v6.3c0,2.60001-1.2,2.7-3,2.89999v.8h11.2v-1c-1.8-.2-3-.3-3-2.89999v-4.10001c.7.3,1.39999.8,2.10001,1.3.39999.39999.7.89999.7,1.5s.10001.60001.2.89999c.2.60001.7,1.10001,1.3,1.39999.5.3.89999.60001,1.3,1,.5.5,1.10001.8,1.8.89999.60001.10001,1.10001.2,1.60001.5.60001.39999,1.2.60001,1.89999.7.3,0,.7.10001,1.3.2,1.8,3.10001,3.7,6.2,5.89999,9.10001-.2.2-.3.39999-.5.60001-.7.7-1.3,1.5-1.8,2.39999-.3.60001-.5,1.3-.39999,2-4.10001.39999-8.10001.60001-12.2.60001-9.7,0-19.39999-1-28.89999-3.2-.39999-.8-.89999-1.7-1.3-2.60001-.7-1.3-1.3-2.60001-1.8-3.5-.39999-.60001-.7-1.10001-1-1.5-.8-1.10001-1.3-1.8-1-2.5.10001-.2.2-.39999.3-.60001,1.10001.3,2.3.39999,3.5.39999,3,.10001,5.89999-1,8-3.10001,1.60001-2.39999,2.5-5.3,2.39999-8.2v-5.8h.3c-.2.2-.2.5.2.89999h0v.00006ZM212.5,192.20003v.2c0,.3.10001.5.10001.8-.10001.10001-.2.2-.2.39999s0,.2-.10001.2c-.3.10001-.5.2-.7.5-.5.5-.5.7-.3,1,0,0,.10001.2.10001.3-.2.5-.39999.89999-.60001,1.3-.3.5-.7,1-1.2,1.5l-.2.2c-.5.89999-1.3,1.5-2.3,1.8-.39999.10001-.89999.10001-1.3.10001-.7,0-1.2,0-1.5.60001-.10001.3-.2.39999-.10001.5s.10001.10001.2.10001.2,0,.39999.3c.3.39999.3.5.3.7v.89999c.10001.5,0,.7-.2.89999-.39999.2-.8.5-1.10001.8-.2.3-.5.39999-.8.5-.2,0-.3-.10001-.5-.2-.3-.2-.60001-.3-.89999-.3-.5-.10001-.89999.2-1,.7v.60001c0,.39999,0,.5-.39999.60001h-.10001c-.5.2-.7.3-1.10001,1h-.10001c-.2.39999-.2.5-.2.60001h.10001c0,.10001.10001.10001.10001.10001h.2c.10001,0,.3.10001.39999.2l.3.3c.2.2.2.5.2.8s0,.5-.10001.7-.2.5-.2.7,0,.3-.10001.3-.39999.10001-.89999.7c-.5.5-.60001.60001-.5.7h.10001c0,.10001.10001.10001.10001.10001h.10001s.10001,0,.10001-.10001h.10001c0,.3.10001.60001.3.8.10001.2.3.3.39999.5.2.3.39999.5.7.7.2.2.39999.5.39999.8-.10001.39999-.2.8-.2,1.2v.3c-.10001,0-.2.10001-.3.2-.10001.10001-.2.3-.3.39999-.2.2-.3.5-.3.7,0,.3,0,.39999.10001.5.10001.2.2.39999.3.7h0c-.10001.10001-.2.10001-.3.10001-.2,0-.3,0-.5.10001s-.5.3-.5.60001.39999.39999.5.39999l.7.3c.10001.10001.2.10001.3.2h.10001c.10001,0,.2-.10001.2-.2h0s0-.10001.2-.2h.2s.10001.10001.2.3c.10001.3.39999.5.60001.7.2.10001.39999.2.5.39999l.39999.39999c.3.2.60001.39999,1,.60001.10001,0,.10001.10001.2.10001-.10001,0-.2.10001-.3.10001-.2.10001-.5.10001-.7,0h-2.8c0-.10001-.7-.39999-2-1-.2-.10001-.3-.10001-.39999-.10001h-.3c0-.10001-.10001-.10001-.10001-.2h-.2c-.39999-.3-.60001-.39999-.60001-.5,0-.2-.10001-.39999-.2-.60001,0-.10001-.10001-.2-.10001-.2v-.39999c0-.2-.2-.60001-.5-.60001h0l-.89999-.60001c-.39999-.3-.8-.60001-1.2-1l-.2-.2c.10001-.10001,0-.3-.10001-.5v-.3c-.2-.3-.39999-.7-.60001-1.2l-.2-.39999c-.10001-.10001-.10001-.2-.10001-.3h0c0-.2,0-.3.2-.5s.3-.5.39999-.8c0-.10001,0-.5-.3-.5h-.3c-.2,0-.3,0-.39999-.10001h0c.10001-.10001.10001-.2,0-.3l-.7-2.3s-.2-.39999-.39999-1.3c.10001,0,.2.10001.3.10001s.3.3.39999.5.2.39999.39999.39999.3-.3.3-.39999c.10001-.39999,0-.89999-.3-1.2-.10001-.2-.3-.39999-.39999-.60001-.10001-.2-.2-.39999-.3-.60001-.10001-.2-.2-.3-.3-1-.10001-.39999-.10001-.89999-.3-1.3-.10001-.39999-.2-.89999-.39999-1.89999-.2-.8-.10001-1.7.2-2.5.2-.5.3-1,.3-1.5.10001-.8-.10001-1.5-.39999-2.2-.3-.8-.5-1.7-.5-2.5,0-1.60001,0-3.2.2-4.8,0-2.3-.10001-4.60001-.5-6.89999-.2-1.39999-1.10001-1.8-2.8-2.8-.3-.2-.7-.39999-1.10001-.60001h0c8.10001,1.2,16.3,1.8,24.5,1.7,4.2,0,8.3-.2,12.3-.39999-.10001.7-.3,1.39999-.60001,2-.3.8-.8,1.60001-1.3,2.2-.60001.89999-1.5,1.89999-2.39999,1.89999s-1.39999,0-3.3,1.39999c-2.39999,1.10001-2.3,1.8-2.10001,3.10001h.00005ZM179.39999,152.00003h0s0,.10001-.10001.2h0c-.10001.39999-.2.7-.3.89999-.3-.39999-.60001-.7-1-1.10001h-.10001c-.5-.5-.89999-1-1.3-1s-.5.2-.60001.39999c-.10001.3-.2.60001-.10001,1v.2h-.10001c-.3-.10001-.3-.2-.39999-.3-.2-.3-.5-.5-.8-.60001s-.5-.3-.7-.5v-1.2c.39999.89999.60001,1.3,1.2,1.3h.3c.39999-.10001.7-.39999.89999-.8.3-.39999.5-.7.89999-.7s.5,0,.7.2.3.2.5.39999c.39999.3.89999.5,1.3.60001l-.3,1h0l.00005.00003ZM174.5,152.10004c.2.10001.5.3.60001.5s.3.3.5.39999c.10001,0,.2.10001.3.10001s.2,0,.2-.10001c.10001-.10001.10001-.3.10001-.5,0-.3,0-.5.10001-.8.10001-.2.2-.2.2-.2.2,0,.7.39999,1,.7h.10001c.39999.5.8.89999,1.10001,1.39999l.2.3v-.2c.10001.39999.10001.7.10001,1,.10001.89999-.10001,1.8-.5,2.60001-.2.5-.39999.89999-.60001,1.3-.5,1.10001-.60001,1.39999-1.5,1.8-.39999.2-.7.39999-1.10001.60001-1.5-1.89999-1.60001-4.7-1.60001-6.2v-3.2c.39999.2.60001.3.8.5h0l-.00002-.00002ZM175.10001,164.90003c-.10001.2-.10001.39999-.2.5-.39999,1,.2,1.8,1,2.89999.3.39999.7.89999,1,1.5.5.8,1.2,2.2,1.8,3.39999.39999.8.8,1.60001,1.2,2.3-19.8-4.8-33.40001-14.39999-33.40001-25.5.10001-3.8,1.60001-7.5,4.2-10.3.2.2.39999.3.7.39999.8.5,1.5,1,2.2,1.5,1.2,1,2.60001,1.5,4.2,1.5h0c.7,0,1.5-.10001,2.2-.39999.10001-.10001.2-.10001.3-.10001.5,0,1.3.5,2.39999,1.39999,1,.89999,2.2,1.5,3.5,1.8.60001.2,1.2.5,1.7,1v8c0,4.60001,1.10001,6.10001,2.8,7.7,1.3,1.2,2.8,1.89999,4.39999,2.39999h0l.00003.00003ZM146.2,129.50003c.39999.39999.7.89999,1,1.39999.3.39999.5.89999.8,1.3-.5.3-1,.60001-1.5,1-.2-.3-.39999-.7-.7-.89999-.2-.2-.3-.39999-.5-.60001-.2-.3-.3-.60001-.3-.89999s-.2-.7-.3-1.10001c-.2-.3-.39999-.7-.5-1.10001-.10001-.39999-.3-.8-.5-1.1-.3-.6-.39999-1.2-.2-1.9,0,0,0-.3.10001-.5,0-.3.10001-.4.10001-.4.2,0,.3.2.5.3.2.2.5.4.8.5.5.2.5.3.39999,1v.9c0,1,.3,1.60001.8,2.10001h-.00002ZM208.89999,232.00003h0c-45.3,0-82-36.7-82-82s5.60001-34.7,16.10001-48.8h0c.10001.2.10001.4.2.5.10001.3.2.6.3.9.2.7.7,1.3,1.39999,1.6.3.2.5.4.8.6.2,0,.3.4.3.6-.2.3-.60001.5-1,.5s-.39999-.3-.60001-.9c-.10001-.4-.2-.7-.39999-1-.3-.4-.8-.7-1.3-.7s-1,.2-1.2.6c-.10001.5.2.7.60001,1,.3.2.60001.4.89999.7.3.2.5.5.5.9-.10001.6-.39999,1.1-.8,1.5-2.2,1.6-3.60001,4.2-3.7,6.9,0,.7-.10001,1.3-.10001,1.9v1.2c-.10001,1.6.39999,3.3,1.39999,4.5.2.2.3.3.39999.4.5.5.8,1.1.89999,1.8v1.2c-.10001.5,0,1.1.3,1.5.10001.2.3.4.5.6.2.2.3.3.3.8s-.10001.3-.2.39999c-.2.2-.3.39999,0,1.10001.2.5.3.7.39999.7.10001,0,.2-.10001.2-.10001.10001,0,.3.10001.39999.10001.5.3.5.39999.5.5,0,.2,0,.39999.10001.60001h0c-.10001.10001-.3.10001-.39999.2-.10001.2,0,.39999.10001.5.10001.3.39999.60001.7.8l.3.3c-6.60001,4.7-10.3,10.2-10.3,16,0,13.60001,20.39999,25.2,49,29.60001.3.2.60001.3,1,.5s.8.39999,1.10001.60001c1.7.89999,2.5,1.3,2.60001,2.5.39999,2.3.5,4.5.5,6.8-.2,1.60001-.2,3.2-.2,4.8s.2,1.8.5,2.60001c.3.7.39999,1.39999.3,2.10001,0,.5-.10001,1-.3,1.5-.3.89999-.39999,1.8-.2,2.7.2,1,.3,1.5.39999,1.89999s.2.8.3,1.3c.10001.8.2.89999.3,1.2.10001.2.2.39999.3.60001.10001.2.3.39999.39999.60001.2.3.3.39999.3.7-.10001-.3-.3-.60001-.7-.60001s-.3-.2-.39999-.3-.10001-.10001-.2-.10001h.3-.10001c0,.10001,0,.39999.10001.7h0c.3,1.2.5,1.60001.5,1.60001l.7,2.3h-.10001c-.10001,0-.2.10001-.2.2,0,.2.10001.2.5.3.2.10001.39999.10001.60001.10001h.2c0,.2-.10001.39999-.3.5-.10001.10001-.10001.2-.2.2l-.89999-1.2.8,1.7h0c0,.2.10001.3.2.5l.2.39999c.2.5.39999.89999.5,1.10001v.3h.10001c0,.2,0,.3.39999.7s.8.8,1.2,1.10001l1.10001.7h0c.10001.10001.10001.2.10001.3h0c0,.10001,0,.3.2.60001.10001.10001.10001.3.10001.5.10001.3.2.39999.8.7h.2c.2.3.5.39999.7.39999.8.39999,1.3.60001,1.7.8h0c0,.3.2.3.8.3h2.89999c.2,0,.3,0,.5-.10001.3-.10001.5-.2.60001-.39999,0-.2-.2-.39999-.39999-.5-.3-.2-.7-.39999-1-.60001-.10001-.10001-.3-.2-.39999-.3-.2-.2-.39999-.39999-.7-.5-.2-.10001-.39999-.3-.5-.5s-.3-.5-.60001-.5h0c-.10001,0-.2,0-.3.10001-.2.10001-.3.2-.39999.3,0,0-.10001,0-.10001-.10001l-.7-.3s-.10001,0-.2-.10001q0-.10001.3-.2c.10001-.10001.2-.10001.3-.10001h.3c.10001,0,.10001.10001.2.10001h.3c.10001-.2.10001-.3-.10001-.8-.10001-.3-.2-.5-.3-.8v-.3c0-.2,0-.39999.2-.5.10001-.10001.2-.2.3-.39999h.2c.10001-.3.10001-.60001.10001-.8,0-.39999.10001-.7.2-1v-.60001c-.10001-.3-.2-.5-.5-.60001l-.60001-.60001c-.10001-.2-.3-.39999-.39999-.5-.2-.10001-.2-.3-.2-.5s-.10001-.3-.2-.39999h.10001c.39999-.60001.60001-.60001.7-.7.2-.10001.2-.2.3-.60001,0-.2.10001-.39999.2-.60001.10001-.3.2-.60001.2-.89999,0-.7,0-.8-.3-1.10001l-.3-.3c-.10001-.2-.3-.3-.5-.3h0c.39999-.7.60001-.8.89999-.89999h.10001c.60001-.2.7-.39999.7-.89999v-.2c0-.2,0-.39999.10001-.60001.2-.10001.3-.2.5-.10001.3,0,.5.10001.7.3s.39999.3.7.3h0c.39999-.10001.8-.3,1.10001-.60001s.60001-.5,1-.8c.5-.3.5-.39999.39999-1.3v-.8c0-.3,0-.39999-.3-.89999-.10001-.2-.3-.39999-.5-.39999,0,0,0-.10001.10001-.10001.10001-.39999.5-.39999,1.10001-.39999s.89999,0,1.39999-.10001c1-.3,1.89999-1,2.5-2,.10001-.10001.10001-.2.2-.2.39999-.5.8-1,1.2-1.60001.3-.39999.5-.89999.7-1.39999.10001-.2,0-.39999-.10001-.60001-.10001-.10001-.10001-.2.3-.5s.5-.39999.60001-.39999c.2,0,.2-.10001.3-.5,0-.2.10001-.2.10001-.2.2-.10001.2-.2.10001-1.10001v-.2c-.2-1.2-.2-1.7,1.39999-3,1.8-1.3,2.2-1.3,3.10001-1.3,1.3,0,2.39999-1.60001,2.7-2.10001.60001-.7,1-1.5,1.39999-2.3.39999-.7.60001-1.39999.7-2.2,1.10001-.10001,2.3-.2,3.39999-.3l-2.10001-2.8c-.5.10001-1,.10001-1.5.10001,0-.60001.10001-1.2.39999-1.8.5-.8,1.10001-1.60001,1.7-2.3.2-.2.3-.39999.5-.60001.10001.10001.2.3.39999.39999,18.7,23.3,36.8,17.89999,36.8,17.89999-23.39999-6.5-33.5-23.2-37.60001-30.3-2.7-4.39999-6-8.5-9.8-12.2,4.60001-2.2,4.60001-3.89999,4.60001-6.5,0-8.3-11.3-7.2-11.3-7.2v1s6-1,6,6.2-6,7.2-6,7.2v.60001c3.7,1.3,7.10001,7.10001,10.60001,13-.39999-.10001-.7-.10001-.89999-.2-.60001-.10001-1.3-.3-1.8-.7-.5-.3-1.10001-.5-1.7-.60001s-1.2-.3-1.60001-.8c-.39999-.39999-.89999-.7-1.39999-1-.60001-.39999-.89999-.60001-1.10001-1.2-.10001-.3-.10001-.5-.2-.8-.10001-.7-.39999-1.3-.89999-1.7-.7-.60001-1.5-1.10001-2.3-1.5v-19.60001h-8.10001v1.39999c1.5.10001,3,.2,3,2.89999v13.10001l-.2-.3c-.5-.39999-.89999-.89999-1.3-1.5-.2-.3-.8-.60001-1.8-1-1.60001-.7-3.2-1.10001-4.89999-1.2-.5,0-.89999,0-1.39999.10001-.10001,0-.2,0-.3.10001-.10001,0-.2-.10001-.60001-.60001-.39999-.39999-.3-.60001-.2-.60001.10001-.10001.10001-.2,0-.3s-.10001-.10001-.7-.2v-7.39999c.39999-.10001.8-.2,1.2-.39999.3-.10001.5-.3.5-.39999v-.2h0c-.10001-.39999-.60001-.60001-1.39999-.8h-.10001c.3-1.3,1.2-1.60001,2.89999-1.89999v-1.10001h-9v1.10001c1.89999.10001,3,.60001,3.60001,1.39999-.7.10001-1.39999.3-2,.60001-.39999.10001-.60001.3-.7.39999,0,.10001,0,.2.10001.2.10001.10001.2.2.10001.60001,0,.2-.2.3-.39999.39999-.3,0-.60001-.2-.8-.3h-.2c0-.10001-.10001,0-.10001,0-.10001.10001-.10001.2-.10001.39999,0,.5.60001.7,1.89999.7h.3c.8,0,1.60001-.2,2.3-.5,0,0,.10001,0,.2-.10001v6.89999c-.10001,0-.2.10001-.3.2-.5.2-.89999.5-1.2.89999,0-.10001-.10001-.10001-.10001-.2-.10001-.3-.10001-.7,0-1,.10001-.2.10001-.3,0-.39999,0,0-.10001-.10001-.2-.10001h0c-.2,0-.39999.10001-.60001.2-.7.39999-1.39999.89999-2,1.39999-1.39999.2-2.60001.89999-3.39999,2-.5-.10001-.89999-.2-1.3-.5-.2-.2-.39999-.3-.5-.39999-.3-.3-.39999-.3-.89999-.3s-.89999.5-1.2.89999c-.2.3-.39999.60001-.7.60001h-.2c-.3,0-.39999-.2-.89999-1.10001-.10001-.2-.2-.39999-.3-.60001v-8.3c0-3.7,1.3-3.8,4-3.89999v-.3c.2.10001.39999.2.5.3.3.10001.5.3.7.5.39999.39999.89999.7,1.5.89999.5.2,1.10001.39999,1.7.60001h0c.2,0,.39999-.10001.60001-.10001.3-.10001.60001-.2.7-.5v-.3h0c-.10001-.3-.3-.5-.7-.60001-.3-.10001-.5-.2-.8-.2-.5,0-.89999-.2-1.3-.5-.3-.2-.60001-.39999-.89999-.60001-.39999-.39999-.89999-.60001-1.5-.7-.89999-.2-1.8-.3-2.8-.3-.8.10001-1.60001.39999-2.2.89999h-8.89999v1.10001c.89999,0,1.8.2,2.60001.8-.3.2-.60001.5-.8.89999-.39999.89999-1.3,1.5-2.3,1.5s-1.10001.10001-1.60001.10001-1.2-.10001-1.8-.2c-.8-.2-1.10001-1.8-1.39999-3.2v-.5c-.3-1,0-2,.7-2.8.10001-.2.3-.39999.39999-.60001.2-.3.39999-.60001.5-1,2.39999-1.3,4.8-2.5,7.3-3.5.3,0,.5,0,.8.2h.3c.39999,0,.8-.2.8-.6h0v-.3c.89999-.3,1.8-.6,2.7-.9.5,0,1,0,1.5.2.7,0,1.3.3,2,.4.10001.8.2,1.7.2,2.49999,0,1.7.89999,2.39999,1.7,2.39999s.5-.10001.7-.10001c.8-.3.60001-1,.5-1.8-.10001-.5-.2-.89999-.2-1.39999-.10001-1.1-.10001-2.3.10001-3.4.10001-.3.2-.6.39999-.9,9.8-2.4,19.8-3.5,29.89999-3.5,16.39999,0,31.39999,2.9,42.5,7.6-.7.2-.89999.3-1.89999,1.6-1.10001,1.39999-2.10001,2.8-3,4.39999-.10001.2-.3.39999-.39999.7v-.89999h-.8c-.2.7-.89999,1.3-1.60001,1.3-1.2,0-1.2-1.2-4.5-1.2-7.7,0-9,5.8-9,8.39999s0,5,7,8.5l2.7,1.39999c2.7,1.3,4.60001,1.8,4.60001,4.7.10001,2.60001-2,4.8-4.60001,4.8h-.5c-6,0-11.60001-5.89999-12.7-9.2h-.89999l4.39999,10.60001h1.2c.2-.7.39999-1.5,1.2-1.5,1.3,0,2.7,1.5,6.60001,1.5,7.5,0,10.10001-4.5,10.10001-8.3.10001-3.10001-1.7-6-4.5-7.39999l-6-3.10001c-3.39999-1.8-4.2-2.7-4.2-5v-.3c.2-2.2,2.10001-3.89999,4.39999-3.7,3.60001,0,5.8,2.8,6.89999,5.5-.3,1.10001-.39999,2.2-.39999,3.2h0c.7,2,1.60001,3.8,2.8,5.39999.5.60001,1,1.10001,1.60001,1.39999.89999.5,1.60001,1.2,2.2,2h.10001c.7,1.5,1.3,2.60001,3.10001,2.60001s1-.10001,1.39999-.3c.5-.2,1-.3,1.60001-.3h.29999c.60001,0,1.29999.10001,1.89999.3s1.20001.3,1.79999.3h.10001c.39999,0,.89999-.10001,1.29999-.3.5-.2.89999-.5,1.29999-.89999.60001-.60001,1.39999-.89999,2.20001-.89999h.20001c.79999,0,1.5.5,1.89999,1.2.20001.39999.60001.8,1,1.10001-3.89999,8.2-15.39999,15.10001-30.89999,19l2.8,3.10001c14.09999-3,25.7-7.8,32.99998-13.7.20001.2.39999.3.60001.5,1.10001.8,2.20001,1.7,2.20001,2.7s.29999,2.60001.79999,3.8c.10001.39999.29999.8.60001,1.10001.39999.7.70001,1.10001.20001,1.8-1.70001,1.8-2.39999,4.39999-1.89999,6.89999.29999,2.3,1,3,1.39999,3.5.39999.3.60001.8.60001,1.3,0,.8.10001,1.8.20001,2.60001v1.2c.10001,0,.39999-.60001.39999-.60001,2-3.60001,3.70001-7.39999,5.10001-11.2,0,0,0-.10001.10001-.2h0c6.10001-17,6.5-35.5,1.20001-52.7l-.29999-.9v1c-.20001.7-.39999,1.2-.60001,1.2h-.39999c-1-.3-1.89999-.7-2.79999-1.3-.29999-.2-.70001-.4-.89999-.6-.39999-.4-.89999-.5-1.39999-.5h-1.10001c-1.20001,0-2.70001-.2-3.29999-.8h-.10001c-.29999-.4-.39999-.8-.39999-1.2s.10001-.4.10001-.7c.10001-.4.20001-.8.29999-1.2.20001-.5.29999-1,.10001-1.4-.20001-.3-.60001-.4-1.20001-.4h-3.89999c-.70001,0-1.39999,0-2.10001.3-.70001.2-1.29999.4-1.79999.6-.79999.2-1.60001.5-2.29999.8-.39999.2-.70001.3-.89999.4-.39999.2-.79999.3-1.20001.3h-.70001c-.5,0-.89999-.2-1.29999-.4-.29999,0-.5-.2-.79999-.2h0c-.39999,0-.79999.2-1.10001.5-.39999.4-.79999.7-1.20001,1.2s-.89999.9-1.5,1.2c-.29999.2-.60001.3-.89999.4-.5.2-.60001.3-1,1.2v.2c-12.60001-3.9-28-6.3-44.8-6.3s-15.5.5-23.2,1.6c.2-.4.10001-.9-.10001-1.3-.10001,0-.10001-.3-.10001-.4-.2-.5-.2-1,0-1.4v-.2h.2c.3.2.5.3.8.4h.39999c.10001,0,.3,0,.3-.2h0s0-.3.5-.6c.39999-.3.8-.7,1.10001-1.1.39999-.4.8-.8,1.2-1.2.89999-.7,1.89999-1.4,3-1.9.5-.3,1-.7,1.39999-1.1.3-.4.8-.7,1.3-.8h.89999c.2,0,.3.2.5.2h1c.60001,0,1.3,0,1.89999-.2h2.10001c.3,0,.60001,0,.89999-.2,1-.4,1.89999-1.1,2.7-1.8.3-.2.3-.4.2-.5-.10001-.3-.7-.4-1.10001-.4h0c-.5,0-.89999,0-1.3.4-.2.2-.5.2-.7.2-.8,0-1.5-.3-2-.9-.2-.4.10001-.5.7-.9.2,0,.39999-.2.60001-.4.2-.2.3-.3.2-.5,0,0-.10001-.4-1.2-.4s-1.10001,0-1.60001.2c-.3,0-.7.2-1,.2h-.39999c.5-.5,1.2-.9,1.8-1.1s.60001-.3.89999-.4c.3-.2.60001-.2.89999-.2h.7c.39999,0,.89999.2,1.39999.2h3c.60001,0,1.10001-.2,1.39999-.6.2-.2.39999-.4.7-.6.2,0,.3-.2.5-.2s.2.3.2,1-.3.7-.89999,1.1c-.2,0-.5.3-.8.5-1,.7-1.2.9-1.39999,1.6,0,0,0,.2.10001.3.2.2.5.3,1.10001.3h2.5c.39999,0,.89999,0,1.3.2h.8c.2,0,.5-.2.60001-.4.2-.5-.3-1.3-.8-1.9-.2-.3-.5-.5-.8-.7s-.5-.3-.5-.5v-.4c0-.7-.10001-1.7.7-2,.3,0,.5-.3.60001-.5.10001-.4-.2-.7-.5-1.1-.2-.2-.3-.4-.5-.7-.39999-.5-1-.9-1.60001-1-.60001-.2-1.10001-.5-1.60001-.9-.3-.5-.2-.6-.10001-.8.2-.3.39999-.6.39999-1,.2-.6,0-1.3-.5-1.8-.10001,0-.2-.3-.3-.4-.10001-.2-.3-.4-.60001-.4s-.7.3-1.2.8-.39999.4-.60001.6c-.7.7-1.10001.8-1.5.8h-1s.10001,0,.2-.2c.3-.3.5-.6.7-.9.2-.4.2-.8-.10001-1.2-.7-1-1.8-1.6-3-1.7-.7,0-1.39999-.2-2.10001-.3h0c-.5,0-1,.3-1.2.7-.5.9-1.2,1.8-1.89999,2.6-.60001.7-.60001.9-.60001,1.4.10001.6,0,1.3-.3,1.8-.5,1.2-.89999,1.3-1.3,1.3h-.3c-.5,0-.89999,0-1.3.3-.60001.4-1,1-1,1.6-.10001.6-.3,1.1-.5,1.6-.2.4-.5.7-1,.8-.60001,0-1.10001-.4-1.5-.8-.5-.6.3-1.8.8-2.6.10001-.2.2-.3.3-.5s.10001-.4,0-.6c-.2-.3-.60001-.3-1.3-.3h-1.3c-.7,0-1.39999-.4-2-.8-.39999-.2-.7-.4-1.10001-.6-.8-.2-1.60001-.7-2-1.4-.39999-.5-.3-.5-.10001-.9.2-.3.3-.5.39999-.8.10001-.5.5-.8,1-1s.89999-.4,1.39999-.7c1.39999-.7,2.89999-1.2,4.39999-1.5,1.5-.7,2.89999-1.4,4.3-2.3.60001-.2.8-.4.89999-.6h.3c.5-.2,1-.3,1.60001-.4.60001,0,1.2,0,1.7-.2.39999,0,.7-.2.89999-.6.10001,0,.2-.2.3-.3.5-.3.5-.8.39999-1.3v-.5c0-.2,0-.3.39999-.3h1.39999c.89999,0,1.8,0,2.7.3,1.10001.3,1.39999.6,2.10001,1.9.10001.3.10001.4.10001.5-.10001,0-.39999.2-.7.3-.60001,0-1.10001.4-1.7.7-.3.2-.60001.4-.89999.4h-1.2c-.60001,0-1.10001.2-1.5.6-.2.3-.2.6-.10001.9s.3.5.5.5h0c.7-.2,1.39999-.3,2.10001-.3h1c.10001.2.2.3.39999.3.3,0,.60001.4.89999.6.10001,0,.2.2.39999.4.2.3.60001.5.89999.5h0c.5,0,1,0,1.60001-.3.8,0,.89999,0,.89999-.3s-.10001-.2-.2-.3c-.2,0-.3-.4-.3-.7.10001,0,.2.2.3.2.60001.3,1.3.4,2,.3,1,0,1-.5,1.10001-1,0,0,0-.2.10001-.4.10001-.4-.3-.7-.7-.9-.5-.2-.89999-.5-1.10001-1h0c.3,0,.5,0,.8.2.39999.2.89999.3,1.39999.4h0c.60001,0,1.3,0,1.89999-.3.2,0,.39999-.2.5-.4.10001-.3-.10001-.5-.39999-.8-.2-.2-.3-.4-.5-.7-.2-.4-.7-.7-1.2-.6h-1.39999c-.5,0-.60001-.2-.60001-.2,0,0,.10001-.2.2-.3.2-.3.39999-.6.39999-1,0-.6-.39999-.9-.89999-1.2-.39999-.2-.7-.5-1-.8-.7-.6-1.5-.9-2.39999-1-.60001,0-1.2-.2-1.8-.4-.7-.2-1-.3-1.3-.4-.5-.2-.89999-.2-1.39999-.2-1.5,0-3,.2-4.5.6h-.2c-.3,0-.5-.2-.7-.4h-.10001c-.2-.3-.39999-.6-.7-.6s-.2,0-.2,0c-.3.2-.5.2-.7.3-.2,0-.5.2-.89999.4-.60001.4-1.3.5-2,.4h-.10001c.10001-.2.10001-.5,0-.8-.10001-.4-.2-.5-.39999-.5s-.2,0-.2.2c-.10001.2-.39999.4-.60001.4h-1.5c-1.3,0-1.5.4-1.89999.9-.10001,0-.10001.2-.2.3-.2,0-.2.3-.2.6.10001.3.39999.3.89999.4h2.8c-.3.2-.60001.4-.89999.5-.60001.2-.60001.5-.5.9.10001.3.2.7.2,1.1,0,.7-.3.8-1,.9-.39999,0-.8.2-1.10001.4-.10001,0-.3,0-.39999.2,0-.2.10001-.5.2-.6.3-.4.60001-.9.7-1.4.10001,0,0-.3,0-.4s-.10001,0-.2,0c-.2,0-.60001.3-1.89999,1.8-.10001,0-.3.4-.39999.5-.10001,0-.3-.2-.60001-.2h-.60001c-.39999.2-.89999.2-1.3.3h-1.60001c-.8,0-.89999-.2-1-.2,0,0,0-.2.10001-.3.10001-.2.2-.5.2-.7,0-.3.2-.4.3-.4h4.2c.60001,0,.89999,0,.89999-.4s-1.10001-.8-1.5-.9-.8-.3-.7-.5c.10001-.3.10001-.6,0-.9v-.3c.10001,0,.39999-.2.7-.2.5,0,1-.2,1.5-.5.2-.2.39999-.3.3-.5,0,0-.10001-.2-.3-.2-.3,0-.60001,0-.89999.2-.5,0-1,.2-1.60001.3-.60001,0-1.2.2-1.8,0-1.60001,0-3.10001,0-4.7.3h-1.3c0-.2-.2-.2-.39999-.2h-.10001c.39999-.2.8-.5,1.2-.7l.60001-.3c.3-.2.60001-.4.60001-.6-.10001-.2-.39999-.4-1.60001-.4h-1.60001c-1.2,0-2.39999.3-3.5.8-1.10001.4-1.2.6-1.39999,1.1-.10001.3-.3.6-.5.8-.2.3-.3.5-.2.7.10001,0,.2.2.3.2.3,0,.60001,0,.89999-.3.39999-.2.8-.3,1.2-.4.8-.2,1.7-.4,2.60001-.5h.3c-.2.2-.2.4-.10001.6.2.4.10001.4,0,.6-.2.3-.3.5-.39999.8-.2.6-.10001.8.3,1,.2,0,.39999.2.60001.4.5.6.8.6,1.60001.6h2.7-.3c-.39999,0-.7.2-1,.4-.3,0-.60001.2-.89999.2h-1.3c-.60001,0-1.3,0-2.2-.2-1.7,0-2.10001-.4-2.5-.7-.3-.3-.60001-.5-1-.6-.89999-.3-1.8-.5-2.7-.6-.7,0-1.39999-.3-2.2-.4-.39999,0-.8-.2-1.3-.2s-1.10001,0-1.60001.3c36.8-26.4,88-18,114.40001,18.8,26.40002,36.8,18,88-18.79999,114.39999-14.89999,10.10001-31.60001,15.5-48.7,15.5h0v1l-.00005.00012ZM189.39999,140.10004c0-.3,0-.7.10001-1h.10001c.39999.10001.8.2,1.10001.39999-.10001.10001-.2.10001-.3.2-.3.2-.60001.3-1,.39999h0l-.00002.00002ZM184.89999,139.30003c.10001,0,.2-.10001.3-.10001.7-.3,1.39999-.5,2.10001-.60001.2.5.39999,1.10001.39999,1.7-.10001,0-.2.10001-.3.10001-.8.3-1.60001.5-2.5.39999h-.7c.39999,0,.7-.3.7-.60001.2-.3.2-.60001,0-.89999h0v.00002ZM183.89999,140.80003c-.2,0-.3-.10001-.5-.2.2,0,.3,0,.5.2ZM174.10001,135.80003c.5-.2,1.10001-.39999,1.60001-.5.89999,0,1.8.10001,2.60001.3.5.10001,1,.3,1.39999.7.3.2.60001.5.89999.7.39999.3,1,.5,1.5.5s.5,0,.7.10001c.2,0,.3.10001.5.3h0c-.10001.2-.3.3-.5.39999h0c-.10001.10001-.3.10001-.5.10001-.5-.10001-1.10001-.3-1.60001-.5s-1-.39999-1.39999-.8c-.2-.2-.5-.39999-.8-.60001-.2-.10001-.5-.3-.7-.3v-.3h-3.7v-.09999ZM275.79999,123.50003h.10001c.70001.7,2.20001.8,3.5,1h1.10001c.5,0,.89999.2,1.20001.5s.60001.5,1,.7c.89999.6,1.79999,1,2.89999,1.4h.5c.39999,0,.60001-.4.79999-.8,5.10001,16.9,4.60001,34.99999-1.39999,51.6h0c0,.10001,0,.2-.10001.3-1.39999,3.7-3,7.2-4.79999,10.60001-.10001-.8-.20001-1.7-.20001-2.5s-.20001-1.2-.70001-1.5c-.5-.5-1-1.10001-1.29999-3.3-.5-2.39999.20001-4.8,1.79999-6.60001.70001-.89999.29999-1.60001-.10001-2.3-.20001-.3-.39999-.7-.5-1.10001-.5-1.2-.79999-2.39999-.79999-3.7s-1.20001-2.2-2.29999-3c-.20001-.10001-.39999-.3-.5-.39999,5.20001-4.3,8.10001-9.2,8.10001-14.3h0c0-10.3-11.60001-19.39999-29.60001-25.1l.10001-.2c.3-.7.39999-.8.8-.9.3,0,.59999-.3.90001-.4.60001-.3,1.10001-.8,1.60001-1.3.29999-.4.70001-.8,1.10001-1.1.20001-.2.60001-.4.89999-.4s.5,0,.70001.2c.5.2.89999.3,1.39999.4h.79999c.5,0,1,0,1.39999-.4.20001,0,.5-.3.89999-.4.79999-.3,1.5-.6,2.29999-.8.5-.2,1.10001-.3,1.79999-.6.60001-.2,1.20001-.3,1.89999-.3h4c.5,0,.79999,0,.89999.2s0,.6-.10001,1-.20001.8-.29999,1.3c0,.3-.10001.6-.10001.7-.29999.6-.20001.6.29999,1.2v.3l.00003.00002ZM272.10001,150.10004c0,2-.5,4-1.29999,5.89999-.39999-.2-.60001-.5-.79999-.89999-.39999-.89999-1.29999-1.39999-2.20001-1.39999h-.20001c-.89999,0-1.79999.3-2.5,1-.39999.3-.79999.60001-1.20001.8-.39999.2-.79999.3-1.20001.3-.60001,0-1.10001-.10001-1.70001-.3-.70001-.2-1.29999-.3-2-.3h-.29999c-.60001,0-1.20001.10001-1.70001.39999-.39999.2-.79999.3-1.3.2-1.5,0-2-.89999-2.7-2.3h-.10001c-.60001-1-1.39999-1.7-2.3-2.3s-1.10001-.8-1.5-1.3c-1.2-1.60001-2.10001-3.3-2.8-5.2,0-.89999.10001-1.7.3-2.60001.2.60001.39999,1.2.60001,1.8h.60001l-.5-3.8c.2-1,.2-1.3.10001-1.5-.10001-.10001-.2-.2-.3-.2l-.3-2.2c.2-.39999.39999-.7.60001-1.10001.89999-1.5,1.89999-3,3-4.3s1.10001-1.3,1.8-1.5c.10001,0,.2-.10001.3-.10001,12.00002,5.2,19.59999,12.60001,19.59999,20.89999h0l.00003.00003Z" fill="#606d7a" stroke-width="0"/><path d="M282.79999,114.80003c-.10001-.2-.20001-.3-.20001-.5h0l-.60001-.4c-.29999-.2-.60001-.4-1.5-.8-.29999,0-.60001-.2-.89999-.3-.70001,0-1.20001-.5-1.60001-1.1-.20001-.3-.29999-.5-.5-.7-.5-.6-.60001-.8-.20001-1.2h.29999c.29999,0,.70001.4,1.20001.9.20001.2.29999.3.5.5l2,1-.29999-.5c-2.60001-4.9-5.79999-9.6-9.29999-13.9l-.5-.5v.7c.20001.4.29999.7.5,1s.29999.6.39999.9c0,0,.10001.2,0,.4h-.29999c-.39999,0-.70001,0-1.10001.3-1,.2-2,.7-2.79999,1.2-.39999.3-.70001.6-1.10001.9-.29999.3-.60001.6-1,.7h-.10001c.10001-.2.20001-.4.29999-.6s.20001-.4.20001-.5c.10001-.2.10001-.3,0-.5-.20001-.4-.60001-.5-1.20001-.7h-.29999c-.39999-.2-.39999-.3-.39999-.4,0-.3-.10001-.5-.29999-.7-.5-.4-.89999-.8-1.29999-1.3-.29999-.5-.10001-.9.29999-1.5.5-.6,0-.9-.29999-1.2-.10001,0-.20001-.2-.29999-.3-.10001-.2-.29999-.3-.60001-.3h-.10001c-.70001.2-1.39999.4-2,.7-.79999.3-.89999.4-1,.6,0,0,0,.3.10001.3s.20001.3.10001.5c-.20001.6,0,.8.29999,1,.20001,0,.39999.3.5.6h-1.39999c-.20001,0-.39999-.2-.60001-.2-.60001,0-1.20001.2-1.70001.5-.5.2-.7.4-.60001.7v.2c-.10001.2-.10001.5,0,.7s.10001.4.10001.6c0,.3-.10001.5-.2.7s-.2.4-.2.6v.4c0,.2.10001.4.3.4h.3c.60001-.3,1.20001-.5,1.79999-.6,1,0,1.10001-.2,1.39999-.7.10001,0,.10001-.2.20001-.4.29999-.4.29999-.9.20001-1.3-.10001-.2-.10001-.5-.10001-.7,0-.3.20001-.5.5-.6l.70001-.2c.10001.3.29999.5.60001.7h.20001c-.10001.2,0,.3,0,.5s.10001.2.10001.2h-.20001c-.39999.2-.70001.4-1,.6-.29999.3-.5.5-.5.6,0,0,.10001.2.20001.2,0,0,.10001,0,0,.4-.10001.5-.20001,1.1-.10001,1.7,0,.3,0,.7.29999.7s.29999,0,.5-.3c.29999-.3.60001-.5.89999-.6.5-.2,1-.3,1.60001-.3s.89999,0,1.29999.2c-.20001,0-.5.3-.70001.4s-.5.3-.70001.4c-.39999.2-.79999.4-1.20001.4l-1.20001.3c-.5.2-.70001.4-.70001.6,0,.3.29999.6.70001.9h.10001c.20001.2.5.4.79999.5s.70001.3,1,.4c.60001.4.60001.6.5,1.2-.10001.3-.10001.6-.10001.8,0,.6-.29999,1.1-.79999,1.3h-5.79999c-.3,0-1,.2-1,1.3s.10001.5.2.7c.10001.3.3.5,0,1.2-.10001.3-.3.6-.39999.8-.2.2-.3.5-.3.8v.3s0,.3.10001.4c.2.9.8,1.6,1.60001,1.8h0c.20001,0,.29999,0,.39999.2.29999.2.5.4.79999.5.29999.2.60001.2.89999.3.29999,0,.5,0,.79999-.2.10001,0,.29999,0,.5-.2h1.10001c.5,0,1-.3,1.39999-.6.39999-.3.89999-.5,1.39999-.5s.79999-.2.79999-1.3c.10001-.7-.10001-1-.29999-1.2.10001,0,.20001-.2.39999-.4.29999-.3.70001-.6,1.20001-.8.39999,0,.79999-.4,1-.8.20001-.3.29999-.5.5-.8.10001-.3.29999-.6.60001-.8.20001,0,.29999-.3.5-.4s.39999,0,.60001,0h.5c1,0,1.89999-.2,2.79999-.6.29999-.2.60001-.3,1-.4.20001,0,.29999,0,.70001.4.10001,0,.20001.2.39999.3.29999.2.5.4.70001.7.29999.5.89999.9,1.39999,1.1.89999.4,1.29999.6,1.70001.7.29999,0,.60001.3,1.10001.5.10001,0,.29999,0,.39999.2.89999.4,1.10001.5,1,1.1v.6c0,.3,0,.5-.10001.6-.20001,0-.5.2-.79999.2-1.5,0-2.10001,0-2.20001.4-.10001.2.20001.4.39999.6.20001,0,.39999.3.60001.5s.39999.3.70001.4h0c.29999,0,.5,0,.70001-.3.20001,0,.39999-.3.60001-.4.70001-.4,1.29999-.7,1.29999-1.5s0-.5-.10001-.8c-.10001-.5,0-.5.10001-.5h.29999c.10001,0,.20001-.2.29999-.2h.20001v-.3c.20001.3.20001.2.10001,0v.20004ZM259.39999,100.10003c0,.3,0,.6.10001.8.10001.3.10001.7-.10001,1-.10001,0-.20001.3-.20001.4-.20001.3-.60001.4-1.20001.5-.60001,0-1.29999.3-1.89999.6h0v-.4s.10001-.3.20001-.4c.20001-.3.29999-.6.29999-.9s0-.5-.10001-.8c-.10001,0-.10001-.3,0-.4s.10001-.3,0-.5c.10001,0,.29999-.2.5-.3.5-.3,1-.5,1.5-.5s.29999,0,.39999,0h1c-.29999.3-.39999.6-.39999.8h0l-.09998.10001ZM282.5,115.20003h-.29999c-.5.2-.39999.7-.39999,1.1s.10001.5.10001.7c0,.5-.29999.7-1.10001,1.1-.20001,0-.39999.2-.70001.4-.20001,0-.29999.2-.5.2s-.20001,0-.39999-.3c-.20001-.2-.39999-.4-.70001-.6-.10001,0-.20001,0-.20001-.2h1.79999c.60001,0,.79999,0,1.10001-.3.20001-.2.29999-.5.20001-.8v-.6c.20001-.9-.39999-1.2-1.20001-1.5-.10001,0-.20001,0-.39999-.2-.5-.2-.79999-.3-1.10001-.5-.39999-.2-.79999-.3-1.70001-.7-.89999-.4-1.10001-.7-1.29999-1-.20001-.3-.5-.6-.79999-.8-.20001,0-.29999-.2-.39999-.3-.29999-.2-.60001-.4-1-.4h0c-.39999,0-.79999.2-1.20001.4-.79999.4-1.70001.6-2.60001.6h-.5c-.5,0-.79999,0-.89999.2-.10001,0-.20001.3-.39999.3-.39999.2-.60001.5-.79999.9-.10001.3-.29999.5-.39999.8-.20001.3-.5.5-.79999.7-.5.2-.89999.5-1.29999.8-.5.5-.60001.5-.60001.7s.10001.2.20001.2.29999.2.20001.9c0,.5-.20001.8-.5.9-.5,0-1.10001.3-1.5.6-.29999.3-.70001.4-1.20001.5h-1.10001c-.20001,0-.39999,0-.5.2-.20001,0-.39999.2-.60001.2-.29999,0-.5,0-.70001-.2-.29999,0-.5-.3-.79999-.5-.20001-.2-.39999-.3-.60001-.3-.70001-.2-1.2-.8-1.3-1.5,0,0-.10001-.3-.10001-.4v-.2c0-.2.10001-.4.3-.6.20001-.3.29999-.6.5-.9.29999-.5.29999-1,0-1.5-.10001-.2-.10001-.3-.20001-.5,0-.9.39999-.9.60001-.9h5.89999c.60001-.3,1.10001-1,1.10001-1.7s0-.5.10001-.8c.20001-.6-.10001-1.3-.70001-1.6-.29999-.2-.70001-.3-1-.5-.29999,0-.5-.2-.70001-.4h-.10001c-.20001-.2-.60001-.4-.60001-.5l.5-.3c.39999,0,.70001-.2,1.10001-.3.5,0,.89999-.2,1.29999-.5.20001,0,.5-.3.70001-.4.70001-.3,1-.5,1-.8s-.10001-.2-.29999-.3c-.5-.2-1-.2-1.5-.2s-1.20001,0-1.70001.3c-.39999,0-.70001.4-1,.7h-.10001v-.2c-.10001-.5,0-1,.10001-1.6.10001-.2.10001-.5-.10001-.7.10001,0,.20001,0,.29999-.2.29999-.2.60001-.4.89999-.6.20001,0,.39999-.2.39999-.3,0-.2,0-.4-.10001-.5h.10001c0-.2-.20001-.4-.5-.7-.20001,0-.29999-.3-.39999-.5h.10001-.10001c0-.2-.10001-.4-.29999-.3h-.5v-.2c-.20001-.3-.5-.5-.70001-.7-.20001,0-.20001-.2-.10001-.6.10001-.3,0-.6-.20001-.9h0c.20001,0,.5-.2.70001-.3.60001-.3,1.29999-.5,1.89999-.7.10001,0,.20001,0,.20001.2.10001,0,.29999.3.39999.4.39999.3.5.4.20001.7-.39999.6-.79999,1.2-.29999,2,.39999.5.89999.9,1.39999,1.3.10001,0,.20001.2.20001.4,0,.3.10001.5.60001.7h.29999c.5.3.89999.4,1,.6v.2c-.10001,0-.10001.3-.20001.5-.29999.5-.39999.8-.29999,1h.70001c.39999-.2.79999-.5,1.10001-.8.29999-.3.60001-.6,1-.9.79999-.6,1.70001-1,2.70001-1.2.29999,0,.70001-.2,1-.3.20001,0,.39999,0,.5-.2s.10001-.5,0-.7-.10001-.4-.20001-.6c3,3.8,5.70001,7.9,8.10001,12.2l-.89999-.4c-.20001-.2-.29999-.3-.5-.4-.60001-.6-1-1-1.5-1s-.39999,0-.60001.3c-.60001.6-.29999,1.1.20001,1.7.10001.2.29999.4.39999.7.39999.7,1,1.2,1.79999,1.3.20001,0,.5.2.79999.3.79999.4,1.10001.6,1.39999.7l.5.3c.10001,0,.10001.3.20001.4v.2h0l.10001.00002Z" fill="#606d7a" stroke-width="0"/><path d="M180.7,139.70003h0c-1.60001.10001-1.7.39999-1.7.5,0,.3.3.39999.39999.5.39999.2.8.39999,1.2.5h.2c.3-.10001.60001-.3.8-.60001v-.3h0c-.3-.3-.60001-.5-.89999-.60001h0v.00002ZM181.10001,140.60004c0,.10001-.10001.10001-.10001.2-.10001.10001-.2.10001-.3.2h-.10001c-.39999-.10001-.7-.3-1.10001-.5h-.10001c.39999-.10001.8-.2,1.2-.2s.39999.2.5.3h.00003Z" fill="#606d7a" stroke-width="0"/><path d="M233.60001,71.90003h0c-1.39999,0-2.7.4-4,.7-1.39999.5-2.89999.9-4.5,1.1-.5,0-1,0-1.5.3-.3,0-.7.2-1,.3h-.60001c-.2-.2-.3-.3-.5-.4h.7c1.10001,0,1.60001-.3,1.60001-.6s-.3-.4-1.39999-.5c-.89999,0-1.8-.2-2.60001-.2h-9c-1.2,0-2.39999.3-3.5.5-.5,0-1,.2-1.5.2-1.39999,0-3.2.4-3.5.5-.8-.2-1.5-.3-2.3-.4-.39999,0-.7,0-1,.3s-.5.4-.8.5c-.60001.3-1.10001.6-1,1,0,.3.39999.4.5.5.5.2,1,.4,1.5.4s.89999,0,1.3-.3c.39999,0,.7-.3,1.10001-.5s.8-.3,1.2-.3h2.60001c-.10001.2-.3.3-.5.4-1.10001,1-2.39999,1.7-3.8,2.1-.39999,0-.89999.3-1.3.4-.3,0-.60001.2-.89999.2h-.60001c-.5,0-1-.2-1.39999-.4-.2,0-.5-.2-.8-.2h-.3c-.10001.2,0,.4.10001.6s.2.5.2.7c.10001.6.3.7,1.5.7h4.8c.5,0,.89999-.2,1.39999-.4.39999,0,.8-.3,1.10001-.5.60001-.3,1.10001-.6,1.7-.8,1.3-.7,2.7-1.2,4.10001-1.5.60001,0,1-.3,1.5-.5.89999-.3,1.8-.6,2.7-.7,1-.3,2-.6,3-.8.39999,0,.7,0,1,.2.5.2,1,.5,1.39999.8,0,0-.10001,0-1.10001.2h-3.60001c-.8,0-1.7,0-1.89999.8-.10001.4-.60001.7-.89999.9-.3.2-.5.4-.5.6.10001.3.3.4,2.7.4h4.8c.7,0,1.5.2,2,.7.3.4.60001.7.89999,1,.3.3.3.6.10001,1-.39999.9-.2,1.1.2,1.6.10001,0,.3.3.39999.5.2.3.5.5.8.7.2,0,.60001.4.5.5l-.60001.3c-.39999,0-.89999.2-1.3.2-1.10001,0-1.8.2-1.8,2.3,0,3.1.5,5.2,3.2,6,.5,0,.89999.3,1.2.4s.60001.2.89999.2h.39999c.39999,0,.60001-.4,1.2-1.1h0c.39999-.5.7-1,.89999-1.6.39999-.9.7-1.7,2.89999-2.3,2-.4,4-1,5.89999-1.9.39999-.2.89999-.5,1.3-.8.7-.5,1.10001-.8,3.3-1h2c1.10001,0,1.2,0,2.2-1h.10001c.3-.4.60001-.7,1-.9.2,0,.3-.2,1.10001-1.3.5-.8,1.3-1.3,2.10001-1.7l.3-.2-.3-.2c-5.3-3.5-11.10001-6.1-17.10001-8v.3l.00005.00002ZM248.39999,81.50003h0c-.5.7-.8,1.1-.89999,1.2-.39999.2-.7.5-1,.9h-.10001c-.5.7-1.2,1-1.89999,1h-2.10001c-2.3.2-2.8.6-3.5,1.1-.39999.3-.8.5-1.2.8-1.89999.8-3.8,1.5-5.89999,1.8-2.39999.6-2.8,1.5-3.2,2.5s-.5,1-.8,1.4h-.10001c-.5.7-.8,1-1,1h-.3c-.3,0-.5,0-.8-.2s-.7-.2-1.2-.4c-2.39999-.8-2.89999-2.6-2.89999-5.6s.5-1.9,1.39999-1.9,1,0,1.5-.2.8-.4.8-.6c0-.3-.3-.6-.7-.9-.3-.2-.5-.4-.7-.6-.10001-.2-.3-.4-.39999-.5-.3-.4-.39999-.5-.10001-1.2.39999-.8.2-1-.2-1.4-.3-.3-.60001-.6-.8-.9-.5-.6-1.2-.9-1.89999-.9h-5.10001c-.8,0-1.5,0-2.2-.2h.2c.5-.2.8-.6,1.10001-1.1.10001-.4.5-.5,1.5-.5h3.7c.89999,0,1.3-.2,1.39999-.5.10001-.4-.60001-.7-1.60001-1.3-.39999-.2-.8-.3-1.2-.3-1.10001.2-2.10001.4-3.10001.8-.89999.2-1.8.4-2.7.8-.5.2-1,.3-1.5.4-1.5.4-2.89999.9-4.2,1.5-.60001.2-1.2.5-1.8.8-.3.2-.7.4-1.10001.5-.39999.2-.8.3-1.2.4h-4.8c-.89999,0-1,0-1.10001-.4,0-.3-.10001-.5-.2-.8,0,0-.10001,0-.10001-.2.2,0,.39999,0,.5.2.5.2,1,.3,1.5.4h.7c.3,0,.7,0,1-.2.39999-.2.8-.3,1.3-.4,1.39999-.4,2.8-1.2,3.89999-2.2.60001-.4.8-.6.7-.8-.10001-.3-.5-.3-1-.3h-2c-.5,0-1,0-1.39999.3-.3.2-.7.3-1.10001.4-.39999.2-.8.2-1.2.3-.5,0-1-.2-1.39999-.4-.2,0-.3-.2-.3-.2,0,0,.60001-.5.8-.6.3-.2.60001-.3.8-.5s.5-.2.7-.2c.8,0,1.60001.2,2.3.4h0s2-.3,3.5-.5c.5,0,1,0,1.5-.2,1.2-.2,2.3-.4,3.5-.5h9c.89999,0,1.7,0,2.60001.2h1c-.39999,0-.7.2-1.10001.2-.7,0-1,.2-1.10001.4-.10001.3.2.5.7.8h.2c.2.2.3.3.5.3.39999,0,.8,0,1.2-.3.5-.2.89999-.3,1.39999-.3,1.60001-.2,3.10001-.5,4.60001-1.1,1.3-.3,2.5-.5,3.8-.7,5.89999,1.9,11.5,4.4,16.8,7.5-.7.7-1.39999,1.3-1.89999,2h0v-.3l.00002-.00003Z" fill="#606d7a" stroke-width="0"/><path d="M185.3,77.90003c-.3,0-.60001,0-.89999.2-.3,0-.7.2-1,.2h-.10001c-.60001,0-1.3,0-1.89999-.3h-.10001c-.60001,0-2.8,0-3,.7v.3h0c.3.8.89999,1.2,1.60001,1.3h1c.89999-.4,1.8-.6,2.8-.8.39999,0,.8,0,1.2.2s.8.2,1.2.2c.60001,0,.8-.3.8-.6.10001-.3,0-.6-.2-.8-.3-.4-.8-.6-1.39999-.5h0l-.00002-.09998ZM186.60001,79.10003s0,.3-.39999.3-.8,0-1.10001-.2c-.39999,0-.8-.2-1.3-.2h0c-1,.2-2,.4-2.89999.8h-.8c-.5,0-1-.5-1.2-1h0c.8-.5,1.7-.6,2.60001-.5.60001.2,1.3.3,2,.3h.10001c.39999,0,.8,0,1.10001-.2h.7c.8,0,1.10001.2,1.2.3v.5h0l-.00002-.10002Z" fill="#606d7a" stroke-width="0"/><path d="M192.5,139.70003h0c-.5,0-1,.10001-1.39999.3h-.10001c-.10001.3-.2.5-.2.7.10001.2.2.3.39999.3h1.39999c.3-.5.5-.8.39999-1.10001,0-.2-.39999-.2-.5-.2h.00002ZM192.39999,140.70003h-1s-.10001,0-.10001-.10001,0-.10001.10001-.2c.39999-.2.8-.3,1.2-.3h.2c0,.10001,0,.2-.39999.60001Z" fill="#606d7a" stroke-width="0"/><path d="M194.39999,88.30003h-1c-.3,0-.60001.3-.89999.6-.10001,0-.3.3-.5.4-.3.2-.5.5-.60001.9v.4c0,.2.10001.3.2.5h.3c.3,0,.5,0,.7-.2s.3-.2.5-.3c.3-.2.7-.3,1.10001-.4h.60001c.3,0,.5,0,.7.2h.89999c.3,0,.39999-.2.39999-.3.10001-.5-1.5-1.5-2.39999-1.8ZM196.39999,90.10003h-.60001c-.3,0-.5-.2-.8-.3h-.7c-.5,0-.89999.2-1.3.4s-.39999.2-.5.3c-.10001,0-.3,0-.39999.2v-.2c-.10001,0-.10001-.3-.10001-.3,0-.2.2-.5.39999-.6s.3-.3.5-.4c.2-.2.39999-.4.60001-.5h.8c.8.3,1.60001.8,2.10001,1.5h0v-.1Z" fill="#606d7a" stroke-width="0"/><rect x="20" y="315.60004" width="11" height="58.10001" fill="#606d7a" stroke-width="0"/><path d="M86.8,349.00003c-1.1-1.79999-2.5-3.39999-4.2-4.60001-1.7-1.10001-3.4-2-5.3-2.70001-1.8-.70001-3.5-1.20001-5-1.60001l-10.1-2.70001c-1.2-.29999-2.4-.70001-3.6-1.20001-1.1-.39999-2.1-1.10001-2.9-1.89999s-1.2-2-1.2-3.10001c0-1.39999.5-2.70001,1.4-3.60001,1-1.10001,2.3-1.79999,3.7-2.29999,1.6-.5,3.2-.79999,4.9-.70001,1.7,0,3.4.39999,5,1.10001,1.5.60001,3,1.60001,4.1,2.89999,1.2,1.39999,2,3,2.4,4.79999l11.9-2c-.8-3.39999-2.4-6.5-4.6-9.20001-2.1-2.60001-4.8-4.5-7.9-5.79999-3.4-1.39999-7-2.10001-10.7-2.10001s-7.4.60001-10.9,1.89999c-3.1,1.20001-5.9,3.20001-7.9,5.79999-2,2.79999-3,6.20001-2.9,9.70001,0,2.39999.4,4.70001,1.4,6.89999.8,1.70001,2,3.20001,3.5,4.39999,1.3,1,2.7,1.89999,4.3,2.5,1.5.60001,2.8,1.10001,3.9,1.39999l15.1,4.39999c1,.29999,1.9.70001,2.8,1.20001.6.39999,1.2.79999,1.7,1.39999.4.5.7,1,.9,1.60001.2.5.3,1.10001.3,1.70001,0,1.5-.5,3-1.6,4.10001-1.2,1.20001-2.6,2-4.2,2.5s-3.4.79999-5.2.79999c-3.1,0-6.1-.89999-8.6-2.70001-2.6-1.79999-4.3-4.60001-5-7.70001l-11.5,1.70001c.5,3.70001,1.9,7.20001,4.2,10.20001,2.2,2.79999,5.2,5.10001,8.5,6.5,3.6,1.60001,7.6,2.39999,11.6,2.29999,2.9.10001,5.8-.29999,8.5-1.20001,2.7-.70001,5.2-1.79999,7.5-3.39999,2.2-1.5,4-3.5,5.3-5.79999,1.4-2.5,2.1-5.39999,2-8.20001,0-2.60001-.4-5.10001-1.6-7.29999h0l-.00003.00009Z" fill="#606d7a" stroke-width="0"/><path d="M137.39999,318.20004c-9.4-5.10001-20.7-5.10001-30.1,0-4.2,2.5-7.6,6.20001-9.7,10.60001-4.5,10.10001-4.5,21.60001,0,31.70001,2.1,4.39999,5.5,8.10001,9.7,10.60001,4.5,2.60001,9.7,3.89999,15,3.79999,5.2.20001,10.4-1.10001,15.1-3.79999,4.2-2.5,7.60001-6.20001,9.7-10.60001,4.5-10.10001,4.5-21.60001,0-31.70001-2.10001-4.39999-5.5-8.10001-9.7-10.60001ZM137,355.20004c-1.10001,2.89999-3,5.29999-5.5,7-2.7,1.70001-6,2.60001-9.2,2.39999-3.3.10001-6.5-.79999-9.2-2.5-2.5-1.70001-4.4-4.10001-5.5-6.89999-1.3-3.29999-1.9-6.89999-1.8-10.5,0-3.60001.5-7.20001,1.8-10.60001,1.1-2.89999,3-5.29999,5.5-7,2.7-1.70001,6-2.60001,9.2-2.39999,3.2-.10001,6.39999.79999,9.2,2.5,2.5,1.70001,4.39999,4.10001,5.5,6.89999,1.3,3.29999,1.89999,6.89999,1.8,10.5.10001,3.60001-.5,7.20001-1.8,10.60001Z" fill="#606d7a" stroke-width="0"/><path d="M209,346.70004c1.5-1.5,2.7-3.20001,3.60001-5.20001.89999-2.29999,1.3-4.79999,1.2-7.20001,0-3.60001-.8-7.20001-2.60001-10.29999-1.7-2.89999-4.10001-5.29999-7.10001-6.89999-3.10001-1.70001-6.60001-2.60001-10.2-2.5-3.8-.10001-7.5.79999-10.89999,2.39999-3,1.5-5.60001,3.79999-7.3,6.70001-1.8,3.10001-2.7,6.70001-2.60001,10.29999h11.3c0-1.60001.3-3.10001,1.10001-4.5s1.89999-2.60001,3.3-3.39999c1.5-.89999,3.2-1.29999,4.89999-1.29999s3.2.39999,4.60001,1.20001c1.3.79999,2.39999,1.89999,3.10001,3.29999.8,1.39999,1.10001,3.10001,1.10001,4.70001s-.39999,2.79999-1.10001,4c-1,1.79999-2.3,3.29999-3.89999,4.60001l-24.39999,21.60001v9.5h40.7v-10.20001h-23.7l13-11.39999c2.39999-2,4.3-3.79999,5.89999-5.39999h0l-.00002-.00003Z" fill="#606d7a" stroke-width="0"/><polygon points="221 325.90003 245.89999 325.90003 226.39999 373.70004 238.2 373.70004 257.70001 325.90003 257.70001 315.60004 221 315.60004 221 325.90003" fill="#606d7a" stroke-width="0"/><path d="M300.20001,317.00003c-7.10001-3.60001-15.5-3.60001-22.60001,0-3.20001,1.79999-5.79999,4.39999-7.60001,7.60001-1.89999,3.5-2.79999,7.39999-2.70001,11.29999v17.39999c0,3.89999.79999,7.79999,2.70001,11.29999,1.79999,3.20001,4.39999,5.79999,7.60001,7.60001,3.5,1.89999,7.39999,2.79999,11.29999,2.70001,4,.10001,7.89999-.79999,11.29999-2.70001,3.20001-1.79999,5.79999-4.39999,7.60001-7.60001,1.89999-3.5,2.79999-7.39999,2.70001-11.29999v-17.39999c0-3.89999-.79999-7.79999-2.70001-11.29999-1.79999-3.20001-4.39999-5.79999-7.60001-7.60001h.00003ZM299.20001,354.10004v.29999c0,5.70001-4.70001,10.20001-10.29999,10.10001h-.20001c-5.70001,0-10.20001-4.70001-10.10001-10.29999v-19.29999c0-5.70001,4.70001-10.29999,10.39999-10.20001,5.70001,0,10.29999,4.70001,10.20001,10.39999v19.10001h0v-.10001Z" fill="#606d7a" stroke-width="0"/><path d="M354.70001,317.00003c-7.10001-3.60001-15.5-3.60001-22.60001,0-3.20001,1.79999-5.79999,4.39999-7.60001,7.60001-1.89999,3.5-2.79999,7.39999-2.70001,11.29999v17.39999c0,3.89999.79999,7.79999,2.70001,11.29999,1.79999,3.20001,4.39999,5.79999,7.60001,7.60001,3.5,1.89999,7.39999,2.79999,11.29999,2.70001,3.89999.10001,7.79999-.79999,11.29999-2.70001,3.20001-1.79999,5.79999-4.39999,7.60001-7.60001,1.89999-3.5,2.79999-7.39999,2.70001-11.29999v-17.39999c0-3.89999-.79999-7.79999-2.70001-11.29999-1.79999-3.20001-4.39999-5.79999-7.60001-7.60001h.00003ZM353.70001,354.10004v.29999c0,5.70001-4.70001,10.20001-10.29999,10.10001h-.20001c-5.70001,0-10.20001-4.70001-10.10001-10.29999v-19.29999c0-5.70001,4.70001-10.29999,10.39999-10.20001,5.70001,0,10.29999,4.70001,10.20001,10.39999v19.10001h0v-.10001Z" fill="#606d7a" stroke-width="0"/><polygon points="386.29999 315.60004 375.39999 322.10004 375.39999 334.20004 386.29999 327.50003 386.29999 373.70004 397.5 373.70004 397.5 315.60004 386.29999 315.60004" fill="#606d7a" stroke-width="0"/></svg>