<svg version="1.2" xmlns="http://www.w3.org/2000/svg" viewBox="0 0 188 42" width="188" height="42">
	<title>ledger-grey-svg</title>
	<defs>
		<clipPath clipPathUnits="userSpaceOnUse" id="cp1">
			<path d="m2.23 4.45h182.06v33.84h-182.06z"/>
		</clipPath>
	</defs>
	<style>
		.s0 { fill: #606d7a } 
	</style>
	<g id="Clip-Path: Clip-Path" clip-path="url(#cp1)">
		<g id="Clip-Path">
			<g id="Layer">
				<path id="Layer" class="s0" d="m16.9 4.4q0 1 0 2.1 0 0-0.1 0h-12.3q0 0.2 0 0.2 0 3.7 0 7.4-0.2 0-0.2 0h-2.1v-9.7z"/>
				<path id="Layer" class="s0" d="m2.2 28.7h2.1q0 0 0.2 0.1v7.4q0.1 0 0.1 0h12.2q0 0 0.1 0 0 1 0 2 0 0.1-0.1 0.1-7.3 0-14.6 0z"/>
				<path id="Layer" class="s0" d="m103 4.4v9.7h-1.9q0 0 0-0.1-0.2 0-0.2 0 0 0 0-0.2v-7.1c0-0.2-0.1-0.2-0.2-0.2q-5.8 0-11.8 0h-0.3q0 0 0-0.1v-2z"/>
				<path id="Layer" class="s0" d="m184.3 18.9h-5.3q-0.2 0-0.2-0.1v-8.3c0.5 0 2.5 0 5.2 0q0.2 0 0.2 0 0 0.1 0 0.1 0 0.4 0 0.9-0.2 0.1-0.2 0.1h-3.9q0 0.1 0 0.1 0 1.1 0 2.4 0 0 0.1 0.1h3.5q0.1 0 0.1 0 0 0.5 0 1 0 0-0.1 0-1.8 0-3.5 0-0.1 0.1-0.1 0.1v2.5q0 0 0.1 0h4.1z"/>
				<path id="Layer" fill-rule="evenodd" class="s0" d="m88.9 19q-0.1 0-0.1 0v0.3q-0.1 0.1-0.1 0.1v0.1c-0.1 0.1 0 0.1-0.1 0.3q-0.2 0.2-0.3 0.5 0 0.1 0 0.1c0 0.1-0.1 0.1-0.2 0.2 0 0.2-0.2 0.3-0.3 0.3 0 0.1-0.1 0.2-0.2 0.2q-0.2 0.1-0.4 0.4c0-0.1 0 0-0.1 0-0.1 0-0.3 0.1-0.4 0.1-0.1 0-0.1 0.3-0.2 0.1q-0.2 0-0.2 0.2v0.2q0.2 0 0.4 0 0 0 0 0.1c0.1 0 0.3 0 0.3 0 0.1 0 0.2 0.2 0.2 0.2q0.2 0.1 0.4 0.1 0.2 0.2 0.5 0.5 0.1 0.2 0.2 0.5 0 0 0 0.1 0 0 0 0.1v0.3q0.1 0 0.1 0v4.7h-1.9c-0.2 0-0.2-0.2-0.2-0.2q0-1.8 0-3.7c0-0.1 0-0.3 0-0.3v-0.3q-0.1-0.1-0.1-0.1v-0.1q0-0.2-0.1-0.3l-0.1-0.1c0-0.1-0.2-0.1-0.2-0.3q-0.1-0.1-0.1-0.1-0.2-0.1-0.5-0.2h-0.2q0 0 0-0.1h-4q0 0.1 0 0.1v5.7c-0.6 0-1.3 0-1.8 0q-0.2 0-0.2 0c-0.1-0.4-0.1-9.6-0.1-14.6q0.1 0 0.1 0 2.9 0 5.6 0 0 0 0.1 0.1h0.8q0 0.1 0 0.1h0.2c0.1 0 0.3 0.2 0.3 0.2q0.1 0 0.2 0.1c0.1 0 0.1 0.1 0.3 0 0 0.1 0.1 0.1 0.1 0.1 0.1 0.1 0.2 0.1 0.4 0.2 0 0 0.2 0.2 0.2 0.3q0.1 0 0.1 0 0.4 0.2 0.6 0.6l0.2 0.1c0.1 0.2 0.2 0.2 0.2 0.3 0.1 0.1 0.1 0.4 0.3 0.5q0 0.1 0.1 0.2c-0.1 0.1 0 0.1 0 0.3q0 0.1 0.1 0.1v0.2q0 0 0.1 0.2zm-7.9 1.8q2.1 0 4.1 0 0.1 0 0.1 0h0.3c0.1-0.1 0.3-0.1 0.5-0.4 0.2 0 0.2-0.2 0.3-0.3v-0.1q0.2-0.2 0.2-0.2v-0.1q0-0.1 0.1-0.1v-2.4q-0.1 0-0.1 0 0-0.2 0-0.3c-0.2 0-0.2-0.2-0.2-0.3q-0.2-0.2-0.3-0.4-0.2 0-0.3-0.1-0.1 0-0.2 0 0 0-0.2-0.1h-0.3q0 0-0.2-0.1-1.8 0-3.8 0 0 0 0 0.1z"/>
				<path id="Layer" fill-rule="evenodd" class="s0" d="m46.8 14.1q0 0 0 0.1c0 0 0.4 0 0.4 0h0.3q0 0.1 0 0.1h0.5q0 0.2 0 0.2c0 0 0.1 0 0.2 0.1 0 0 0.2 0 0.3 0 0 0.1 0.1 0.1 0.1 0.1 0.1 0.1 0.3 0.1 0.4 0.2q0 0 0.1 0.2 0.3 0.2 0.5 0.5 0.1 0.1 0.2 0.2c0 0 0.2 0 0.2 0.1 0 0.2 0.1 0.2 0.1 0.3l0.1 0.1c0 0.1 0.1 0.1 0.1 0.3q0.2 0.1 0.2 0.2 0 0.1 0.1 0.1c0 0.1 0 0.3 0 0.3 0.1 0 0.1 0.1 0.1 0.1 0.1 0.1 0 0.1 0 0.2q0.1 0 0.1 0.2v0.1q0 0 0.2 0c0 0.1 0 0.4 0 0.5q0.1 0 0.1 0.1v0.3q0 0.1 0.1 0.1c0 0.1 0 0.3 0 0.3v0.5q0.1 0.2 0.1 0.2c0 0 0 0.9 0 1q0 0.6 0 1.3 0 0 0 0.1 0 0.4 0 0.9h-0.1c0 0 0 0.5 0 0.6v0.4q-0.1 0-0.1 0v0.2q0 0.2-0.1 0.2v0.5q-0.2 0.1-0.2 0.1 0 0 0 0.1c0 0-0.1 0.1-0.1 0.2 0 0 0 0.2-0.1 0.3 0 0 0 0.1-0.1 0.2q0 0.2-0.2 0.4c-0.1 0.1-0.1 0.1-0.1 0.3-0.1 0-0.1 0.2-0.2 0.2-0.2 0.1-0.2 0.1-0.2 0.3q-0.1 0.1-0.2 0.2c-0.1 0.1-0.1 0.2-0.2 0.2q-0.3 0.2-0.4 0.3 0 0-0.1 0.1c0 0 0 0-0.2 0-0.1 0-0.1 0.1-0.1 0.1q-0.1 0.2-0.1 0.2c-0.1 0-0.1 0-0.3 0 0 0-0.1 0.1-0.2 0.2 0 0-0.2 0-0.3 0h-0.1q0 0 0 0.1c-0.1 0-0.4 0-0.4 0h-0.2q-0.1 0.2-0.1 0.2h-5.6q0 0 0-0.2 0-7.1 0-14.4zm-3.2 1.8c0 0.1 0 10.9 0 10.9q1.5 0 3 0 0.1-0.1 0.1-0.1h0.5q0 0 0-0.1 0.1 0 0.2 0h0.2c0.1 0 0.1-0.2 0.2-0.2 0 0 0.1 0 0.2-0.1 0-0.1 0.2-0.1 0.3-0.1q0-0.1 0.1-0.1c0-0.2 0.1-0.2 0.1-0.3l0.2-0.1c0-0.1 0.1-0.1 0.1-0.3 0 0 0 0 0-0.1 0-0.1 0.1-0.1 0.1-0.2q0-0.1 0.1-0.3c0-0.2 0-0.6 0-0.8q0.2 0 0.2 0 0-2.6 0-5.1 0 0 0-0.1-0.2 0-0.2 0v-0.9q-0.1-0.1-0.1-0.2c0-0.2-0.1-0.2-0.1-0.3q0-0.1-0.1-0.2 0 0 0-0.2c-0.2-0.1-0.3-0.1-0.3-0.2 0-0.1-0.1-0.1-0.1-0.1 0-0.1-0.1-0.1-0.1-0.1q0 0-0.2-0.2 0 0-0.1 0c-0.1 0-0.1-0.1-0.1-0.1-0.1 0-0.1-0.1-0.2-0.1q0 0-0.2 0h-0.2q0-0.1 0-0.1h-0.5q0 0-0.1-0.2zm-2.3-1.8z"/>
				<path id="Layer" class="s0" d="m60.1 28.7q-0.1 0-0.1 0-0.1 0-0.1 0.1h-0.2q0 0-0.1 0h-0.2q0 0-0.2 0.1h-1.2q0 0-0.1-0.1h-0.4-0.2q0-0.1 0-0.1h-0.2q-0.1 0-0.1-0.2-0.1 0-0.1 0-0.3-0.1-0.6-0.2c0 0-0.1 0-0.3-0.1 0-0.2-0.2-0.2-0.2-0.3q-0.1-0.1-0.3-0.1-0.1-0.3-0.3-0.4c-0.2-0.1-0.2-0.2-0.3-0.3-0.1 0-0.1-0.2-0.2-0.3 0-0.1-0.2-0.2-0.2-0.2-0.1-0.2-0.1-0.3-0.2-0.4q0 0 0-0.1c0-0.2-0.3-0.4-0.3-0.5 0-0.2 0-0.3-0.1-0.3v-0.2-0.3q-0.1 0-0.1-0.1v-0.1l-0.1-0.1v-0.3q0 0 0-0.1v-0.4q-0.1 0-0.1 0v-0.5l-0.2-0.1v-0.7q0-0.2 0-0.2 0-0.8 0-1.6 0-0.1 0-0.1v-0.9q0.2 0 0.2 0v-0.5q0 0 0.1-0.1v-0.2-0.1-0.3q0.1-0.1 0.1-0.1v-0.3q0.1-0.1 0.1-0.2c0-0.1 0-0.3 0.1-0.3 0-0.1 0-0.1 0-0.2 0.2 0 0-0.1 0.2-0.3 0 0 0-0.1 0.1-0.1q0-0.1 0-0.2 0.1 0 0.1-0.1c0-0.2 0.1-0.3 0.1-0.4 0.2 0 0.2-0.1 0.3-0.3 0.1 0 0-0.1 0.1-0.2q0.1-0.1 0.3-0.3 0.1-0.1 0.3-0.3c0.2-0.2 0.3-0.3 0.4-0.3q0 0 0.1-0.1 0 0 0.2-0.1c0.1 0 0.1-0.1 0.2-0.1 0 0 0.1 0 0.2-0.2q0-0.1 0.2-0.1c0.1 0 0.2 0 0.2 0q0.1 0 0.1-0.1h0.3q0 0 0.1-0.1h0.1q0.2 0 0.2 0h0.3q0 0 0.2-0.2h1.3q0.1 0 0.1 0.2 0.2 0 0.4 0c0.1 0.1 0.3 0 0.4 0.1 0 0 0.1 0 0.2 0.1 0.2-0.1 0.3 0 0.4 0q0 0 0.1 0.1 0.1 0 0.3 0.2 0.1 0 0.2 0.1c0 0 0.1 0.1 0.3 0.1 0 0.1 0.1 0.1 0.2 0.2 0.1 0 0.3 0.2 0.3 0.3 0.1 0.1 0.2 0.1 0.2 0.2q0.1 0.2 0.3 0.3c0.1 0.1 0.1 0.2 0.2 0.4q0 0.2 0.3 0.5c0 0 0.1 0.1 0.1 0.2 0 0.1 0.1 0.2 0 0.4 0.1 0 0.1 0.2 0.1 0.2q0.1 0.3 0.1 0.4v0.5q0 0 0.1 0.1v0.1h-2.2q-0.1 0-0.1-0.1v-0.7h-0.1v-0.4c-0.2 0 0-0.1 0-0.3-0.2 0-0.2-0.1-0.2-0.1 0-0.1-0.1-0.2-0.1-0.2q-0.1-0.1-0.1-0.3c-0.1 0-0.1-0.1-0.2-0.1-0.2 0-0.2-0.1-0.2-0.1q-0.1-0.1-0.2-0.1c-0.1 0-0.1 0-0.3-0.2h-0.2q-0.1 0-0.1 0h-2q-0.1 0-0.1 0h-0.3c-0.1 0.2-0.2 0.2-0.2 0.2-0.2 0-0.2 0.1-0.3 0.1-0.1 0-0.1 0.1-0.2 0.1q-0.3 0.3-0.5 0.5c0 0.1-0.1 0.4-0.3 0.5q0 0.1 0 0.1v0.3q-0.1 0-0.1 0 0 0.1 0 0.2 0 0-0.1 0.1v0.5q0 0 0 0.2 0 2.7 0 5.5v0.5l0.1 0.1v0.3q0 0.1 0.1 0.1v0.1c0 0.1 0 0.1 0 0.1 0 0.2 0.2 0.2 0.2 0.3 0 0.1 0.1 0.1 0.1 0.2 0 0.2 0.1 0.2 0.1 0.2q0 0.1 0.1 0.2h0.1c0.2 0.3 0.4 0.3 0.5 0.4q0.2 0 0.2 0 0.1 0 0.1 0.1h0.2q0.2 0 0.2 0 1.1 0 2.2 0h0.4q0-0.1 0.1-0.1 0.1 0 0.2-0.1 0 0 0.2 0 0.1-0.2 0.2-0.3 0.1 0 0.1 0v-0.1c0.1-0.1 0.3-0.4 0.4-0.5q0-0.1 0-0.1 0-0.2 0-0.2v-0.1q0.1-0.1 0.1-0.1v-0.5q0 0 0.1 0 0 0 0-0.1 0-0.8 0-1.5 0 0-0.1 0-1.7 0-3.4 0 0 0-0.2-0.1v-1.9q0.2 0 0.2 0 2.7 0 5.4 0 0 0 0.1 0v7.6q-0.1 0-0.1 0-0.9 0-1.7 0c-0.2 0-0.2-0.2-0.2-0.2q0-0.6 0-1.2c0 0-0.1 0-0.2 0q0 0-0.1 0.1c0.1 0.1-0.2 0.1 0 0.3q-0.4 0.2-0.8 0.6c-0.1 0.2-0.3 0.2-0.6 0.4z"/>
				<path id="Layer" class="s0" d="m29.2 14.1h9.1q0 1 0 1.8c0 0.2-0.1 0-0.2 0q-3.2 0-6.4 0h-0.4c0 0.5 0 2.6 0 4.4l0.1 0.1q3.1 0 6.2 0 0 0 0.1 0v1.8q-0.1 0-0.1 0h-6.2l-0.1 0.2c0 1.2 0 3.9 0 4.4h7.3c0.1 0.3 0.1 1.5 0 1.9h-9.4q0-0.2 0-0.2 0-7.1 0-14.4z"/>
				<path id="Layer" class="s0" d="m66.7 28.7v-14.6c0.5 0 6.8 0 9.1 0 0 0.2 0 1.3 0 1.8h-7q0 0.2 0 0.2 0 2.1 0 4.3h6.4q0 1 0 1.8 0 0-0.1 0-3.1 0-6.3 0 0 0 0 0.2c0 0.3 0 3.3 0 4.3q0 0.1 0 0.1 3.7 0 7.3 0v1.9q0 0-0.2 0z"/>
				<path id="Layer" class="s0" d="m103 38.3h-14.4c0-0.3 0-1.7 0-2.1h12.3q0-0.1 0-0.1 0-3.6 0-7.3 0.1 0 0.1-0.1h2q0 4.8 0 9.6z"/>
				<path id="Layer" class="s0" d="m19 26.8h7.5q0 0 0 0.1v1.8c0 0 0 0-0.2 0q-4.7 0-9.2 0-0.2 0-0.2 0c0-0.3-0.1-8.7 0-14.4q-0.1-0.1 0-0.2h2q0.1 0 0.1 0 0 6.3 0 12.7z"/>
				<path id="Layer" class="s0" d="m169 30.9v-1.9q0 0-0.2 0c0-0.5 0-2.9 0-5.2q0 0 0.2 0 0.4 0 0.9 0 0.2 0 0.2 0.2v8.2q0 0-0.2 0h-1.8c0-0.1-0.1-0.2 0-0.3q-0.1 0-0.1-0.2v-0.1q0 0-0.2 0v-0.1q0-0.1-0.1-0.4c0.1-0.1-0.1-0.1-0.1-0.2 0.1-0.1 0-0.1 0-0.3 0-0.1-0.1-0.1-0.1-0.2v-0.1q-0.2-0.2-0.2-0.2c0-0.1 0-0.1 0-0.1-0.1-0.1 0-0.2-0.1-0.2 0-0.2 0-0.2-0.1-0.3v-0.1q0 0 0-0.1v-0.1q-0.1 0-0.1 0 0-0.3-0.1-0.4 0-0.1 0-0.3c-0.2-0.1 0-0.2-0.2-0.2v-0.3q-0.1 0-0.1 0v-0.1c-0.1-0.1 0-0.2-0.1-0.2q0 0 0-0.2c0-0.1-0.1-0.1-0.1-0.2 0-0.1-0.2-0.1 0-0.2-0.2-0.2-0.2-0.2-0.2-0.3-0.1 0 0-0.1-0.1-0.2-0.1 0 0-0.2-0.1-0.3v-0.1q-0.1-0.1-0.1-0.3 0 0 0-0.1 0 0-0.2-0.1v-0.1q0 0 0-0.2v-0.1q-0.1 0-0.1-0.1-0.1 0-0.1 0v3.7 3.3q-0.6 0-1.1 0 0 0 0-0.1 0-4.1 0-8.1 0-0.2 0-0.2h1.8q0.2 0.2 0.2 0.3c0 0.1 0.1 0.2 0.1 0.4 0.1 0.1 0 0.2 0.1 0.2 0 0.1 0 0.3 0 0.3 0.1 0 0 0.1 0.1 0.1 0 0.1 0.2 0.2 0.2 0.3 0 0.2 0.1 0.2 0 0.3l0.1 0.1c0 0.1 0.1 0.1 0.1 0.3 0 0.1 0 0.1 0 0.2 0 0.1 0.1 0.1 0.1 0.3 0 0 0.1 0.1 0 0.1 0 0.1 0.1 0.1 0.1 0.2 0 0 0.2 0.2 0.2 0.3 0 0 0.1 0.1 0 0.2 0 0 0.1 0 0.1 0.1 0 0.2 0 0.2 0 0.2 0 0.1 0.1 0.1 0.1 0.2 0 0.1 0.1 0.1 0.1 0.3 0 0.1 0.2 0.1 0 0.2l0.2 0.1c0 0.2 0 0.2 0 0.3 0.1 0 0.1 0.1 0.1 0.1v0.1q0.1 0.2 0.1 0.3c0 0.1 0.1 0.3 0.3 0.5v0.1q0 0 0 0.1v0.1q0.1 0 0.1 0 0 0.3 0.1 0.5 0 0 0 0.2 0 0 0.1 0.1 0.2 0 0.2 0z"/>
				<path id="Layer" class="s0" d="m124.9 12.8q-0.1 0-0.1-0.1 0-1.1 0-2.2c0.2 0 0.6 0 1.2 0v8.4q0 0-0.1 0-0.9 0-1.7 0-0.1 0-0.1-0.1c0 0 0-0.1-0.2-0.1 0-0.2 0-0.3 0-0.3 0-0.1-0.1-0.1-0.1-0.2 0-0.2-0.1-0.2-0.1-0.3 0.1-0.1 0-0.1 0-0.2 0-0.2-0.1-0.2-0.1-0.3 0 0 0-0.1-0.2-0.2 0 0 0-0.3-0.1-0.3 0.1-0.1 0-0.2 0-0.2 0-0.1-0.1-0.3-0.1-0.4q-0.1-0.1-0.1-0.2c0 0 0-0.2-0.2-0.3 0 0 0.2-0.1 0-0.1-0.1 0 0-0.1-0.1-0.1 0-0.2 0-0.3 0-0.3q0-0.1-0.1-0.1c0-0.3 0-0.4-0.1-0.5v-0.2q-0.2 0-0.2 0v-0.2c-0.1-0.1-0.1-0.1-0.1-0.2 0-0.1 0-0.1 0-0.3q0-0.1-0.1-0.1c-0.1-0.1 0-0.2 0-0.2q-0.1 0-0.1-0.2v-0.1q0 0-0.1-0.1v-0.1c0-0.2-0.2-0.3-0.2-0.3 0-0.1-0.1-0.1-0.1-0.2 0.1-0.1 0-0.1 0-0.3 0-0.1-0.1-0.1-0.1-0.2 0 0 0 0-0.1-0.1q0 0-0.2 0v1.2q0.2 0 0.2 0 0 2.7 0 5.4 0 0.2 0.1 0.2v0.1q-0.1 0.1-0.1 0.1h-1.2q0-4.2 0-8.4h1.9c0 0.1 0 0.1 0.1 0.2q0 0 0 0.2c0 0.1 0.1 0.1 0.1 0.2 0 0.1 0 0.1 0.2 0.3q0 0.1 0 0.1c0 0.1 0 0.2 0.1 0.2v0.2c0 0.1 0.1 0.2 0.1 0.3 0 0.2 0.1 0.2 0.1 0.3-0.1 0 0 0.1 0 0.1 0 0.1 0.2 0.1 0.2 0.2v0.2c0 0.1 0.1 0.2 0.1 0.2 0 0.1 0.1 0.3 0.1 0.4 0 0 0 0.1 0.1 0.2v0.2q0 0 0 0.1v0.1q0.2 0 0.2 0.1v0.2q0.1 0.1 0.1 0.2c0 0.1 0.1 0.1 0.1 0.2 0 0.2 0.1 0.2 0.1 0.3-0.1 0 0 0.1 0 0.1 0 0.1 0 0.1 0.2 0.3v0.1c0 0 0 0.1 0 0.2q0.1 0 0.1 0.2c0 0.1 0.1 0.1 0.1 0.2 0.1 0.1 0 0.3 0.1 0.3v0.1q0 0 0 0.1 0 0 0 0.1 0.2 0 0.2 0.1c0 0.2 0.1 0.3 0.1 0.4q0 0 0.1 0.1 0 0 0.1 0 0-2.3 0-4.7z"/>
				<path id="Layer" fill-rule="evenodd" class="s0" d="m145.7 10.5q0 0 0.1 0.1c0 0 0.3 0 0.4 0h0.1c0.1 0.1 0.4 0.3 0.5 0.3 0 0.1 0.1 0.1 0.3 0.1 0.1 0.1 0.2 0.1 0.2 0.2q0.1 0.3 0.4 0.4c0 0 0 0.1 0.1 0.3 0.1 0.1 0.2 0.2 0.2 0.5v0.3q0.1 0 0.2 0v0.4q-0.1 0.1-0.2 0.1c0 0.1 0 0.4 0 0.4 0 0.1-0.1 0.2-0.1 0.4q-0.1 0.1-0.2 0.2-0.1 0.3-0.4 0.5c-0.2 0-0.4 0.1-0.6 0.2q0 0 0 0.2 0 0.1 0.1 0.1 0 0 0.1 0h0.2q0.1 0.1 0.1 0.1c0.1 0.1 0.2 0.1 0.2 0.1q0.2 0.2 0.2 0.3c0.1 0.1 0.2 0.2 0.2 0.4q0 0.1 0 0.1 0 0.1 0 0.4 0.1 0 0.1 0 0 0.1 0 0.1 0 1.1 0 2.2 0 0-0.1 0-0.5 0-1 0 0 0-0.1 0v-2.6q-0.1 0-0.1 0v-0.2q-0.3-0.2-0.5-0.4h-0.2q0 0 0-0.1h-2.3q0 0 0 0.1 0 1.6 0 3.2 0 0-0.1 0-0.5 0-1 0-0.1 0-0.1 0 0 0 0-0.1v-8.3zm0.7 3.8q0.1-0.1 0.3-0.2c0-0.1 0-0.1 0.1-0.3q-0.1-0.1 0-0.1c0 0 0-1.3 0-1.3v-0.3q-0.1 0-0.3-0.1 0 0 0-0.1 0 0-0.1 0 0 0-0.1-0.2h-0.1q0 0-0.2-0.1-1.1 0-2.3 0 0 0 0 0.1-0.1 0-0.1 0 0 1.4 0 2.8 0 0 0.1 0c0 0 2.2 0 2.3 0h0.2q0.1-0.2 0.2-0.2z"/>
				<path id="Layer" fill-rule="evenodd" class="s0" d="m160.5 10.6h0.4c0.1 0.1 0.3 0 0.3 0.1 0 0 0.1 0 0.2 0 0 0.2 0.1 0.2 0.1 0.2q0.2 0.1 0.3 0.1c0 0 0.1 0 0.1 0.1 0.1 0 0.1 0.1 0.2 0.1q0 0 0 0.2 0.2 0 0.3 0.1 0 0.1 0 0.1 0.2 0.3 0.4 0.5c0 0.1 0.1 0.1 0 0.3q0.1 0.1 0.1 0.1v1q-0.1 0-0.1 0.1c0.1 0.1 0 0.1 0 0.2q-0.2 0.2-0.2 0.3c-0.1 0.1-0.1 0.1-0.2 0.2q-0.1 0.2-0.2 0.3c-0.2 0-0.2 0.1-0.3 0.2q-0.1 0-0.2 0.1h-0.2c-0.1 0-0.1 0.2 0 0.2 0 0.1 0.2 0 0.2 0.1 0.1 0.1 0.2 0 0.2 0.1 0.1 0 0.3 0 0.3 0.1q0.1 0 0.1 0.2c0.1 0 0.1 0.1 0.1 0.1 0.1 0.1 0.1 0.2 0.2 0.2 0 0.1 0 0.4 0 0.4q0 1.4 0 2.6-0.5 0-1.1 0 0 0-0.1-0.1c0-0.1 0-2.3 0-2.4v-0.1c0-0.1-0.1-0.1-0.1-0.2q-0.1-0.2-0.3-0.3 0 0-0.1 0c0-0.1-0.1-0.1-0.1-0.2h-2.4q0 0 0 0.1 0 1.6 0 3.1 0 0.1-0.1 0.1h-1.1q0-4.2 0-8.3 0-0.1 0-0.1 0.1 0 0.1 0 1.5 0 3.1 0 0.1 0 0.1 0.1zm0.5 3.9c0.4-0.2 0.4-0.5 0.5-0.7v-0.3q0-0.2 0.2-0.2 0-0.2 0-0.6 0 0-0.2 0 0-0.1 0-0.1v-0.4q0-0.1-0.1-0.1-0.1-0.2-0.4-0.4h-0.1q0 0 0-0.1-1.2 0-2.5 0 0 0.1 0 0.1v2.8q1.2 0 2.4 0z"/>
				<path id="Layer" class="s0" d="m173.3 17.8h0.2q0 0.1 0 0.1h1.3q0-0.1 0-0.1h0.2q0.3-0.1 0.4-0.1 0.1-0.2 0.4-0.4c0 0 0-0.1 0.1-0.3v-0.3-0.3q0-0.1 0-0.1v-0.4q-0.1-0.1-0.1-0.1-0.2-0.1-0.4-0.4 0 0-0.1 0 0 0-0.2 0 0 0-0.1-0.1 0 0-0.1 0h-0.3q0 0-0.1-0.1h-0.4c-0.1 0-0.3 0-0.4 0q0-0.1 0-0.1h-0.4q-0.1 0-0.1-0.2-0.2 0-0.3 0c-0.1-0.1-0.1 0-0.2 0 0-0.1-0.2-0.1-0.3-0.1l-0.1-0.1c-0.1 0-0.1-0.1-0.3-0.1-0.1 0-0.1-0.1-0.2-0.1q0-0.2-0.1-0.3 0 0 0-0.1c-0.1-0.1-0.1-0.1-0.3-0.4q0 0 0-0.1 0 0-0.1-0.1 0 0 0-0.2v-0.9-0.3q0.1 0 0.1 0v-0.1q0.2-0.1 0.2-0.3l0.1-0.1q0-0.1 0.1-0.1 0.1-0.1 0.2-0.3c0-0.1 0.2-0.2 0.2-0.2 0.1 0 0.2-0.1 0.2-0.1 0.1-0.2 0.3-0.2 0.4-0.3 0.1 0 0.1 0 0.2 0 0.2 0 0.2-0.1 0.3-0.1 0 0 0.1-0.1 0.2 0q0.2 0 0.3 0 0.1-0.1 0.1-0.1h0.5q0 0 0 0.1h0.4q0.1 0 0.1 0h0.2q0 0.1 0 0.1c0.2 0 0.2 0 0.3 0 0.1 0.1 0.2 0.1 0.2 0.1 0.2 0.2 0.3 0.2 0.4 0.3 0 0.1 0.1 0.1 0.2 0.1q0 0.1 0.2 0.3 0.1 0 0.1 0.1c0 0.1 0.1 0.1 0.1 0.2 0.1 0.2 0.1 0.3 0.3 0.4q0 0 0 0.1c0 0 0 0.2 0.1 0.2v0.2q0 0 0 0.1 0 0.1 0 0.4h-1.2c0-0.1 0-0.1 0-0.3q0-0.1 0-0.2 0 0-0.2 0c0-0.1 0.2-0.2 0-0.4-0.1 0-0.1-0.2-0.2-0.3-0.1-0.2-0.3-0.2-0.4-0.3h-0.1q0 0-0.1 0h-1.4q-0.1 0-0.1 0c-0.3 0-0.4 0.3-0.6 0.5q0 0-0.2 0.1v0.3 0.6 0.2q0.3 0.3 0.5 0.5c0 0 0.2-0.1 0.2 0h0.2q0.1 0.2 0.1 0.2h0.3q0.1 0 0.1 0h0.5q0 0.1 0 0.1c0.1 0 0.1 0 0.2 0q0.2 0 0.3 0 0 0 0 0.1h0.4q0 0 0.1 0 0 0 0.1 0c0.1 0.1 0.1 0.1 0.3 0.1h0.1c0.1 0.2 0.1 0.2 0.2 0.2l0.1 0.1c0.2 0.1 0.4 0.2 0.4 0.3q0.1 0 0.1 0c0 0.2 0.2 0.2 0.2 0.3 0 0.1 0.1 0.1 0.1 0.2q0 0 0 0.2 0.1 0 0.1 0.1 0 0 0 0.1 0 0 0.1 0.1v0.9q-0.1 0.1-0.1 0.1v0.3c-0.1 0-0.1 0.1-0.1 0.2v0.1q-0.1 0.2-0.3 0.3c0 0.1-0.1 0.1-0.1 0.2-0.1 0.2-0.1 0.3-0.4 0.3 0 0.1-0.1 0.2-0.2 0.2-0.1 0-0.1 0.2-0.1 0.2q-0.1 0-0.3 0.1c-0.1 0-0.1 0-0.2 0q-0.1 0.1-0.1 0.1-0.2 0-0.2 0h-0.3q0 0.1 0 0.1h-1.3q0 0-0.1-0.1h-0.2-0.3q0 0 0-0.1c-0.2 0-0.2-0.1-0.5-0.1q0 0-0.1-0.2c-0.1-0.1-0.3-0.1-0.4-0.2q-0.1-0.3-0.4-0.5c-0.2-0.1-0.2-0.4-0.3-0.6q0-0.2 0-0.2-0.1-0.1-0.1-0.1v-0.3q-0.2-0.2-0.2-0.2 0-0.1 0-0.3c0.4 0 0.8 0 1.4 0 0 0.1 0 0.1 0 0.2 0.1 0 0 0.1 0 0.3q0 0.1 0 0.2 0 0 0.1 0.1c0 0 0 0.1 0 0.3q0.1 0 0.1 0.1 0.3 0.2 0.8 0.5z"/>
				<path id="Layer" class="s0" d="m175.1 27.4q0.2 0 0.2 0h0.3q0 0 0.2 0.1h0.1q0.1 0 0.1 0h0.2c0 0.2 0 0.2 0.2 0.2l0.1 0.1c0.1 0 0.1 0 0.2 0 0 0 0 0.1 0.2 0.1q0.2 0.3 0.5 0.5v0.1q0.1 0.2 0.2 0.2 0 0.1 0 0.2c0 0 0 0 0 0.1q0 0 0.1 0.2v0.3q0 0 0 0.1v0.2q0 0 0 0.1v0.4q-0.1 0.1-0.1 0.1c0 0.1-0.1 0.2-0.1 0.4q-0.1 0.1-0.3 0.3-0.1 0.3-0.3 0.4-0.2 0.1-0.2 0.2-0.1 0-0.1 0c-0.1 0-0.1 0.2-0.2 0.2q-0.1 0.1-0.4 0.2 0 0-0.1 0 0 0-0.1 0.1h-0.3q0 0 0 0.2h-0.4q-0.1 0-0.1 0-0.4 0-0.6 0-0.1 0-0.1 0h-0.4q0-0.2-0.1-0.2 0 0-0.1 0 0 0-0.2 0c0-0.1-0.1 0-0.1-0.1q-0.2-0.1-0.4-0.1-0.1 0-0.1-0.1c-0.1-0.2-0.2-0.2-0.4-0.3q-0.1-0.1-0.2-0.2-0.1-0.1-0.3-0.3c0-0.1-0.1-0.1-0.1-0.2q-0.1-0.1-0.1-0.3c-0.1-0.1 0-0.1-0.1-0.2 0 0 0 0 0-0.1 0 0-0.1-0.2-0.1-0.3q0-0.1 0-0.2v-0.4q0.1 0 0.1 0h1.1c0.1 0.1 0.1 0.2 0.1 0.4q0 0.1 0 0.2 0 0.1 0 0.1v0.3c0.1 0 0.1 0.1 0.3 0.2 0 0 0 0.3 0.1 0.3 0.1 0 0.2 0.1 0.4 0.1 0 0.1 0.1 0 0.2 0.1h1.6c0.1 0 0.3 0 0.3-0.1 0.1 0 0.1-0.1 0.2-0.1 0.1 0 0.2-0.1 0.2-0.3 0.2-0.1 0.2-0.2 0.2-0.3v-0.8q0 0 0-0.1v-0.1q0-0.1-0.2-0.1v-0.2q-0.1-0.1-0.2-0.2c-0.1 0-0.1-0.1-0.2 0-0.2-0.1-0.3-0.1-0.4-0.1q0 0 0-0.2h-0.5-0.4q0 0-0.1-0.1h-0.4q-0.1 0-0.1 0-0.1 0-0.4 0c0-0.1 0-0.1 0-0.1-0.1 0-0.2-0.1-0.3-0.1q-0.2 0-0.3-0.2c-0.1 0-0.1-0.1-0.2-0.1q-0.3-0.1-0.4-0.2 0-0.2-0.1-0.3-0.2-0.1-0.2-0.2c-0.1-0.1-0.1-0.1-0.1-0.3q0-0.1 0-0.2-0.1 0-0.1 0v-0.9q0 0 0.1-0.1 0 0 0-0.1 0-0.2 0-0.2v-0.1q0.1-0.1 0.1-0.1 0 0 0-0.1 0.2-0.1 0.2-0.3c0.1 0 0.1 0 0.2-0.1q0-0.1 0-0.1 0.1-0.1 0.3-0.1 0.1-0.2 0.2-0.3 0.3-0.1 0.6-0.4h0.3 0.2q0-0.1 0.1-0.1h1q0.2 0 0.2 0.1h0.2q0.1 0 0.3 0 0.1 0.2 0.2 0.2c0 0.1 0.1 0 0.1 0.1 0.1 0 0.1 0.1 0.3 0.1 0.1 0.1 0.3 0.3 0.5 0.5 0.1 0 0.1 0.1 0.2 0.1 0 0.2 0.1 0.2 0.1 0.3v0.1q0.2 0.1 0.2 0.2 0.1 0.2 0.1 0.2v0.2q0.1 0.1 0.1 0.1 0 0.3 0 0.5c-0.4 0-0.9 0-1.4 0v-0.6q0-0.1 0-0.1c0-0.1-0.1-0.1-0.1-0.3-0.1-0.1-0.1-0.2-0.2-0.2-0.1 0-0.1-0.1-0.1-0.1h-0.3q0-0.1 0-0.1c-0.1 0-0.1 0-0.2 0q0 0-0.2-0.2h-1q-0.1 0.2-0.1 0.2h-0.2c-0.1 0.1-0.4 0.1-0.5 0.2 0 0.1-0.1 0.2-0.1 0.4v1.1q0 0.1 0 0.1 0.1 0.1 0.1 0.1 0.1 0.2 0.2 0.2l0.2 0.1c0.1 0 0.1 0 0.2 0h0.2l0.2 0.1h0.3q0 0 0.2 0.1 0.1 0 0.3 0z"/>
				<path id="Layer" class="s0" d="m116.4 32.2q-0.1 0.2-0.1 0.2h-0.7q-0.1 0-0.1 0h-0.3q0-0.2-0.2-0.2c0 0-0.1 0-0.2 0 0-0.1-0.1-0.1-0.1-0.1-0.2 0-0.2 0-0.3-0.1 0 0-0.1 0-0.1-0.1-0.1 0.1-0.1 0-0.3-0.2q-0.1 0-0.2-0.1 0 0-0.1-0.1 0 0-0.2 0 0-0.1 0-0.1c-0.1-0.1-0.2-0.3-0.2-0.3q-0.3-0.3-0.4-0.7 0 0 0-0.1 0 0-0.1 0v-0.5q0 0 0-0.2v-0.2q0.6 0 1.4 0 0 0.2 0 0.4 0 0.1 0 0.3 0 0 0 0.2 0 0 0.1 0.1 0 0 0 0.1l0.1 0.1q0.1 0.2 0.1 0.3 0.3 0.1 0.4 0.1c0 0.1 0.1 0 0.3 0.1q0.7 0 1.6 0c0.1 0 0.2-0.1 0.3-0.1q0.2 0 0.2-0.1c0.1 0 0.2-0.1 0.2-0.3 0 0 0-0.1 0.1-0.2v-0.3q0 0 0-0.1v-0.4q0-0.1 0-0.1v-0.2q0-0.1-0.1-0.1v-0.2q-0.1-0.1-0.2-0.2c-0.2 0-0.2-0.1-0.3 0-0.1-0.1-0.2-0.1-0.4-0.1q0 0 0-0.2h-0.3q-0.2 0-0.2 0h-0.5q0 0 0-0.1h-0.3q-0.1 0-0.1 0-0.2 0-0.3 0-0.1-0.1-0.1-0.1h-0.1q-0.2-0.1-0.3-0.1-0.1 0-0.1 0-0.1-0.2-0.3-0.2 0-0.1-0.1-0.1-0.2-0.2-0.5-0.5-0.1-0.2-0.2-0.5v-0.2q0 0-0.2 0v-1q0 0 0.2 0v-0.3q0-0.1 0.1-0.2c0.1-0.1 0.1-0.2 0.2-0.4 0 0 0-0.1 0.2-0.2 0.1 0 0.1-0.1 0.2-0.1 0.1-0.2 0.1-0.3 0.3-0.3 0.2-0.1 0.5-0.4 0.7-0.4q0 0 0.1 0h0.3q0.1-0.1 0.1-0.1h1q0.1 0 0.1 0.1 0.1 0 0.3 0h0.2c0.1 0.2 0.1 0.2 0.3 0.2 0.1 0 0.1 0.1 0.2 0.1 0.1 0 0.1 0.1 0.2 0.1q0.2 0.1 0.2 0.3 0.2 0.2 0.5 0.5 0.1 0.2 0.2 0.4v0.2q0.1 0 0.1 0.1v0.2q0.2 0 0.2 0.2 0 0.1 0 0.3c-0.4 0-0.9 0-1.4 0v-0.5q0-0.1 0-0.1v-0.1c0-0.1-0.1-0.1-0.1-0.3q-0.3-0.2-0.5-0.3h-0.1q0-0.1 0-0.1h-0.4q0 0 0-0.2h-1q0 0-0.1 0.2h-0.3c-0.1 0-0.2 0.1-0.3 0.1q-0.2 0.1-0.3 0.2 0 0.1 0 0.3v0.2q-0.1 0-0.1 0.1v0.4q0 0.1 0 0.1c0.1 0.2 0.1 0.3 0.1 0.4l0.1 0.1q0.2 0.2 0.3 0.2 0.1 0 0.1 0.1 0.1 0 0.1 0 0.1 0 0.1 0 0.2 0 0.3 0 0.1 0.1 0.1 0.1 0.2 0 0.4 0 0 0 0.1 0.1h0.4q0.1 0 0.1 0h0.4q0 0.1 0.1 0.1h0.1q0.2 0 0.2 0h0.1q0.1 0.2 0.1 0.2 0 0 0.1 0 0.3 0.1 0.5 0.2 0.3 0.3 0.5 0.5 0.1 0.3 0.3 0.5v0.1q0.1 0.2 0.1 0.2v1.1q0 0-0.1 0c0 0.1 0 0.1 0 0.2-0.2 0.3-0.2 0.5-0.4 0.6v0.2q-0.3 0.2-0.5 0.4-0.1 0-0.1 0c-0.2 0.2-0.2 0.2-0.3 0.2 0 0.1-0.2 0.1-0.2 0.2q-0.1 0-0.1 0-0.2 0-0.3 0.1h-0.2q0 0 0 0.2h-0.4z"/>
				<path id="Layer" fill-rule="evenodd" class="s0" d="m126.4 29.5q-0.1 0-0.1 0.1c0 0.1 0 0.3 0 0.3v0.2q-0.1 0-0.1 0.2v0.1q-0.2 0.2-0.4 0.5c0 0.1 0 0.2-0.1 0.4-0.2 0.1-0.2 0.1-0.3 0.2q-0.1 0.1-0.2 0.2c-0.2 0-0.2 0.3-0.3 0.2-0.1 0.1-0.1 0.2-0.2 0.2h-0.1c-0.2 0-0.2 0.1-0.3 0.1q-0.1 0-0.2 0h-0.3q-0.1 0.2-0.1 0.2h-0.6q0 0-0.2-0.2h-0.3c0-0.1-0.3 0-0.3-0.1-0.1 0.1-0.2 0-0.3-0.1 0 0-0.2 0-0.3-0.1q-0.2-0.3-0.5-0.5c-0.1-0.1-0.1-0.1-0.1-0.3-0.1 0-0.1-0.1-0.3-0.2 0 0 0-0.1-0.1-0.1 0-0.2 0-0.3 0-0.3-0.1-0.1-0.1-0.1-0.1-0.2v-0.2q-0.1 0-0.1-0.1 0 0 0-0.2 0 0-0.2 0v-0.9h-0.1v-1.7l0.1-0.1c0-0.1 0-0.5 0-0.5v-0.3q0.2-0.1 0.2-0.1v-0.1q0-0.2 0.1-0.2c-0.1-0.1 0.1-0.2 0-0.3q0.1-0.2 0.2-0.3 0-0.1 0.2-0.3c0 0 0.1-0.2 0.1-0.3q0.2-0.2 0.5-0.5h0.1c0.1-0.1 0.4-0.1 0.5-0.4q0.1 0 0.2 0h0.3q0-0.1 0.1-0.1h1.1q0 0 0 0.1c0.2 0 0.3 0 0.3 0q0.1 0 0.1 0 0.1 0 0.3 0.2h0.1c0 0 0.1 0 0.1 0.1q0.1 0 0.1 0.1h0.1q0.4 0.3 0.7 0.6v0.2c0.2 0.1 0.2 0.3 0.3 0.4q0 0.2 0 0.3 0.2 0 0.2 0v0.2q0 0 0.1 0c0 0.1 0 0.3 0 0.3v0.2q0 0.2 0.1 0.2c0 0.1-0.1 0.3 0 0.5zm-2.6-4.7h-1q0 0.1 0 0.1h-0.2q-0.3 0-0.4 0.1-0.1 0.1-0.2 0.3c0 0.1-0.2 0.1-0.3 0.2 0 0.1 0 0.2 0 0.2v0.3q0 0-0.1 0v3.8q0.1 0 0.1 0.1v0.3c0.1 0 0 0.1 0.1 0.2q0 0.2 0.2 0.3c0 0.1 0.1 0.1 0.2 0.1 0 0.1 0.1 0.1 0.2 0.3 0.5 0 1.2 0 1.7 0q0 0 0.1 0h0.1q0.1-0.2 0.2-0.3c0.2 0 0.2-0.1 0.3-0.1 0-0.1 0.1-0.1 0.1-0.3 0-0.1 0-0.1 0.1-0.2 0-0.1 0-4.3 0-4.3v-0.3c-0.1-0.1-0.2-0.2-0.3-0.5-0.2-0.1-0.3-0.1-0.5-0.2h-0.3q-0.1-0.1-0.1-0.1zm2.6 2.2z"/>
				<path id="Layer" fill-rule="evenodd" class="s0" d="m162.5 26.1q0 0.1 0.1 0.1c0 0 0 0.3 0 0.4v0.3q0 0 0.2 0.2 0 0.9 0 1.9 0 0.2-0.2 0.2c0 0 0 0.4 0 0.4v0.3h-0.1v0.2q0 0-0.1 0.2c0 0 0.1 0.1 0 0.1 0 0.1 0 0.1-0.1 0.2 0 0-0.1 0.2-0.1 0.3v0.1c-0.2 0-0.2 0.1-0.2 0.3q-0.1 0-0.2 0.1 0 0.1 0 0.1-0.1 0.1-0.3 0.2c-0.1 0-0.2 0.2-0.3 0.2l-0.2 0.2c-0.1 0-0.1 0.1-0.2 0-0.1 0-0.1 0.1-0.1 0.1-0.2 0-0.3 0.2-0.4 0.2q-0.1-0.2-0.3-0.2 0 0.2-0.1 0.2c-0.1 0-0.6 0-0.6 0h-0.4q0-0.2-0.1-0.2h-0.1q0 0-0.1-0.1h-0.2q-0.1-0.1-0.2-0.1-0.1-0.1-0.3-0.1-0.1-0.2-0.2-0.3-0.1-0.1-0.2-0.2c-0.2-0.1-0.2-0.3-0.3-0.3q-0.1-0.2-0.2-0.5 0-0.2-0.2-0.2c0-0.1 0-0.1 0-0.3q0 0-0.1-0.1c0-0.1 0-0.2 0-0.2q0-0.2 0-0.4 0 0-0.1 0 0-0.2 0-0.5v-2.2q0.1-0.1 0.1-0.1 0-0.2 0-0.3c0-0.1 0.1-0.1 0-0.2 0 0 0.1-0.2 0.1-0.3 0 0 0.2-0.1 0.2-0.2 0 0 0.1-0.2 0.1-0.3 0.1-0.1 0.1-0.3 0.4-0.5 0-0.2 0.1-0.2 0.2-0.3q0-0.2 0.1-0.3c0.1 0.1 0.3-0.1 0.3-0.1q0.2-0.1 0.5-0.3c0.1 0.2 0.2-0.1 0.3 0q0.2-0.1 0.2-0.1h1.1q0.1 0 0.1 0.1h0.5v0.2c0.1-0.2 0.2 0 0.4 0.1 0 0 0.1 0.1 0.2 0.1q0.3 0.3 0.5 0.6c0.1 0 0.1 0.2 0.1 0.2 0.2 0.1 0.2 0.2 0.2 0.2 0 0.1 0.1 0.1 0.1 0.2 0 0 0.1 0.2 0.1 0.3 0 0 0 0 0 0.1l0.1 0.1q0 0.2 0 0.2zm-4.6 3.8q0 0 0 0.1v0.3q0.2 0 0.2 0 0 0.1 0 0.2c0 0.1 0.2 0.1 0.2 0.3 0 0.1 0 0.1 0 0.1 0.1 0 0.1 0 0.3 0.1q0 0 0.1 0.1c0.1 0 0.2 0 0.2 0h1.5c0.3 0 0.4-0.1 0.5-0.2q0.1-0.1 0.3-0.3 0 0 0.1-0.1 0-0.1 0-0.1 0-0.1 0-0.1v-0.2q0 0 0.1-0.1c0 0 0-3.2 0-3.3v-0.6q-0.1-0.2-0.1-0.2v-0.1q-0.1-0.2-0.1-0.4-0.3-0.1-0.4-0.3-0.1 0-0.4-0.1h-0.2q0 0 0-0.2-0.5 0-1 0-0.1 0.2-0.1 0.2h-0.3c-0.1 0.1-0.2 0-0.2 0.1q0 0-0.2 0c0 0.1-0.1 0.1-0.2 0.2 0 0.1-0.1 0.3-0.1 0.3q0 0.1-0.2 0.2c0 0.1 0 0.4 0 0.4q0 1.8 0 3.7z"/>
				<path id="Layer" class="s0" d="m114.5 14.1q0 0 0.2 0.1h3.5q0 0.5 0 1 0 0-0.1 0-1.7 0-3.4 0-0.2 0.1-0.2 0.1v2.5q0.2 0 0.2 0h4c0 0.2 0 0.5 0 1.1-0.5 0-3.3 0.1-5.4 0q0-4.2 0-8.4c0.5 0 3.2 0 5.3 0q0 0.1 0 0.1 0 0.5 0 0.9-0.1 0.1-0.1 0.1h-4q0 0.1 0 0.1z"/>
				<path id="Layer" class="s0" d="m136.5 15.2v2.6q0.2 0 0.2 0h4.1q0 0.1 0 0.1v0.9q0 0.1-0.2 0.1h-5.2c-0.1-0.4-0.1-4.6 0-8.4q2.6 0 5.1 0 0.1 0 0.1 0.1 0 0.5 0 1 0 0-0.1 0-2 0-3.8 0 0 0-0.2 0.1v2.4q0 0.1 0.2 0.1 1.7 0 3.4 0 0 0 0.2 0v1q-0.2 0-0.2 0z"/>
				<path id="Layer" fill-rule="evenodd" class="s0" d="m153.4 10.5q0 0 0 0.1h0.3q0.3 0.1 0.5 0.3c0 0 0.2 0 0.3 0.1 0.1 0 0.1 0.1 0.2 0.1q0.2 0.2 0.4 0.4c0 0.1 0.1 0.1 0.2 0.2 0 0.2 0.2 0.2 0.2 0.3 0 0.1 0 0.1 0.1 0.2 0 0-0.1 0.2 0 0.3v0.2q0.1 0 0.1 0v1q0 0-0.1 0c0 0 0 0.3 0 0.4 0 0.1-0.1 0.1-0.1 0.2q-0.2 0.2-0.2 0.4-0.3 0.2-0.6 0.6c-0.1 0-0.2 0-0.2 0.1-0.1 0.2-0.1 0.2-0.3 0.2-0.1 0.1-0.1 0.1-0.2 0.1q-0.1 0.1-0.3 0.1 0 0-0.1 0h-0.4q0 0-0.1 0.1-1 0-2.1 0c0 0.9 0 1.9 0 2.8v0.2q0 0-0.1 0c-0.1 0-1.1 0-1.1 0q0-4.2 0-8.4 0 0 0.1 0zm0.3 1.1c0 0-2.6 0-2.6 0q0 0 0 0.1 0 1.5 0 3 0 0 0 0.1h2.4q0.2-0.1 0.2-0.1h0.1q0.1 0 0.1-0.1 0.2-0.1 0.2-0.1 0.2-0.3 0.3-0.4v-1.7q-0.1-0.2-0.3-0.4 0 0-0.1-0.1c-0.1 0-0.1-0.2-0.2-0.2 0 0-0.1 0-0.1-0.1z"/>
				<path id="Layer" class="s0" d="m134.9 24q0.2-0.2 0.2-0.2 0.6 0 1.1 0v6q0.1 0 0.1 0v0.6 0.2q0.1 0 0.2 0.2v0.1q0 0 0.2 0c0 0 0 0.1 0.1 0.1q0.1 0 0.1 0.1h0.3q0.1 0 0.1 0 0.6 0 1.2 0c0.1 0 0.3 0 0.3 0q0.1-0.1 0.2-0.1 0.1-0.1 0.4-0.4 0-0.1 0-0.1v-0.2q0.1 0 0.1 0 0-3.2 0-6.3 0.1-0.2 0.1-0.2 0.5 0 1.2 0v6.1q0 0-0.2 0.1v0.3q0 0.1 0 0.1v0.2c-0.1 0-0.1 0.2-0.1 0.2q-0.1 0.1-0.1 0.2c0 0.1-0.1 0.1-0.1 0.3-0.2 0.1-0.2 0.1-0.3 0.2q-0.1 0.1-0.2 0.1c0 0.1-0.2 0.3-0.2 0.3-0.1 0-0.1 0.1-0.2 0.1q-0.1 0-0.3 0.1-0.1 0-0.2 0.1h-0.1q0 0-0.2 0.2h-0.2q-0.1 0-0.1 0h-0.8q0 0-0.1 0h-0.4q0-0.2 0-0.2h-0.1c-0.1-0.1-0.4-0.1-0.5-0.2 0 0-0.1 0-0.2-0.1q0 0-0.1-0.2-0.3-0.2-0.5-0.4c0 0 0-0.2-0.2-0.3-0.1 0-0.1-0.1-0.1-0.2 0 0-0.1-0.2-0.1-0.3-0.1 0 0-0.1 0-0.2q-0.1-0.2-0.1-0.2v-0.5q0-0.1-0.2-0.1z"/>
				<path id="Layer" class="s0" d="m167.7 17.8q0.9 0 1.9 0 0 0 0 0.1 0 0.5 0 1c-0.4 0-3.2 0.1-5.2 0q0-0.4 0-1.1h2q0-3.1 0-6.2h-1.9q-0.1 0-0.1-0.1 0-0.5 0-1 0.1 0 0.1 0 2.6 0 5.1 0 0 0 0 0.1 0 0.5 0 0.9 0 0.1 0 0.1-1 0-1.9 0c0 2.1-0.1 4.1 0 6.2z"/>
				<path id="Layer" class="s0" d="m155.3 24q0 0.5 0 1c0 0-0.1 0-0.2 0q-0.7 0-1.6 0h-0.1q-0.2 0-0.2 0 0 3 0 6.1 0 0 0.2 0 1 0 1.8 0 0.1 0 0.1 0 0 0.2 0 0.2 0 0.4 0 0.9-0.1 0-0.1 0-2.5 0-5 0 0 0-0.2 0v-0.9q0-0.2 0-0.2 0.2 0 0.2 0 0.8 0 1.8 0 0 0 0.1 0v-6.1q-0.1 0-0.1 0-1 0-2 0v-0.2q0-0.5 0-0.8 0-0.2 0.2-0.2h5q0 0 0.1 0.2z"/>
				<path id="Layer" class="s0" d="m131.2 18.9h-1.2v-7.2q0 0 0-0.1-1.2 0-2.5 0-0.1 0-0.1 0v-1.1c0.4 0 3.2 0 6.4 0q0 0.1 0 0.1 0 0.5 0 0.9 0 0.1-0.1 0.1h-2.5q0 0.1 0 0.1z"/>
				<path id="Layer" class="s0" d="m145.9 32.2h-1.1q-0.1 0-0.1 0 0-0.1 0-0.1v-7.1q-1.2 0-2.6 0 0-0.2 0-0.2 0-0.5 0-0.8 0-0.2 0.1-0.2h6.3q0 0 0 0.2 0 0.5 0 1h-2.6q0 0.1 0 0.1z"/>
				<path id="Layer" class="s0" d="m129.5 31q0 0.1 0.1 0.1h4.1q0.1 0.2 0.1 0.2 0 0.4 0 0.9-0.1 0-0.1 0-2.7 0-5.3 0 0 0-0.1 0 0-0.1 0-0.1 0-4.1 0-8.3h1.1q0 0 0.1 0.2z"/>
			</g>
		</g>
	</g>
</svg>