<?xml version="1.0" encoding="UTF-8"?><svg id="CIRCLE_OUTLINE_BLACK" xmlns="http://www.w3.org/2000/svg" xmlns:xlink="http://www.w3.org/1999/xlink" viewBox="0 0 512 512"><defs><linearGradient id="Degradado_sin_nombre_42" x1="372.28487" y1="645.16092" x2="214.6369" y2="947.12018" gradientTransform="translate(0 -527.88983)" gradientUnits="userSpaceOnUse"><stop offset="0" stop-color="#00ffa3"/><stop offset="1" stop-color="#dc1fff"/></linearGradient><linearGradient id="Degradado_sin_nombre_42-2" x1="303.35861" y1="609.17566" x2="145.71064" y2="911.13494" xlink:href="#Degradado_sin_nombre_42"/><linearGradient id="Degradado_sin_nombre_42-3" x1="337.60095" y1="627.05299" x2="179.9529" y2="929.01231" xlink:href="#Degradado_sin_nombre_42"/></defs><circle cx="256" cy="256" r="256" fill="#100339"/><path d="m159.65268,314.8849c1.72241-1.72241,4.09072-2.72715,6.60257-2.72715h227.78875c4.16248,0,6.24375,5.0237,3.30129,7.96615l-44.99798,44.99797c-1.72241,1.72241-4.09073,2.72714-6.60258,2.72714H117.956c-4.16249,0-6.24374-5.0237-3.30129-7.96615l44.99797-44.99796Z" fill="url(#Degradado_sin_nombre_42)"/><path d="m159.65267,146.87814c1.79418-1.72241,4.16249-2.72715,6.60258-2.72715h227.78876c4.16248,0,6.24375,5.0237,3.30129,7.96615l-44.99798,44.99797c-1.72241,1.72241-4.09073,2.72715-6.60258,2.72715H117.95599c-4.16249,0-6.24374-5.0237-3.30129-7.96615l44.99797-44.99797Z" fill="url(#Degradado_sin_nombre_42-2)"/><path d="m352.34733,230.34327c-1.72241-1.72241-4.09073-2.72715-6.60258-2.72715H117.956c-4.16249,0-6.24374,5.0237-3.30129,7.96615l44.99797,44.99797c1.72241,1.72241,4.09072,2.72715,6.60257,2.72715h227.78875c4.16248,0,6.24375-5.0237,3.30129-7.96615l-44.99796-44.99796Z" fill="url(#Degradado_sin_nombre_42-3)"/></svg>