<?xml version="1.0" encoding="UTF-8"?><svg id="uuid-0d593331-f659-4541-8ecc-5f01fb79862f" xmlns="http://www.w3.org/2000/svg" width="21.16667cm" height="14.11111cm" viewBox="0 0 600 400"><path d="M382.70001,123.90003l.39999-2.7v-.4c-.10001.2-.20001.5-.39999.7l-1.60001,2.6-.70001-2.6c-.10001-.2-.10001-.5-.20001-.7v.4l-.39999,2.7h-.5l.70001-4h.60001l.70001,2.4c0,.2.10001.5.20001.7,0-.2.29999-.5.39999-.7l1.5-2.4h.60001l-.70001,4h-.60001ZM377.89999,120.30003l-.60001,3.6h-.5l.60001-3.6h-1.39999v-.4h3.20001v.4h-1.30002ZM314.5,131.50003h0ZM228.8,139.80003c1.2,1.10001,2.60001,1.89999,4.10001,2.39999,2,.7,4,1.3,6,1.8,1.3.3,2.39999.60001,3.2.89999.7.2,1.3.5,1.89999.89999.39999.2.7.5,1,.89999.2.3.2.7.2,1-.10001.89999-.60001,1.60001-1.39999,2-1.3.5-2.8.60001-4.2.60001s-1.89999-.10001-2.89999-.3-2.10001-.5-3-.89999c-1-.39999-1.89999-.8-2.8-1.3-.8-.39999-1.60001-.89999-2.3-1.5l-6.60001,8.7c2.2,1.5,4.60001,2.7,7.10001,3.39999,2.89999.89999,6,1.39999,9.10001,1.39999s4.5-.2,6.7-.7c1.89999-.39999,3.8-1.2,5.5-2.3,1.60001-1,3-2.39999,4-4,1.10001-1.8,1.8-3.8,2.09999-5.8.29999-1.60001.20001-3.3-.20001-4.8-.39999-1.3-1.10001-2.60001-2.10001-3.5-.60001-.5-1.2-1-1.8-1.3h-25.39999c.39999.8,1.10001,1.7,1.8,2.39999l.00002.00005ZM237.60001,130.50003c.10001-.7.5-1.39999,1.10001-1.8,1-.60001,2.2-.8,3.39999-.7,1.89999,0,3.8.3,5.60001,1,1.2.5,2.39999,1.10001,3.5,1.8.60001.39999,1.39999,1,1.39999,1l.8-1,5.8-7.6c-2-1.5-4.10001-2.7-6.5-3.4-2.8-.8-5.8-1.2-8.8-1.2s-4.5.3-6.60001.9c-1.89999.5-3.7,1.4-5.3,2.6-1.5,1.1-2.8,2.4-3.7,4-.89999,1.5-1.5,3.10001-1.8,4.8h11.10001v-.40001ZM269.70001,159.70003h11.10001l3.10001-22h-11.10001l-3.10001,22ZM285,129.40003h11.20001l1.29999-9.6h-33.39999l-1.29999,9.6h11.20001l-.29999,2h11.10001l.20001-2h-.00006ZM314.5,131.30003h0c0,.10001,9.89999.10001,9.89999.10001l-2.60001-11.7h-11.20001l-5.89999,11.7h9.79999l.00003-.10001ZM336.39999,159.70003h10.89999l1.79999-13.39999h4.5l4.60001,13.39999h12.39999l-5.79999-15.2c2.29999-.89999,4.29999-2.39999,5.89999-4.3.60001-.7,1.10001-1.60001,1.5-2.39999h-32.60001l-3.20001,21.89999h.00003ZM351.5,128.70003h6.70001c1.29999-.2,2.70001.3,3.60001,1.2.29999.39999.60001.89999.70001,1.5h11.10001c.20001-1.60001,0-3.2-.39999-4.7-.5-1.6-1.39999-3-2.60001-4-1.29999-1.1-2.89999-1.9-4.60001-2.3-2.10001-.5-4.20001-.7-6.29999-.7h-17.70001l-1.60001,11.7h10.89999l.20001-2.7h-.00003ZM325.79999,137.80003h-24.20001l-11.10001,21.89999h11.89999l3.20001-6.89999h12l1.20001,6.89999h12l-5-21.89999ZM316.10001,143.20003l.70001,6-4.29999-3.60001-5.70001,3.60001,3.10001-5.8-4.39999-3.5h6l.89999-1.89999h3l.29999,1.8h6l-5.60001,3.39999ZM314.5,133.10004l-2.29999,4.7h3l-.70001-4.7Z" fill="#606d7a" stroke-width="0"/><path d="M211.60001,220.10004c.60001.2,1.2.10001,1.7-.3.60001-.39999.89999-1.10001.89999-1.8-.2-.89999-.60001-1.7-1.2-2.39999l-.89999-1.3-3.60001,2.5,1.39999,1.7c.3.7.89999,1.3,1.7,1.60001h.00002Z" fill="#606d7a" stroke-width="0"/><path d="M344.10001,253.80003c-.20001-.7-.89999-1.2-1.60001-1.3-.89999,0-1.79999.2-2.70001.7l-1.5.60001,1.70001,3.99998,2.10001-.70001c.79999-.29999,1.60001-.79999,2.10001-1.5.20001-.5.20001-1.2-.10001-1.8v.00003Z" fill="#606d7a" stroke-width="0"/><path d="M352,254.40003l4-2.2-2.20001-1.8c-.79999-.7-1.79999-1.39999-2.60001-2.2.20001,1.10001.29999,2.2.39999,3.39999l.39999,2.8h.00003Z" fill="#606d7a" stroke-width="0"/><path d="M297.29999,264.60004l-1,2.60001h4.39999l-1-2.60001c-.39999-1-.79999-2.10001-1.20001-3.10001-.29999,1-.79999,2-1.20001,3.10001h.00003Z" fill="#606d7a" stroke-width="0"/><path d="M349.29999,56.30003c0-1.1.20001-2.2.29999-3.3l-2.5,2.3-2.10001,1.8,4.10001,2,.20001-2.8Z" fill="#606d7a" stroke-width="0"/><path d="M252.10001,57.00003c1,2.4,3.7,3.7,6.20001,2.7h.20001c2.39999-1,3.5-3.8,2.5-6.2h0s-.10001,0-.10001-.2c-.89999-2.5-3.60001-3.8-6.10001-2.9-2.5.9-3.8,3.6-2.89999,6.1,0,.2,0,.4.2.6h0l-.00002-.09999Z" fill="#606d7a" stroke-width="0"/><path d="M193.89999,114.50003c.8.7,1.7,1.5,2.5,2.3l2,1.9,1.60001-4.2s-6.10001,0-6.10001,0Z" fill="#606d7a" stroke-width="0"/><path d="M202,101.20003c-.7-.4-1.5-.3-2.10001,0-.7.6-1.3,1.3-1.60001,2.2l-.8,1.5,3.89999,2,1-1.9c.5-.7.7-1.6.60001-2.5,0-.6-.39999-1.1-1-1.4l.00002.10001Z" fill="#606d7a" stroke-width="0"/><path d="M251.3,249.30003l-1.39999-.7-2,3.89999,1.89999,1c.7.5,1.60001.7,2.5.60001.60001-.10001,1.10001-.5,1.39999-1.10001.39999-.7.3-1.39999-.10001-2.10001-.60001-.7-1.39999-1.3-2.3-1.60001l.00002.00002Z" fill="#606d7a" stroke-width="0"/><path d="M300,30.30003c-69,0-125,56-125,125s56,124.99998,125,124.99998,125-56,125-125-56-125-125-125h0ZM414.70001,139.70003l-1.5.3-.79999-4.2-10.89999,2-.29999-1.60001,10.89999-2-.70001-4.2,1.5-.3,1.79999,10ZM409.5,118.20003l-5.10001,7.1c-.70001,1-1.39999,2-2.20001,2.9,1-.3,2.20001-.7,3.39999-1.1l6-1.8.5,1.5-12,3.6-.5-1.5,5.20001-7.1c.70001-1,1.39999-2,2.20001-2.9-1,.3-2.29999.7-3.39999,1.1l-6.10001,1.8-.39999-1.5,12-3.6.39999,1.5ZM407.79999,113.30003l-1.39999.6-2.20001-5.2-3.5,1.5,1.89999,4.5-1.29999.6-1.89999-4.5-4,1.7,2.29999,5.2-1.39999.6-2.89999-6.8,11.60001-4.9,2.79999,6.7v.00002ZM394.79999,155.30003c0,52.3-42.39999,94.8-94.79999,94.8s-94.8-42.39999-94.8-94.8,42.40001-94.8,94.8-94.8h0c52.29999,0,94.70001,42.5,94.79999,94.8ZM398,93.90003l-3.29999,7.1,7.79999.7.79999,1.4-10.89999,6.3-.79999-1.4,6.20001-3.5c.89999-.5,1.70001-1,2.39999-1.3-1,0-2,0-3-.2l-4.79999-.4,2-4.5c.39999-.9.89999-1.8,1.29999-2.7-.60001.4-1.5.9-2.39999,1.4l-6.10001,3.6-.79999-1.4,10.89999-6.3.70001,1.2h-.00003ZM392.39999,85.60003c.10001.2.20001.3.29999.5.79999,1,1.29999,2.2,1.39999,3.5l-1.39999,1c0-1.3-.5-2.6-1.20001-3.6-.89999-1.1-1.89999-1.5-3-.8s-.60001,2.3,0,3.8c.70001,1.8,1.20001,3.6-.70001,5.1-1.60001,1.2-3.89999,1-5.10001-.6-.10001-.2-.29999-.4-.39999-.5-.79999-1.1-1.29999-2.3-1.5-3.6l1.5-1c0,1.4.39999,2.7,1.20001,3.8.89999,1.2,2.10001,1.6,3.20001.8s.60001-2.3,0-3.9-1.10001-3.5.70001-4.9c1.70001-1.4,3.89999-1.1,5,.4h0ZM385.70001,77.40003c.10001,0,.10001.2.20001.3.89999.9,1.5,2.1,1.79999,3.3l-1.29999,1.2c-.20001-1.3-.70001-2.5-1.60001-3.5-.89999-1.1-2.10001-1.4-3-.5s-.39999,2.3.29999,3.6c.79999,1.7,1.5,3.5-.29999,5.2-1.5,1.3-3.79999,1.2-5.10001-.3-.10001,0-.20001-.3-.29999-.4-.89999-1-1.5-2.2-1.79999-3.5l1.20001-1.1c.10001,1.3.70001,2.6,1.60001,3.6,1,1.1,2.20001,1.4,3.20001.5s.39999-2.4-.29999-3.9-1.39999-3.4.29999-5c1.5-1.2,3.79999-1,5.10001.5h-.00006ZM381.10001,72.90003l-1,1.1-4.10001-3.8-2.60001,2.8,3.60001,3.3-1,1.1-3.60001-3.3-2.89999,3.2,4.20001,3.9-1,1.1-5.5-5,8.60001-9.3s5.29999,4.9,5.29999,4.90001ZM364.70001,63.50003c1.20001-1.6,3.39999-1.9,5-.7.10001,0,.29999.2.39999.4,1,.8,1.79999,1.8,2.29999,3l-1,1.4c-.39999-1.2-1.20001-2.3-2.20001-3.1-1.10001-.9-2.29999-1-3.10001,0s0,2.3,1,3.6,2.10001,3.2.70001,5.1c-1.20001,1.6-3.5,1.9-5.10001.7-.10001,0-.20001-.2-.39999-.3-1.10001-.8-1.89999-1.8-2.5-3l1.10001-1.4c.39999,1.3,1.20001,2.4,2.29999,3.3,1.20001.9,2.39999,1,3.29999,0s0-2.4-1.10001-3.8-2.10001-3.3-.70001-5.1l.00006-.09999ZM352.5,63.60003c.5,1.3,1.39999,2.4,2.60001,3.1,1.29999.8,2.5.8,3.29999-.4s-.29999-2.4-1.39999-3.6-2.29999-2.9-1.10001-4.8c1-1.7,3.20001-2.2,4.79999-1.2.20001,0,.29999.2.5.3,1.10001.7,2,1.6,2.60001,2.7l-.89999,1.5c-.5-1.2-1.39999-2.2-2.5-2.9-1.20001-.7-2.39999-.7-3,.3s.29999,2.3,1.29999,3.5,2.39999,3,1.20001,5c-1.10001,1.7-3.29999,2.3-5,1.2-.20001,0-.29999-.2-.5-.3-1.10001-.7-2.10001-1.7-2.70001-2.8l.79999-1.6.00003.00002ZM351.10001,51.60003l-.79999,13.6-1.60001-.8.29999-3.8-5.10001-2.5-2.79999,2.5-1.5-.7,10.10001-9.1s1.39999.8,1.39999.8ZM337.79999,52.00003l3.89999,1.5-.5,1.3-3.89999-1.5.5-1.3ZM330.20001,43.70003l7.10001,2.2-.39999,1.4-5.5-1.7-1.20001,3.9,4.89999,1.5-.39999,1.4-4.89999-1.5-1.79999,5.3-1.5-.4,3.70001-12.1h-.00003ZM319.89999,41.40003l1.60001.3-2.20001,10.9,5.79999,1.2-.29999,1.5-7.5-1.5,2.60001-12.4ZM309.29999,40.10003l7.29999.8-.20001,1.5-5.60001-.6-.39999,3.8,4.89999.5-.20001,1.4-4.89999-.5-.39999,4.3,5.70001.6-.20001,1.5-7.39999-.8,1.39999-12.5h.00003ZM301.89999,39.50003c1.29999,0,2.5.3,3.60001,1v1.8c-1.10001-.8-2.29999-1.2-3.60001-1.2s-2.39999.6-2.39999,1.8,1.39999,1.8,3,2.3c1.79999.5,3.60001,1.3,3.60001,3.6s-1.70001,3.6-4.29999,3.6-2.60001-.4-3.79999-1.1v-1.8c1,.8,2.29999,1.3,3.70001,1.3s2.60001-.6,2.60001-2-1.5-1.8-3.10001-2.4-3.5-1.3-3.39999-3.6,1.70001-3.3,4.10001-3.3h-.00006ZM291.20001,51.80003h0c0,.6-.5,1.2-1.10001,1.2s-1.20001-.5-1.20001-1.1.39999-1.1,1-1.2h.10001c.5,0,1.10001.5,1.20001,1.1h0ZM289.29999,44.10003c.60001,0,1.20001.4,1.20001,1,.10001.6-.39999,1.2-1,1.2s-1.20001-.4-1.20001-1h0c0-.6.39999-1.1,1-1.2ZM284.60001,40.70003l.29999,1.5-5.5.9.60001,3.8,4.89999-.8.20001,1.4-4.79999.8.70001,4.3,5.70001-.9.29999,1.5-7.29999,1.2-2.20001-12.4,7.10001-1.3h-.00003ZM264.79999,45.20003l7,5.2c1,.7,1.89999,1.5,2.89999,2.2-.29999-1-.70001-2.3-1-3.4l-1.70001-6.1,1.5-.4,3.39999,12.1-1.5.4-7-5.3c-.89999-.7-1.89999-1.5-2.89999-2.2l1,3.4,1.79999,6.1-1.60001.4-3.39999-12.1,1.5-.3h.00003ZM253.89999,49.10003c3.20001-1.4,6.89999,0,8.39999,3.2,0,0,.10001,0,.10001.2,1.39999,3.3-.20001,7-3.39999,8.4s-7-.2-8.39999-3.4c-1.39999-3.3,0-7,3.3-8.4h-.00002ZM236.8,58.60003l5.89999,9.4,5-3.2.8,1.3-6.39999,4.1-6.7-10.6s1.39999-1,1.39999-1.00001ZM232.60001,61.30003l.89999,1.2-4.39999,3.4,2.3,3,3.89999-3,.89999,1.1-3.89999,3,2.60001,3.4,4.60001-3.5.89999,1.2-5.89999,4.7-7.7-10.1,5.8-4.4h-.00002ZM217.7,74.10003l6.8,3.3c1.10001.5,2.10001,1,3.2,1.6-.5-1.1-.89999-2.2-1.39999-3.3l-2.8-7,1.2-1.2,5.10001,12.5-1.2,1.2-12.2-5.8,1.3-1.3h-.00002ZM215.10001,76.90003l1.10001,1-3.60001,4.3,2.89999,2.5,3.2-3.6,1.10001.9-3.2,3.6,3.3,2.8,3.8-4.4,1.10001,1-4.89999,5.6-9.5-8.2,4.7-5.5h-.00002ZM205,89.50003l9.10001,6.5,3.5-4.8,1.2.9-4.39999,6.2-10.39999-7.4,1-1.4h-.00002ZM197.10001,102.70003c.5-1.1,1.2-2.1,2.2-2.8,1-.7,2.3-.8,3.39999-.2,1.10001.5,1.8,1.6,1.8,2.8s0,1-.2,1.5l6.8-1-.89999,1.8-6.60001.9-1,1.8,4.8,2.5-.8,1.5-11.10001-5.8s1.60001-3,1.60001-3.00001ZM192.39999,113.10003l13.60001-.3-.60001,1.7h-3.8l-2,5.3,2.8,2.7-.60001,1.6-9.89999-9.4s.5-1.6.5-1.59999ZM190,119.40003l1.39999.4-1.10001,4.1,10.7,3.1-.39999,1.60001-10.7-3.1-1.10001,4.1-1.39999-.39999s2.60001-9.8,2.60001-9.80001ZM185.8,135.90003c0-.2.10001-.39999.10001-.60001.2-1.3.7-2.39999,1.5-3.39999l1.7.3c-.89999.89999-1.60001,2.10001-1.8,3.39999-.2,1.39999.2,2.5,1.5,2.7,1.5.3,2.10001-1.10001,2.8-2.60001s1.8-3.39999,4.2-2.89999c2,.3,3.3,2.2,3,4.2,0,.2-.10001.39999-.10001.60001-.2,1.3-.8,2.5-1.60001,3.60001l-1.7-.3c1-.89999,1.7-2.2,1.89999-3.5.3-1.5-.2-2.60001-1.60001-2.89999s-2.10001,1.10001-2.89999,2.7-1.8,3.2-4.10001,2.8c-1.89999-.39999-3.2-2.2-2.89999-4.10001h.00002ZM185.39999,179.10004c0-.2-.10001-.39999-.10001-.60001-.3-1.3-.2-2.7.2-3.89999l1.8-.3c-.60001,1.2-.8,2.60001-.5,4,.3,1.5,1.2,2.39999,2.5,2.10001s1.60001-1.8,1.7-3.5.5-3.60001,2.8-4.10001,3.8.89999,4.2,3.3c.3,1.2.2,2.5-.2,3.60001l-1.7.3c.5-1.2.60001-2.5.39999-3.8-.3-1.39999-1.10001-2.2-2.3-2s-1.5,1.8-1.60001,3.39999c-.2,1.8-.5,3.8-2.89999,4.3-2,.39999-3.89999-.89999-4.3-2.8h.00002ZM189.2,192.50003l-2.10001-7.10001,12-3.39999,2.10001,6.89999-1.39999.39999-1.60001-5.5-3.60001,1.10001,1.39999,4.7-1.39999.39999-1.39999-4.7-4.2,1.2,1.7,5.5-1.5.5v.00002ZM196.3,194.10004c-2.5.89999-3.7,3.7-2.8,6.2h0c0,.10001.10001.2.10001.3.5,1.2,1.39999,2.2,2.60001,2.8l-1.7.7c-1-.8-1.8-1.89999-2.3-3.10001-1.5-3.2-.10001-6.89999,3-8.39999.10001-.10001.3-.10001.39999-.2,3.2-1.39999,7,.10001,8.39999,3.3h0c0,.10001.10001.2.10001.3.5,1.2.7,2.39999.5,3.60001l-1.7.7c.3-1.2.2-2.60001-.3-3.8-1-2.5-3.7-3.7-6.2-2.7,0,.2,0,.3-.10001.3h0v-.00002ZM197.39999,211.80003c-.89999-1.39999-1-3.10001-.3-4.60001.8-1.2,1.89999-2.10001,3.3-2.7l5.8-3.2.8,1.39999-5.7,3.10001c-1,.39999-1.89999,1.10001-2.60001,2-.89999,1.8-.10001,4,1.7,4.8.39999.2.8.3,1.2.3,1.10001-.10001,2.10001-.5,3-1.10001l5.7-3.2.8,1.39999-5.60001,3.10001c-1.2.89999-2.7,1.3-4.2,1.39999-1.7-.2-3.2-1.2-3.89999-2.7h0ZM206.5,225.50003l2.2-6.2-1.2-1.8-4.39999,3.10001-.89999-1.3,10.3-7.2,2,2.8c.8.89999,1.3,2,1.5,3.2s-.39999,2.39999-1.39999,3.10001c-1,.7-2.2.89999-3.39999.39999-.5-.2-.89999-.5-1.3-.89999l-2.2,6.5-1.2-1.7-.00003-.00002ZM210.2,230.10004l-1-1.3,9.7-8,1.10001,1.3-9.8,8ZM214.7,235.20003l8-7.60001-2.89999-3.10001,1.10001-1,7,7.3-1.10001,1-2.89999-3.10001-8.10001,7.60001-1.10001-1.10001v.00002ZM224.8,244.70003l-1.3-1.10001,3.60001-4.2.8-8.39999,1.5,1.3-.39999,3.60001c-.10001.89999-.2,1.8-.3,2.89999l2.8-.8,3.60001-.89999,1.39999,1.2-8.10001,2.10001-3.60001,4.3v-.00002ZM236.10001,253.20003l6-9.3-3.60001-2.3.8-1.3,8.5,5.5-.8,1.3-3.60001-2.3-6,9.3-1.3-.89999h.00002ZM255.2,253.50003c-.5,1.10001-1.60001,1.8-2.8,1.8s-1,0-1.5-.2l1.10001,6.79999-1.8-.89999-1-6.60001-1.89999-1-2.39999,4.79999-1.5-.70001,5.8-11.10001,3,1.5c1.10001.5,2.10001,1.2,2.8,2.2s.8,2.39999.2,3.39999h0l-.00002.00005ZM263.60001,264.60004c-2.60001,1.5-5.89999.70001-7.5-1.89999-.2-.29999-.3-.60001-.5-1-.2-1.5,0-2.89999.70001-4.29999l2.29999-6.2,1.5.60001-2.29999,6.09999c-.5,1-.70001,2.10001-.70001,3.20001.20001,1.20001,1.10001,2.20001,2.29999,2.5,1.10001.5,2.39999.39999,3.29999-.39999.70001-.79999,1.29999-1.79999,1.5-2.79999l2.29999-6.10001,1.5.5-2.29999,6.10001c-.20001,1.39999-1,2.70001-2.10001,3.70001h0l.00003-.00006ZM276.70001,259.60004c-.89999-1-2-1.70001-3.29999-2-1.39999-.39999-2.5,0-2.79999,1.20001-.39999,1.5.89999,2.10001,2.29999,2.89999s3.20001,2.10001,2.60001,4.39999c-.5,2-2.5,3.10001-4.39999,2.70001-.20001,0-.39999-.10001-.60001-.20001-1.29999-.29999-2.5-.89999-3.39999-1.79999l.5-1.79999c.89999,1.10001,2,1.89999,3.39999,2.20001,1.5.39999,2.60001,0,3-1.29999.29999-1.29999-.89999-2.29999-2.39999-3.10001s-3.10001-2.10001-2.5-4.29999c.5-1.89999,2.39999-3,4.29999-2.60001.20001,0,.39999.10001.5.20001,1.20001.29999,2.39999.89999,3.29999,1.79999l-.5,1.70001v-.00006ZM288.29999,260.60004l-4.20001-.70001-1.79999,10.89999-1.60001-.29999,1.89999-11-4.20001-.70001.20001-1.5,10,1.60001-.29999,1.70001ZM302.60001,272.30002l-1.29999-3.5h-5.70001c0-.10001-1.5,3.39999-1.5,3.39999h-1.70001l5.39999-12.60001h1.60001l5,12.79999h-1.79999v-.09998ZM310.39999,272.00003c-1.29999.10001-2.70001-.10001-3.89999-.70001l-.20001-1.89999c1.20001.70001,2.5,1.10001,3.89999.89999,1.5-.10001,2.5-.89999,2.39999-2.29999s-1.60001-1.79999-3.29999-2.10001-3.60001-.89999-3.79999-3.20001c-.10001-2.29999,1.29999-3.60001,3.79999-3.89999,1.20001-.10001,2.5.10001,3.60001.60001v1.79999c-1-.60001-2.29999-.89999-3.5-.79999-1.39999.10001-2.29999.79999-2.20001,2.10001.10001,1.60001,1.60001,1.70001,3.20001,2,1.79999.39999,3.60001.89999,3.89999,3.29999.29999,2.60001-1.39999,4-3.89999,4.20001h0ZM320.79999,270.50003c-1.29999.20001-2.60001.10001-3.89999-.29999l-.29999-1.70001c1.20001.60001,2.60001.79999,4,.60001,1.5-.29999,2.39999-1.10001,2.20001-2.5-.29999-1.39999-1.79999-1.60001-3.5-1.79999-1.70001-.20001-3.60001-.60001-4.10001-2.79999-.39999-2.29999,1-3.60001,3.39999-4.20001,1.20001-.20001,2.5-.10001,3.60001.29999l.29999,1.70001c-1.20001-.5-2.5-.70001-3.79999-.5-1.39999.20001-2.29999,1-2,2.29999.29999,1.5,1.79999,1.5,3.39999,1.70001,1.79999.20001,3.79999.60001,4.20001,3,.5,2.20001-1,3.70001-3.5,4.20001h0l-.00003-.00003ZM336.39999,264.60004c-1.29999,2.79999-4.60001,4.10001-7.39999,2.79999-.29999-.10001-.5-.29999-.79999-.39999-1-1-1.70001-2.29999-2-3.79999h0l-1.79999-6.39999,1.60001-.5,1.79999,6.20001c.20001,1.10001.70001,2.10001,1.39999,3,.89999.79999,2.20001,1.10001,3.29999.60001,1.20001-.20001,2.10001-1.10001,2.39999-2.29999.10001-1.10001,0-2.20001-.39999-3.20001l-1.79999-6.3,1.5-.5,1.79999,6.2c.60001,1.60001.70001,3.20001.39999,4.60001h0v-.00003ZM348.20001,262.00003l-5.60001-3.5-2,.79999,2.10001,4.89999-1.5.60001-4.79999-11.60001,3.20001-1.3c1.10001-.5,2.29999-.8,3.5-.8,1.20001.10001,2.29999.89999,2.70001,2,.5,1.10001.39999,2.39999-.29999,3.39999-.29999.39999-.70001.79999-1.10001,1l5.79999,3.60001-2,.89999-.00003.00003ZM360.10001,255.70003l-2.89999-2.39999-5,2.7.39999,3.79999-1.5.79999-1.5-13.5,1.39999-.8,10.60001,8.5-1.5.89999v.00003ZM371.20001,248.10004l-8.39999-2.60001c-1.10001-.39999-2.29999-.7-3.5-1.10001.70001.89999,1.39999,1.8,2.10001,2.89999l3.60001,5.10001-1.29999.89999-7.29999-10.2,1.29999-.89999,8.29999,2.60001c1.20001.3,2.29999.7,3.5,1.10001-.60001-.89999-1.39999-1.8-2.10001-2.89999l-3.60001-5.10001,1.29999-.89999,7.29999,10.2-1.20001.89999h.00003ZM379.89999,240.90003c-2.60001,2.39999-6.70001,2.2-9.10001-.39999-2.39999-2.60001-2.20001-6.7.39999-9.10001h0c.89999-.89999,2-1.5,3.20001-1.8l1.20001,1.3c-1.29999.10001-2.5.7-3.39999,1.5-2,1.89999-2.10001,5-.29999,7s5,2.10001,7,.3h0c1-.89999,1.60001-2.10001,1.79999-3.39999l1.20001,1.3c-.29999,1.39999-1,2.5-2,3.3h0l-.00003-.00002ZM384.70001,235.80003l-9.39999-8.3,4.89999-5.5,1.10001,1-3.79999,4.2,2.79999,2.60001,3.29999-3.60001,1.10001,1-3.29999,3.60001,3.20001,2.89999,3.79999-4.3,1.10001,1-4.79999,5.39999-.00003.00002ZM399.5,216.80003l-2.10001.39999c.5,1.39999.20001,2.89999-.70001,4-1,1.7-3.29999,2.3-5,1.2-1.20001-.7-1.79999-2-1.79999-3.3v-.5h-.5c-1,.3-2,.10001-2.89999-.39999-1.39999-1-1.79999-3.10001-.70001-4.5,1-1.39999,2.89999-1.8,4.39999-.8.89999.7,1.39999,1.8,1.29999,3v.89999l3.39999-.7-2.29999-2.8.89999-1.2,3,3.8,4-.8-1,1.7.00003.00002ZM407.10001,202.30003l-6.5,1.10001-.89999,1.89999,4.89999,2.3-.70001,1.5-11.39999-5.39999,1.5-3.10001c.39999-1.10001,1.10001-2.10001,2.10001-2.89999,1-.8,2.29999-.89999,3.39999-.3,1.10001.5,1.89999,1.5,2,2.7.10001.5,0,1-.10001,1.5l6.70001-1.3-1,2ZM408.70001,198.30003l-11.70001-4.60001.60001-1.5,11.70001,4.60001-.60001,1.5ZM412,189.70003c-.10001.2-.10001.39999-.20001.5-.39999,1.3-1.10001,2.39999-2.10001,3.3l-1.70001-.5c1.10001-.8,1.89999-1.89999,2.39999-3.2.39999-1.39999.10001-2.60001-1.20001-3.10001s-2.29999.89999-3.20001,2.3-2.20001,3-4.39999,2.3c-1.89999-.60001-2.89999-2.5-2.29999-4.39999.10001-.2.10001-.3.20001-.5.39999-1.2,1-2.3,2-3.2l1.70001.5c-1,.8-1.79999,1.89999-2.20001,3.2-.39999,1.3-.10001,2.5,1.10001,2.8s2.20001-.89999,3-2.2,2.29999-3.10001,4.60001-2.39999c1.79999.60001,2.79999,2.7,2.29999,4.60001h0l.00003-.00003ZM413.89999,181.60004l-.29999,1.60001-12.29999-2.5.29999-1.60001,5.60001,1.2-4.39999-6.60001.39999-2,4.60001,6.7,7.79999-4.60001-.39999,2.10001-7.60001,4.39999,6.29999,1.3v.00002Z" fill="#606d7a" stroke-width="0"/><path d="M389.39999,214.40003c-.70001-.5-1.70001-.3-2.10001.39999h-.10001c-.5.8-.39999,1.7.29999,2.2h0s.10001,0,.10001.10001c.5.3,1.20001.39999,1.79999.3h.89999v-1.10001c0-.8-.39999-1.5-.89999-1.89999h.00003Z" fill="#606d7a" stroke-width="0"/><path d="M398.79999,199.00003c-.70001-.39999-1.5-.3-2.10001.2-.70001.60001-1.20001,1.39999-1.5,2.3l-.70001,1.5,3.89999,1.8.89999-1.89999c.39999-.7.60001-1.60001.5-2.5,0-.60001-.39999-1.10001-1-1.39999l.00003-.00002Z" fill="#606d7a" stroke-width="0"/><path d="M391.5,218.40003v.8c-.29999,1.2.29999,2.39999,1.5,2.7s2.39999-.3,2.70001-1.5c.60001-.8.60001-2,.10001-2.89999l-4.29999.89999h-.00003Z" fill="#606d7a" stroke-width="0"/><path d="M223,169.10004h2.7v18.2h9.8v2.5h-12.5v-20.7ZM239,169.10004h12v2.5h-9.3v6.39999h8.10001v2.39999h-8.10001v7.10001h9.5v2.5h-12.2v-20.89999ZM252.89999,169.10004h2.89999l4.39999,11.60001,2,5.5c.70001-1.8,1.39999-3.60001,2.10001-5.60001l4.39999-11.60001h2.79999l-7.89999,20.8h-2.79999l-7.89999-20.7ZM274.39999,169.10004h12v2.5h-9.39999v6.39999h8.10001v2.39999h-8.10001v7.10001h9.5v2.5h-12.20001v-20.89999h.10001ZM290.39999,169.10004h2.70001v18.2h9.79999v2.5h-12.5v-20.7ZM323,168.80003c5.89999-.10001,10.79999,4.60001,10.79999,10.5s-4.60001,10.8-10.5,10.8c-5.89999.10001-10.79999-4.60001-10.79999-10.5h0c-.20001-5.89999,4.39999-10.60001,10.10001-10.8h.39999ZM323,187.70003c4.5.2,8.29999-3.3,8.5-7.8s-3.29999-8.3-7.79999-8.5-8.29999,3.3-8.5,7.8h0v.39999c-.20001,4.3,3.20001,8,7.60001,8.10001h.20001-.00003ZM337.29999,189.80003v-20.8h2.60001l8.70001,11.5c1.20001,1.60001,2.39999,3.2,3.60001,4.8v-16.39999h2.60001v20.8h-2.70001l-8.70001-11.5c-1.20001-1.60001-2.39999-3.2-3.60001-4.8v16.3h-2.5v.09999ZM359.70001,169.10004h12.10001v2.5h-9.29999v6.39999h8.10001v2.39999h-8.10001v7.10001h9.5v2.5h-12.20001v-20.89999h-.10001Z" fill="#606d7a" stroke-width="0"/><path d="M63.4,343.80002c-1.1-1.79999-2.5-3.39999-4.2-4.60001-1.7-1.10001-3.4-2-5.3-2.70001-1.8-.70001-3.5-1.20001-5-1.60001l-10.1-2.70001c-1.2-.29999-2.4-.70001-3.6-1.20001-1.1-.39999-2.1-1.10001-2.9-1.89999s-1.2-2-1.2-3.10001c0-1.39999.5-2.70001,1.4-3.60001,1-1.10001,2.3-1.79999,3.7-2.29999,1.6-.5,3.2-.79999,4.9-.70001,1.7.10001,3.4.39999,5,1.10001,1.5.60001,3,1.60001,4.1,2.89999,1.2,1.39999,2,3,2.4,4.79999l11.9-2c-.8-3.39999-2.4-6.5-4.6-9.20001-2.1-2.60001-4.8-4.5-7.9-5.79999-3.4-1.39999-7-2.10001-10.7-2.10001s-7.4.60001-10.9,1.89999c-3.1,1.20001-5.9,3.20001-7.9,5.79999-2,2.79999-3,6.20001-2.9,9.70001,0,2.39999.4,4.70001,1.4,6.89999.8,1.70001,2,3.20001,3.5,4.39999,1.3,1,2.7,1.89999,4.3,2.5,1.5.60001,2.8,1.10001,3.9,1.39999l15.1,4.39999c1,.29999,1.9.70001,2.8,1.20001.6.39999,1.2.79999,1.7,1.39999.4.5.7,1,.9,1.60001.2.5.3,1.10001.3,1.70001,0,1.5-.5,3-1.6,4.10001-1.2,1.20001-2.6,2-4.2,2.5-1.6.5-3.4.79999-5.2.79999-3.1,0-6.1-.89999-8.6-2.70001-2.6-1.79999-4.3-4.60001-5-7.70001l-11.5,1.70001c.5,3.70001,1.9,7.20001,4.2,10.20001,2.2,2.79999,5.2,5.10001,8.5,6.5,3.6,1.60001,7.6,2.39999,11.6,2.29999,2.9,0,5.8-.39999,8.5-1.20001,2.7-.70001,5.2-1.79999,7.5-3.39999,2.2-1.5,4-3.5,5.3-5.79999,1.4-2.5,2.1-5.39999,2-8.20001,0-2.60001-.4-5.10001-1.6-7.29999l-.00002.00009Z" fill="#606d7a" stroke-width="0"/><path d="M87.3,312.80002h-11v12h-7.3v8.5h7.3v16.70001c0,2.60001,0,4.89999.1,7,0,2.20001.7,4.20001,1.7,6.10001,1.2,2.10001,3,3.70001,5.2,4.60001,2.5,1,5.1,1.5,7.8,1.5,3,0,6-.10001,8.9-.70001v-9c-2.5.29999-4.8.39999-7.2.29999-1.8,0-3.6-.89999-4.6-2.5-.5-1-.8-2.20001-.8-3.29999-.1-1.39999-.1-2.89999-.1-4.60001v-16.10001h12.7v-8.5h-12.7v-12Z" fill="#606d7a" stroke-width="0"/><path d="M144.5,331.80002c-1.39999-2.79999-3.89999-5-6.8-6.10001-3.3-1.29999-6.8-1.89999-10.3-1.79999-5.2,0-9.4,1.10001-12.4,3.39999-3,2.20001-5.1,5.29999-6.2,8.79999l9.9,3.10001c.6-1.89999,1.9-3.39999,3.7-4.20001,1.5-.79999,3.3-1.20001,5-1.20001,2.89999,0,5,.60001,6.2,1.79999,1,.89999,1.60001,2.29999,1.8,4.10001-1.8.29999-3.60001.5-5.2.79999-2.8.39999-5.4.79999-7.6,1.29999-2,.39999-3.9.89999-5.8,1.60001-2.1.70001-4,1.79999-5.6,3.20001-1.3,1.20001-2.4,2.70001-3,4.39999s-.9,3.60001-.9,5.5.6,4.60001,1.7,6.60001,2.8,3.70001,4.9,4.79999c2.4,1.29999,5.1,1.89999,7.9,1.79999,3.3,0,6.49999-.60001,9.3-1.79999,2.10001-1.20001,4-2.79999,5.5-4.60001v5.29999h9.60001v-26.60001c0-2,0-3.79999-.2-5.39999-.2-1.70001-.7-3.29999-1.5-4.79999v.00006ZM134.3,355.20004c-.5.79999-1,1.60001-1.7,2.29999-.89999,1-2.10001,1.79999-3.3,2.39999-1.6.79999-3.3,1.20001-5.1,1.10001-1.1,0-2.2-.10001-3.5-.39999-.8-.29999-1.6-.89999-2.1-1.60001-.5-.79999-.7-1.70001-.7-2.60001s.2-1.39999.5-2c.4-.60001.9-1.20001,1.5-1.60001.8-.60001,1.7-1.10001,2.6-1.39999,1.1-.39999,2.2-.70001,3.3-1,1.3-.29999,2.9-.60001,4.9-1,1.3-.29999,2.89999-.60001,4.7-.89999v2.60001c0,1.39999-.39999,2.79999-1,4.10001h-.10001Z" fill="#606d7a" stroke-width="0"/><path d="M178.39999,324.80002c-1.3,0-2.5.29999-3.8.70001-1.2.29999-2.3.79999-3.39999,1.5-1.39999.79999-2.60001,1.89999-3.5,3.10001-.39999.5-.8,1.10001-1.2,1.70001v-6.89999h-9.7v43.60001h11.10001v-22.29999c0-1.5.2-3,.7-4.5.89999-2.60001,2.8-4.70001,5.3-5.79999,1.3-.60001,2.8-1,4.3-1.10001,1.39999-.10001,2.8,0,4.2.39999v-10.29999c-1.39999-.20001-2.7-.20001-4,0l-.00002-.10007Z" fill="#606d7a" stroke-width="0"/><polygon points="218 310.40003 207 310.40003 207 368.50003 207 368.60004 243 368.60004 243 358.30002 218 358.30002 218 310.40003" fill="#606d7a" stroke-width="0"/><path d="M281.20001,326.90003c-3.5-2.20001-7.60001-3.29999-11.70001-3.20001-4-.10001-7.89999.89999-11.39999,2.89999-3.3,1.89999-6,4.79999-7.8,8.20001-1.89999,3.79999-2.89999,8.10001-2.8,12.39999-.10001,4,.89999,8.10001,2.89999,11.60001,1.89999,3.39999,4.7,6.10001,8,8,3.60001,2,7.70001,3,11.79999,2.89999,4.10001,0,8.10001-1.10001,11.5-3.29999,3.5-2.20001,6.29999-5.5,7.79999-9.29999l-11-3.10001c-.70001,1.70001-1.89999,3.10001-3.5,4.10001s-3.60001,1.5-5.5,1.39999c-3.39999,0-6-1.10001-7.79999-3.29999-1.29999-1.60001-2.10001-3.79999-2.39999-6.5h30.60001c.5-4.70001,0-9.39999-1.60001-13.79999-1.39999-3.70001-3.79999-6.89999-7.10001-9.10001l.00003.09998ZM270,333.30002c3.20001,0,5.5.89999,6.89999,2.89999.89999,1.29999,1.5,3,1.79999,5.29999h-19.10001c.39999-1.89999,1.10001-3.5,2.10001-4.79999,1.79999-2.29999,4.60001-3.39999,8.29999-3.39999h.00003Z" fill="#606d7a" stroke-width="0"/><polygon points="314.70001 355.10004 304.39999 324.90003 293.39999 324.90003 309.20001 368.50003 320.20001 368.50003 336 324.90003 325 324.90003 314.70001 355.10004" fill="#606d7a" stroke-width="0"/><path d="M372.89999,326.90003c-3.5-2.20001-7.60001-3.29999-11.70001-3.20001-4-.10001-7.89999.89999-11.39999,2.89999-3.29999,1.89999-6,4.79999-7.79999,8.20001-1.89999,3.79999-2.89999,8.10001-2.79999,12.39999,0,4,.89999,8.10001,2.89999,11.60001,1.89999,3.39999,4.70001,6.10001,8,8,3.60001,2,7.70001,3,11.79999,2.89999,4.10001,0,8.20001-1.10001,11.5-3.29999,3.5-2.20001,6.29999-5.5,7.79999-9.29999l-11-3.10001c-.70001,1.70001-1.89999,3.10001-3.5,4.10001s-3.60001,1.5-5.5,1.39999c-3.39999,0-6-1.10001-7.79999-3.29999-1.29999-1.60001-2.10001-3.79999-2.39999-6.5h30.60001c.5-4.70001,0-9.39999-1.60001-13.79999-1.39999-3.70001-3.79999-6.89999-7.10001-9.10001v.09998ZM361.70001,333.30002c3.20001,0,5.5.89999,6.89999,2.89999.89999,1.29999,1.5,3,1.79999,5.29999h-19.10001c.39999-1.89999,1.10001-3.5,2.10001-4.79999,1.79999-2.29999,4.60001-3.39999,8.29999-3.39999h.00003Z" fill="#606d7a" stroke-width="0"/><rect x="391.60001" y="309.10004" width="11" height="59.39999" fill="#606d7a" stroke-width="0"/><path d="M470.79999,313.00003c-9.39999-5.10001-20.70001-5.10001-30.10001,0-4.20001,2.5-7.60001,6.20001-9.70001,10.60001-4.5,10.10001-4.5,21.60001,0,31.70001,2.10001,4.39999,5.5,8.10001,9.70001,10.60001,4.5,2.60001,9.70001,3.89999,15,3.79999,5.29999,0,10.5-1.20001,15.10001-3.79999,4.20001-2.5,7.60001-6.20001,9.70001-10.60001,4.5-10.10001,4.5-21.60001,0-31.70001-2.10001-4.39999-5.5-8.10001-9.70001-10.60001ZM470.39999,349.90003c-1.10001,2.89999-3,5.29999-5.5,7-2.70001,1.70001-6,2.60001-9.20001,2.39999-3.20001,0-6.39999-.79999-9.20001-2.5-2.5-1.70001-4.39999-4.10001-5.5-6.89999-1.29999-3.29999-1.89999-6.89999-1.79999-10.5,0-3.60001.5-7.20001,1.79999-10.60001,1.10001-2.89999,3-5.29999,5.5-7,2.70001-1.70001,6-2.60001,9.20001-2.39999,3.20001,0,6.39999.79999,9.20001,2.5,2.5,1.70001,4.39999,4.10001,5.5,6.89999,1.29999,3.29999,1.89999,6.89999,1.79999,10.5.10001,3.60001-.5,7.20001-1.79999,10.60001Z" fill="#606d7a" stroke-width="0"/><path d="M531.79999,335.10004c-.59998-2-1.40002-3.89999-2.59998-5.60001-1.29999-1.89999-3-3.39999-5-4.39999-2.59998-1.20001-5.5-1.79999-8.40002-1.70001-3.70001-.10001-7.39999.79999-10.60001,2.79999-1.29999.89999-2.5,1.89999-3.5,3.10001v-4.39999h-9.79999v43.60001h11.20001v-22.29999h0c-.10001-2.20001.20001-4.39999.89999-6.5.39999-1.39999,1.20001-2.70001,2.29999-3.70001.79999-.79999,1.89999-1.39999,3-1.70001,1-.20001,2-.39999,3-.39999,1.90002,0,3.79999.5,5.40002,1.60001,1.29999,1,2.29999,2.39999,2.79999,3.89999s.90002,3.10001,1,4.70001c.09998,1.5.20001,2.79999.20001,3.79999v20.60001h11.20001v-24.60001c0-.79999-.09998-1.89999-.20001-3.5-.09998-1.79999-.40002-3.60001-.90002-5.29999Z" fill="#606d7a" stroke-width="0"/><path d="M582.5,349.80002c.5-4.70001,0-9.39999-1.59998-13.79999-1.40002-3.70001-3.79999-6.89999-7.09998-9.10001-3.5-2.20001-7.59998-3.29999-11.70001-3.20001-4-.10001-7.90002.89999-11.40002,2.89999-3.29999,1.89999-6,4.79999-7.79999,8.20001-1.90002,3.79999-2.90002,8.10001-2.79999,12.39999,0,4,.90002,8.10001,2.90002,11.60001,1.90002,3.39999,4.70001,6.10001,8,8,3.59998,2,7.70001,3,11.79999,2.89999,4.09998,0,8.20001-1.10001,11.5-3.29999,3.5-2.20001,6.29999-5.5,7.79999-9.29999l-11-3.10001c-.70001,1.70001-1.90002,3.10001-3.5,4.10001s-3.59998,1.5-5.5,1.39999c-3.40002,0-6-1.10001-7.79999-3.29999-1.29999-1.60001-2.09998-3.79999-2.40002-6.5h30.60004l-.00006.09998ZM562.59998,333.30002c3.20001,0,5.5.89999,6.90002,2.89999.90002,1.29999,1.5,3,1.79999,5.29999h-19.09998c.40002-1.89999,1.09998-3.5,2.09998-4.79999,1.79999-2.29999,4.59998-3.39999,8.29999-3.39999Z" fill="#606d7a" stroke-width="0"/></svg>