<?xml version="1.0" encoding="UTF-8"?><svg id="uuid-abc4d3ac-073c-4430-bb2d-5c0a82f4af11" xmlns="http://www.w3.org/2000/svg" width="45.5295cm" height="24.08061cm" viewBox="0 0 1290.59998 682.59998"><path d="M143.7,282.00003c-8.8,0-16.8,2.10001-24,6.20001s-13,10.10001-17.2,17.89999c-4.3,7.79999-6.4,17.29999-6.4,28.5s1.3,16.10001,3.8,22.60001,6,12,10.4,16.5,9.5,7.79999,15.2,10,11.8,3.39999,18.10001,3.39999c9.7,0,18.10001-2.10001,25.3-6.29999,7.10001-4.20001,12.7-10.10001,16.60001-17.5s5.89999-16,5.89999-25.70001,0-1.10001,0-2.70001c0-1.5-.10001-2.60001-.2-3.20001h-36.3v14.70001h16c-1,5.29999-2.8,9.70001-5.2,13.10001s-5.39999,5.89999-8.89999,7.5-7.5,2.29999-11.8,2.20001c-6.39999,0-11.7-1.60001-16-4.39999-4.2-2.79999-7.4-6.79999-9.6-12-2.1-5.10001-3.2-11.20001-3.2-18.20001s1.1-13.10001,3.2-18.29999c2.1-5.20001,5.3-9.29999,9.6-12.10001,4.3-2.80002,9.60001-4.20001,16-4.10001,6.39999,0,11.7,1.79999,15.89999,5.39999,4.10001,3.5,7.10001,8.20001,8.89999,14.10001l19.5-2.79999c-2.5-11-7.5-19.5-14.89999-25.5s-17.60001-9-30.60001-9l-.10001-.30002Z" fill="#606d7a" stroke-width="0"/><path d="M219.60001,312.20004c-5.7,3.39999-10.2,8-13.5,14s-4.89999,12.89999-4.89999,20.79999,1.60001,14.70001,4.8,20.70001,7.7,10.70001,13.39999,14.10001,12.39999,5.10001,20,5.10001,14.2-1.70001,20.00002-5.10001c5.79999-3.39999,10.29999-8.10001,13.5-14.10001s4.89999-12.89999,4.89999-20.79999-1.60001-14.70001-4.79999-20.70001c-3.20001-6-7.70001-10.70001-13.5-14.10001-5.8-3.39999-12.39999-5.10001-20.10001-5.10001s-14.10001,1.70001-19.8,5l-.00002.20001ZM253.10001,331.00003c3.10001,4,4.60001,9.39999,4.60001,16.10001s-1.5,11.79999-4.5,15.89999-7.60001,6.20001-13.7,6.20001-10.39999-2-13.5-6-4.60001-9.39999-4.60001-16.10001.60001-8.20001,1.89999-11.5c1.3-3.29999,3.3-5.89999,5.89999-7.79999,2.7-1.89999,6.10001-2.79999,10.2-2.79999,6,0,10.60001,2,13.60001,6l.10001-.00003Z" fill="#606d7a" stroke-width="0"/><path d="M307.39999,312.20004c-5.70001,3.39999-10.20001,8-13.5,14s-4.89999,12.89999-4.89999,20.79999,1.60001,14.70001,4.79999,20.70001c3.20001,6,7.70001,10.70001,13.39999,14.10001,5.70001,3.39999,12.39999,5.10001,20,5.10001s14.20001-1.70001,20-5.10001,10.29999-8.10001,13.5-14.10001,4.89999-12.89999,4.89999-20.79999-1.60001-14.70001-4.79999-20.70001c-3.20001-6-7.70001-10.70001-13.5-14.10001s-12.39999-5.10001-20.10001-5.10001-14.10001,1.70001-19.79999,5v.20001ZM340.79999,331.00003c3.10001,4,4.60001,9.39999,4.60001,16.10001s-1.5,11.79999-4.5,15.89999-7.60001,6.20001-13.70001,6.20001-10.39999-2-13.5-6-4.60001-9.39999-4.60001-16.10001.60001-8.20001,1.89999-11.5,3.29999-5.89999,5.89999-7.79999c2.70001-1.89999,6.10001-2.79999,10.20001-2.79999,6,0,10.60001,2,13.60001,6l.10001-.00003Z" fill="#606d7a" stroke-width="0"/><path d="M393.39999,381.70004c5.20001,3.5,11.29999,5.20001,18.29999,5.20001s13.79999-1.79999,18.79999-5.20001c.60001-.39999,1.10001-.79999,1.60001-1.20001v4.39999h16.79999v-100.80002h-19.20001v27.70001c-4.70001-3-10.39999-4.60001-17.10001-4.60001s-13.5,1.70001-18.89999,5.20001-9.5,8.20001-12.5,14.20001-4.39999,12.79999-4.39999,20.5,1.5,14.29999,4.39999,20.39999c2.89999,6,7,10.79999,12.20001,14.29999l.00003-.09998ZM398.89999,335.60004c1.29999-3.5,3.29999-6.29999,6.10001-8.29999s6.20001-3.10001,10.5-3.10001,7.20001,1,9.60001,2.89999c2.5,1.89999,4.20001,4.60001,5.39999,8,1.10001,3.5,1.70001,7.5,1.70001,12s-.60001,8.60001-1.70001,12c-1.10001,3.5-3,6.10001-5.5,8s-5.89999,2.89999-10.20001,2.89999-7.5-1-10.10001-3.10001-4.60001-4.79999-5.79999-8.29999-1.89999-7.29999-1.89999-11.60001.70001-8,2-11.5l-.10001.10001Z" fill="#606d7a" stroke-width="0"/><polygon points="562.29999 301.90003 562.29999 284.10004 496.5 284.10004 496.5 384.90003 562.29999 384.90003 562.29999 367.10004 515.5 367.10004 515.5 341.20004 553.90002 341.20004 553.90002 323.40003 515.5 323.40003 515.5 301.90003 562.29999 301.90003" fill="#606d7a" stroke-width="0"/><polygon points="597.70001 346.70004 570.70001 384.90003 593.09998 384.90003 608.79999 361.60004 624.29999 384.90003 646.70001 384.90003 619.5 346.70004 646 309.30002 623.59998 309.30002 608.79999 331.70004 593.59998 309.30002 571.20001 309.30002 597.70001 346.70004" fill="#606d7a" stroke-width="0"/><path d="M678.59998,327.90003c2.59998-1.89999,5.90002-2.89999,9.90002-2.89999s6.59998,1.10001,9.40002,3.29999c2.79999,2.20001,4.70001,5.20001,5.79999,9.20001l19-5c-1.70001-7.79999-5.5-13.89999-11.59998-18.39999-6-4.5-13.5-6.79999-22.40002-6.79999s-14.40002,1.70001-20,5.20001-10,8.20001-13.09998,14.20001-4.70001,12.89999-4.70001,20.5,1.5,14.29999,4.5,20.39999c3,6,7.29999,10.79999,12.90002,14.29999s12.29999,5.20001,20.20001,5.20001,16.09998-2.20001,22.09998-6.5,10-10.5,12.20001-18.5l-19.5-4.10001c-1.09998,3.60001-2.79999,6.39999-5,8.39999s-5.5,2.89999-9.79999,2.89999-10.09998-2-13-6.10001-4.40002-9.39999-4.40002-16,.59998-8,1.79999-11.29999,3.09998-6,5.70001-7.89999l-.00006-.10004Z" fill="#606d7a" stroke-width="0"/><path d="M766.79999,325.70004c1.90002-.5,3.59998-.79999,5.20001-.79999,4.09998,0,7.20001.89999,9.40002,2.70001,2.20001,1.79999,3.79999,4.10001,4.79999,6.79999,1,2.70001,1.59998,5.39999,1.79999,8.10001s.29999,4.89999.29999,6.60001v35.70001h19.29999v-42.39999c0-1.29999,0-3.29999-.29999-6-.20001-2.79999-.70001-5.79999-1.59998-9.10001-.90002-3.29999-2.40002-6.5-4.40002-9.60001-2.09998-3.10001-5-5.60001-8.70001-7.60001s-8.59998-3-14.5-3-13.59998,1.60001-18.40002,4.79999c-2.29999,1.5-4.29999,3.29999-6.09998,5.20001v-33h-16.90002v100.79999h19.29999v-38.39999c0-4.70001.5-8.5,1.59998-11.29999s2.40002-5,4-6.5,3.40002-2.5,5.20001-3l.00006-.00003Z" fill="#606d7a" stroke-width="0"/><path d="M872.5,384.90003h16.70001v-46.20001c0-3.5-.09998-6.60001-.40002-9.39999s-1.20001-5.60001-2.70001-8.39999c-2.70001-5-6.59998-8.60001-11.79999-10.60001-5.20001-2.10001-11.09998-3.10001-17.79999-3.10001s-16.29999,2-21.59998,5.89999-8.90002,9-10.79999,15.29999l17.20001,5.5c1.20001-3.5,3.29999-5.89999,6.40002-7.20001s6-2,8.79999-2c5,0,8.59998,1,10.79999,3.10001,1.70001,1.60001,2.70001,4,3.09998,7.10001-3.20001.5-6.29999.89999-9.09998,1.39999-4.90002.70001-9.29999,1.5-13.20001,2.29999s-7.20001,1.70001-10,2.70001c-4.09998,1.5-7.29999,3.29999-9.70001,5.60001-2.40002,2.20001-4.09998,4.79999-5.20001,7.70001-1.09998,2.89999-1.59998,6.10001-1.59998,9.60001s1,8,2.90002,11.5,4.79999,6.29999,8.5,8.29999c3.79999,2.10001,8.29999,3.10001,13.79999,3.10001s11.90002-1.10001,16.20001-3.39999c3.40002-1.79999,6.59998-4.5,9.59998-8v9.29999l-.10004-.09998ZM868.29999,361.90003c-.5,1.10001-1.5,2.39999-2.90002,4s-3.29999,3-5.70001,4.20001-5.40002,1.89999-8.90002,1.89999-4.09998-.29999-5.70001-1c-1.59998-.70001-2.79999-1.60001-3.70001-2.79999-.90002-1.20001-1.29999-2.70001-1.29999-4.39999s.29999-2.39999.79999-3.39999,1.40002-2,2.5-2.79999c1.09998-.89999,2.59998-1.70001,4.5-2.39999,1.59998-.60001,3.5-1.20001,5.70001-1.70001,2.09998-.5,5-1.10001,8.5-1.70001,2.20001-.39999,4.90002-.89999,8.09998-1.39999,0,1.29999-.09998,2.79999-.20001,4.5-.20001,2.70001-.70001,5.10001-1.70001,7.20001l.00012-.20004Z" fill="#606d7a" stroke-width="0"/><path d="M926.59998,346.50003c0-4.70001.5-8.5,1.59998-11.29999s2.40002-5,4-6.5,3.40002-2.5,5.20001-3c1.90002-.5,3.59998-.79999,5.20001-.79999,4.09998,0,7.20001.89999,9.40002,2.70001,2.20001,1.79999,3.79999,4.10001,4.79999,6.79999,1,2.70001,1.59998,5.39999,1.79999,8.10001s.29999,4.89999.29999,6.60001v35.70001h19.29999v-42.39999c0-1.29999,0-3.29999-.29999-6-.20001-2.79999-.70001-5.79999-1.59998-9.10001-.90002-3.29999-2.40002-6.5-4.40002-9.60001-2.09998-3.10001-5-5.60001-8.70001-7.60001s-8.59998-3-14.5-3-13.59998,1.60001-18.40002,4.79999c-2.29999,1.5-4.29999,3.29999-6.09998,5.20001v-7.79999h-16.90002v75.60001h19.29999v-38.39999l.00006-.00006Z" fill="#606d7a" stroke-width="0"/><path d="M1047.5,313.40003c-.40002-.29999-.90002-.70001-1.30005-1-4.90002-3.5-10.90002-5.20001-18.09998-5.20001s-13.5,1.70001-18.90002,5.20001-9.5,8.20001-12.5,14.20001-4.40002,12.79999-4.40002,20.5,1.5,14.29999,4.40002,20.39999c2.90002,6,7,10.79999,12.20001,14.29999s11.29999,5.20001,18.29999,5.20001,13.19995-1.60001,18.09998-4.79999v7.60001c0,2.79999-.59998,5.10001-2.09998,7s-3.5,3.29999-6.09998,4.29999c-2.5,1-5.19995,1.39999-8,1.39999s-5.09998-.60001-7.40002-1.79999c-2.29999-1.20001-4-2.89999-5.20001-5.10001l-17.59998,8.5c1.90002,3.29999,4.40002,6.10001,7.5,8.60001s6.5,4.39999,10.40002,5.70001c3.90002,1.39999,8.00006,2.10001,12.20001,2.10001s10.69995-.70001,15.5-2.20001,8.80005-3.70001,12.09998-6.70001,5.5-6.79999,6.80005-11.39999c.40002-1.60001.69995-3.29999.90002-4.89999.19995-1.70001.19995-3.39999.19995-5.29999v-80.80002h-16.69995v4.20001l-.30005-.00003ZM1040.30005,367.20004c-2.5,1.89999-5.90002,2.89999-10.19995,2.89999s-7.5-1-10.09998-3.10001-4.5-4.79999-5.79999-8.29999-1.90002-7.29999-1.90002-11.60001.70001-8,2-11.5,3.29999-6.29999,6.09998-8.29999c2.70001-2.10001,6.20001-3.10001,10.50006-3.10001s7.19995,1,9.59998,2.89999c2.5,1.89999,4.19995,4.60001,5.40002,8,1.09998,3.5,1.69995,7.5,1.69995,12s-.59998,8.60001-1.69995,12c-1.09998,3.5-3,6.10001-5.5,8l-.1001.10001Z" fill="#606d7a" stroke-width="0"/><path d="M1144,352.40003h9.19995c.80005-9.10001-.09998-17.10001-2.80005-23.89999s-6.80005-12-12.30005-15.79999c-5.59998-3.70001-12.30005-5.60001-20.19995-5.60001s-14.09998,1.70001-19.80005,5.10001c-5.69995,3.39999-10.19995,8.10001-13.5,14.20001s-4.90002,13.29999-4.90002,21.60001,1.69995,14.29999,5,20.10001c3.30005,5.89999,8,10.5,13.90002,13.79999s12.69995,5,20.5,5,14-1.89999,20.09998-5.70001c6.09998-3.79999,10.59998-9.20001,13.5-16.10001l-19-5.5c-1.40002,3.10001-3.40002,5.39999-6.09998,7.10001-2.69995,1.60001-5.90002,2.5-9.59998,2.5-5.90002,0-10.40002-1.89999-13.5-5.79999-2.19995-2.79999-3.59998-6.5-4.19995-11h43.90002l-.19995-.00003ZM1118.59998,323.70004c5.59998,0,9.59998,1.70001,12,5.10001,1.59998,2.20001,2.69995,5.39999,3.19995,9.5h-33.30005c.69995-3.5,2-6.39999,3.69995-8.60001,3.09998-3.89999,7.80005-5.89999,14.30005-5.89999l.1001-.10001Z" fill="#606d7a" stroke-width="0"/><polygon points="125.1 242.00003 144.10001 242.00003 144.10001 159.00003 175.89999 159.00003 175.89999 141.20003 93.3 141.20003 93.3 159.00003 125.1 159.00003 125.1 242.00003" fill="#606d7a" stroke-width="0"/><path d="M206.3,203.60004c0-4.7.5-8.5,1.60001-11.3,1-2.8,2.39999-5,4-6.5s3.39999-2.5,5.2-3c1.89999-.5,3.60001-.8,5.2-.8,4.10001,0,7.2.89999,9.39999,2.7s3.8,4.10001,4.8,6.8,1.60001,5.39999,1.8,8.10001c.2,2.7.3,4.89999.3,6.60001v35.7h19.29999v-42.40001c0-1.3,0-3.3-.29999-6-.20001-2.8-.70001-5.8-1.60001-9.10001s-2.39999-6.5-4.39999-9.60001c-2.10001-3.10001-5-5.60001-8.7-7.60001s-8.60001-3-14.5-3-13.60001,1.60001-18.39999,4.8c-2.3,1.5-4.3,3.3-6.10001,5.2v-33h-16.89999v100.8h19.3v-38.40001l-.00002.00003Z" fill="#606d7a" stroke-width="0"/><path d="M290.79999,239.10004c5.89999,3.3,12.70001,5,20.5,5s14-1.89999,20.10001-5.7,10.60001-9.2,13.5-16.10001l-19-5.5c-1.39999,3.10001-3.39999,5.39999-6.10001,7.10001-2.70001,1.60001-5.89999,2.5-9.60001,2.5-5.89999,0-10.39999-1.89999-13.5-5.8-2.20001-2.8-3.60001-6.5-4.20001-11h53.10001c.79999-9.10001-.10001-17.10001-2.79999-23.89999-2.70001-6.8-6.79999-12-12.29999-15.8-5.60001-3.7-12.29999-5.60001-20.20001-5.60001s-14.10001,1.7-19.79999,5.10001c-5.70001,3.39999-10.20001,8.10001-13.5,14.2-3.29999,6.10001-4.89999,13.3-4.89999,21.60001s1.70001,14.3,5,20.10001c3.29999,5.89999,8,10.5,13.89999,13.8l-.20001-.00002ZM311,180.80003c5.60001,0,9.60001,1.7,12,5.10001,1.60001,2.2,2.70001,5.39999,3.20001,9.5h-33.29999c.70001-3.5,2-6.39999,3.70001-8.60001,3.10001-3.89999,7.79999-5.89999,14.29999-5.89999l.09998-.10001Z" fill="#606d7a" stroke-width="0"/><polygon points="92.5 452.50003 108.1 452.50003 108.1 492.90003 112.7 492.90003 112.7 452.50003 128.3 452.50003 128.3 448.10004 92.5 448.10004 92.5 452.50003" fill="#606d7a" stroke-width="0"/><path d="M155.3,466.50003c.8,1.20001,1.3,2.5,1.7,4.10001s.5,3.29999.5,5.10001v17.10001h4.60001v-18.5c0-1.5-.10001-3-.39999-4.60001-.3-1.5-.8-3-1.39999-4.29999-.60001-1.39999-1.5-2.60001-2.5-3.60001-1-1.10001-2.3-1.89999-3.8-2.5s-3.3-.89999-5.3-.89999-5.2.60001-7.3,1.79999c-1.60001.89999-2.89999,2.10001-4,3.70001v-15.89999h-4.10001v44.79999h4.60001v-17.89999c0-1.89999.2-3.60001.7-5.10001.39999-1.5,1.10001-2.79999,1.89999-3.79999.8-1,1.89999-1.79999,3.10001-2.39999,1.2-.60001,2.7-.79999,4.3-.79999s3.3.29999,4.5,1c1.2.60001,2.2,1.60001,3,2.70001l-.10001-.00006Z" fill="#606d7a" stroke-width="0"/><path d="M199.10001,484.60004l-4.3-1.60001c-1,2.10001-2.5,3.70001-4.2,4.79999-1.8,1.10001-3.89999,1.70001-6.3,1.70001-3.5,0-6.2-1.20001-8.2-3.5-1.7-2.10001-2.7-5-2.8-8.60001h26.39999c.10001-3.89999-.39999-7.29999-1.60001-10.20001-1.2-2.79999-3-5-5.3-6.5s-5.2-2.29999-8.5-2.29999-6,.70001-8.39999,2.20001-4.2,3.5-5.5,6.20001-2,5.79999-2,9.5.7,6.60001,2,9.29999,3.2,4.70001,5.60001,6.10001c2.39999,1.5,5.2,2.20001,8.5,2.20001s6.2-.79999,8.8-2.39999,4.5-3.89999,5.89999-6.79999l-.09999-.10004ZM176.10001,466.10004c1.89999-2.29999,4.7-3.5,8.3-3.5s6.10001,1.10001,7.8,3.29999c1.5,1.79999,2.39999,4.39999,2.7,7.60001h-21.60001c.3-3.10001,1.2-5.60001,2.7-7.5l.10001.10001Z" fill="#606d7a" stroke-width="0"/><path d="M244.8,466.20004c.8-1.29999,1.8-2.20001,3-2.79999,1.2-.60001,2.39999-.89999,3.7-.89999,2.2,0,4,.70001,5.5,2.20001,1.39999,1.5,2.20001,3.5,2.20001,6.10001v22h4.5v-22.89999c0-3.5-1-6.39999-3-8.39999-2-2.10001-4.70001-3.10001-8.10001-3.10001s-4.2.5-6,1.5-3.10001,2.39999-4.10001,4.20001c0-.10001,0-.20001-.2-.29999-1-1.70001-2.3-3.10001-3.89999-4-1.7-.89999-3.60001-1.39999-5.7-1.39999s-4.2.5-6,1.5c-1.39999.79999-2.5,1.79999-3.5,3v-3.60001h-4.10001v33.60001h4.60001v-21.70001c0-2.60001.7-4.70001,2.10001-6.29999,1.39999-1.60001,3.3-2.39999,5.60001-2.39999s4.2.79999,5.60001,2.29999c1.39999,1.5,2.10001,3.70001,2.10001,6.29999v21.70001h4.5v-21.70001h0c0-2.10001.39999-3.79999,1.2-5l-.00003.09995Z" fill="#606d7a" stroke-width="0"/><path d="M299.60001,485.40003c1.29999-2.70001,1.89999-5.79999,1.89999-9.29999s-.60001-6.5-1.89999-9.20001-3.10001-4.70001-5.39999-6.20001-5.20001-2.29999-8.60001-2.29999-6.10001.70001-8.5,2.20001-4.20001,3.5-5.5,6.20001-1.89999,5.70001-1.89999,9.29999.60001,6.5,1.89999,9.20001,3.10001,4.79999,5.39999,6.29999c2.39999,1.5,5.20001,2.29999,8.5,2.29999s6.20001-.70001,8.5-2.20001,4.20001-3.60001,5.5-6.20001l.10001-.09998ZM285.5,489.40003c-3.60001,0-6.39999-1.20001-8.20001-3.70001-1.89999-2.39999-2.79999-5.70001-2.79999-9.70001s.39999-4.89999,1.20001-6.89999,2-3.60001,3.60001-4.70001,3.70001-1.70001,6.20001-1.70001c3.70001,0,6.5,1.20001,8.29999,3.60001s2.79999,5.60001,2.79999,9.70001-.89999,7.20001-2.70001,9.70001c-1.79999,2.5-4.60001,3.70001-8.29999,3.70001h-.10001Z" fill="#606d7a" stroke-width="0"/><path d="M326.79999,488.00003c-1.5,1.10001-3.5,1.60001-6,1.60001s-4.79999-.60001-6.60001-1.70001c-1.79999-1.10001-2.89999-2.60001-3.39999-4.60001l-4.70001.79999c.60001,3,2.10001,5.39999,4.70001,7.10001,2.5,1.70001,5.79999,2.5,9.70001,2.5s7.39999-.89999,9.70001-2.70001c2.39999-1.79999,3.5-4.29999,3.5-7.5s-.39999-3.20001-1.10001-4.39999-2-2.20001-3.79999-3.10001-4.20001-1.70001-7.29999-2.5c-2.60001-.70001-4.70001-1.29999-6.10001-1.79999-1.39999-.60001-2.39999-1.20001-2.89999-1.79999-.5-.60001-.79999-1.39999-.79999-2.29999,0-1.60001.70001-2.89999,2.20001-3.79999s3.39999-1.39999,5.79999-1.39999c2.5,0,4.60001.60001,6.29999,1.79999,1.60001,1.20001,2.60001,2.70001,2.89999,4.70001l4.70001-.79999c-.20001-1.89999-1-3.70001-2.20001-5.10001-1.20001-1.5-2.79999-2.60001-4.79999-3.39999s-4.29999-1.20001-6.79999-1.20001-4.70001.39999-6.70001,1.20001-3.39999,1.89999-4.5,3.39999c-1.10001,1.39999-1.60001,3.10001-1.60001,5s.39999,2.89999,1.10001,4,1.89999,2,3.70001,2.89999c1.70001.79999,4.10001,1.70001,7.10001,2.5,2.79999.79999,5,1.39999,6.39999,2s2.39999,1.20001,2.79999,1.79999c.5.70001.70001,1.5.70001,2.5,0,1.79999-.70001,3.29999-2.20001,4.39999l.19995-.10001Z" fill="#606d7a" stroke-width="0"/><path d="M348.60001,450.00003h-4.5v9.29999h-7.20001v3.89999h7.20001v21.89999c0,1.29999.39999,2.5,1,3.79999.70001,1.5,1.79999,2.60001,3.29999,3.29999s3.10001,1.10001,4.89999,1.20001c1.79999,0,3.70001,0,5.60001-.5v-4c-2.39999.39999-4.39999.5-6,.20001s-2.79999-1.10001-3.60001-2.5c-.39999-.70001-.60001-1.60001-.60001-2.5v-20.79999h10.29999v-3.89999h-10.29999v-9.29999l-.09998-.10001Z" fill="#606d7a" stroke-width="0"/><path d="M408,484.30002l-7.39999-2.20001c-.70001,1.60001-1.79999,2.70001-3.10001,3.60001s-2.89999,1.20001-4.79999,1.20001c-2.89999,0-5-.89999-6.5-2.79999-1.20001-1.5-1.89999-3.39999-2.10001-5.79999h24.29999c.29999-4-.20001-7.5-1.29999-10.5-1.20001-3-3-5.29999-5.39999-6.89999s-5.39999-2.39999-8.89999-2.39999-6.20001.70001-8.70001,2.20001-4.5,3.60001-5.89999,6.29999c-1.39999,2.70001-2.10001,5.89999-2.10001,9.60001s.70001,6.39999,2.20001,9c1.39999,2.60001,3.39999,4.70001,6,6.10001,2.60001,1.5,5.60001,2.20001,9,2.20001s6.20001-.79999,8.89999-2.5,4.70001-4,6-7.10001l-.20001-.00006ZM393.10001,465.00003c2.70001,0,4.70001.79999,6,2.5.89999,1.20001,1.5,2.89999,1.70001,5.10001h-16.5c.29999-1.89999,1-3.5,1.89999-4.70001,1.5-1.89999,3.79999-2.79999,6.79999-2.79999l.10001-.10001Z" fill="#606d7a" stroke-width="0"/><path d="M442.5,492.90003v-20.60001c0-1.39999,0-2.79999-.20001-4-.10001-1.20001-.5-2.39999-1.10001-3.60001-1.10001-2.20001-2.79999-3.79999-5.10001-4.79999-2.29999-1-4.89999-1.5-7.89999-1.5s-7.10001.89999-9.39999,2.60001-3.89999,4-4.70001,6.79999l6.79999,2.10001c.60001-1.70001,1.5-2.89999,3-3.60001,1.39999-.70001,2.89999-1.10001,4.39999-1.10001,2.5,0,4.29999.60001,5.29999,1.60001.89999.89999,1.39999,2.29999,1.5,4-1.29999.20001-2.70001.39999-4,.60001-2.10001.29999-4.10001.60001-5.89999,1s-3.39999.70001-4.70001,1.20001c-1.79999.60001-3.20001,1.39999-4.39999,2.29999s-1.89999,2.10001-2.5,3.39999c-.5,1.29999-.79999,2.79999-.79999,4.39999s.39999,3.5,1.29999,5.10001,2.10001,2.79999,3.79999,3.70001c1.70001.89999,3.70001,1.39999,6.20001,1.39999s5.5-.60001,7.60001-1.70001c1.60001-.89999,3-2.10001,4.20001-3.79999v4.5h6.60004ZM434.29999,482.30002c-.20001.79999-.70001,1.60001-1.39999,2.5s-1.70001,1.60001-2.89999,2.20001c-1.20001.60001-2.70001.89999-4.39999.89999s-2.20001-.20001-3-.60001-1.39999-.89999-1.79999-1.5-.60001-1.39999-.60001-2.20001.20001-1.39999.5-1.89999.79999-1,1.39999-1.39999,1.29999-.79999,2.20001-1.10001c.89999-.29999,1.89999-.60001,3.10001-.79999,1.20001-.20001,2.5-.5,4.20001-.79999,1-.20001,2.20001-.39999,3.5-.60001v2c0,1.20001-.29999,2.29999-.70001,3.29999h-.10004Z" fill="#606d7a" stroke-width="0"/><path d="M477.39999,483.00003c0-1.70001-.39999-3.20001-1.10001-4.39999s-1.89999-2.29999-3.5-3.20001c-1.60001-.89999-3.70001-1.70001-6.39999-2.29999-2.60001-.70001-4.60001-1.20001-5.89999-1.70001s-2.20001-.89999-2.60001-1.39999-.70001-1-.70001-1.60001c0-1.10001.5-2,1.60001-2.70001,1.10001-.60001,2.5-.89999,4.29999-.79999s3.29999.60001,4.39999,1.39999,1.79999,2,1.89999,3.39999l7.60001-1.39999c-.29999-2-1.10001-3.79999-2.29999-5.29999-1.20001-1.5-2.89999-2.60001-4.89999-3.39999s-4.29999-1.20001-6.89999-1.20001-5,.39999-7,1.29999c-2,.79999-3.5,2-4.60001,3.60001s-1.60001,3.39999-1.60001,5.5.39999,3.10001,1.10001,4.29999c.70001,1.20001,1.89999,2.20001,3.60001,3.10001s3.89999,1.70001,6.70001,2.39999c2.5.70001,4.39999,1.20001,5.60001,1.60001s2,.89999,2.39999,1.39999.5,1.10001.5,1.79999c0,1.20001-.5,2.20001-1.5,2.89999s-2.39999,1.10001-4.20001,1.10001-3.79999-.5-5.10001-1.39999c-1.29999-1-2.20001-2.29999-2.60001-3.89999l-7.60001,1.20001c.60001,3.39999,2.10001,6,4.70001,7.89999s6,2.79999,10.10001,2.79999,7.70001-1,10.20001-2.89999,3.70001-4.60001,3.70001-8l.09998-.09998Z" fill="#606d7a" stroke-width="0"/><polygon points="494.39999 507.80002 513.09998 459.30002 505.60001 459.30002 496.5 483.30002 487.10001 459.30002 479.29999 459.30002 492.89999 492.70004 487.39999 507.80002 494.39999 507.80002" fill="#606d7a" stroke-width="0"/><path d="M519.20001,496.60004c-.40002.39999-1,.60001-1.79999.5l-.29999,2.29999c1.59998.29999,2.90002,0,3.90002-1s1.40002-2.39999,1.40002-4.29999v-7.79999h-5.29999v6.60001h2.79999v2.10001c0,.70001-.29999,1.20001-.70001,1.60001l-.00006-.00003Z" fill="#606d7a" stroke-width="0"/><path d="M569,475.40003c-1.59998-.89999-3.70001-1.70001-6.40002-2.29999-2.59998-.70001-4.59998-1.20001-5.90002-1.70001-1.29999-.5-2.20001-.89999-2.59998-1.39999-.40002-.5-.70001-1-.70001-1.60001,0-1.10001.5-2,1.59998-2.70001,1.09998-.60001,2.5-.89999,4.29999-.79999s3.29999.60001,4.40002,1.39999c1.09998.79999,1.79999,2,1.90002,3.39999l7.59998-1.39999c-.29999-2-1.09998-3.79999-2.29999-5.29999s-2.90002-2.60001-4.90002-3.39999-4.29999-1.20001-6.90002-1.20001-5,.39999-7,1.29999c-2,.79999-3.5,2-4.59998,3.60001s-1.59998,3.39999-1.59998,5.5.40002,3.10001,1.09998,4.29999c.70001,1.20001,1.90002,2.20001,3.59998,3.10001,1.70001.89999,3.90002,1.70001,6.70001,2.39999,2.5.70001,4.40002,1.20001,5.59998,1.60001,1.20001.39999,2,.89999,2.40002,1.39999s.5,1.10001.5,1.79999c0,1.20001-.5,2.20001-1.5,2.89999-1,.70001-2.40002,1.10001-4.20001,1.10001s-3.79999-.5-5.09998-1.39999-2.20001-2.29999-2.59998-3.89999l-7.59998,1.20001c.59998,3.39999,2.09998,6,4.70001,7.89999,2.59998,1.89999,6,2.79999,10.09998,2.79999s7.70001-1,10.20001-2.89999,3.70001-4.60001,3.70001-8-.40002-3.20001-1.09998-4.39999c-.70001-1.20001-1.90002-2.29999-3.5-3.20001l.09998-.09998Z" fill="#606d7a" stroke-width="0"/><path d="M610.5,484.30002l-7.40002-2.20001c-.70001,1.60001-1.79999,2.70001-3.09998,3.60001s-2.90002,1.20001-4.79999,1.20001c-2.90002,0-5-.89999-6.5-2.79999-1.20001-1.5-1.90002-3.39999-2.09998-5.79999h24.29999c.29999-4-.20001-7.5-1.29999-10.5-1.20001-3-3-5.29999-5.40002-6.89999s-5.40002-2.39999-8.90002-2.39999-6.20001.70001-8.70001,2.20001-4.5,3.60001-5.90002,6.29999c-1.40002,2.70001-2.09998,5.89999-2.09998,9.60001s.70001,6.39999,2.20001,9c1.40002,2.60001,3.40002,4.70001,6,6.10001,2.59998,1.5,5.59998,2.20001,9,2.20001s6.20001-.79999,8.90002-2.5,4.70001-4,6-7.10001l-.20001-.00006ZM595.5,465.00003c2.70001,0,4.70001.79999,6,2.5.90002,1.20001,1.5,2.89999,1.70001,5.10001h-16.5c.29999-1.89999,1-3.5,1.90002-4.70001,1.5-1.89999,3.79999-2.79999,6.79999-2.79999l.09998-.10001Z" fill="#606d7a" stroke-width="0"/><path d="M627.5,466.80002c1.29999-.89999,2.90002-1.39999,4.79999-1.39999s3.29999.5,4.59998,1.5,2.29999,2.39999,2.90002,4.20001l7.5-2c-.79999-3.29999-2.5-5.89999-5.20001-7.79999-2.59998-1.89999-5.90002-2.89999-9.70001-2.89999s-6.29999.79999-8.79999,2.29999-4.40002,3.60001-5.70001,6.29999c-1.29999,2.70001-2,5.70001-2,9.20001,0,3.39999.70001,6.39999,2,9.10001s3.20001,4.79999,5.59998,6.29999c2.40002,1.5,5.40002,2.29999,8.90002,2.29999s6.90002-.89999,9.5-2.79999,4.40002-4.5,5.40002-7.89999l-7.59998-1.70001c-.59998,1.70001-1.40002,3-2.59998,3.89999s-2.70001,1.39999-4.70001,1.39999c-2.79999,0-4.90002-1-6.40002-3-1.40002-2-2.09998-4.5-2.09998-7.70001s.29999-3.89999.90002-5.5c.59998-1.60001,1.5-2.89999,2.79999-3.79999h-.10004Z" fill="#606d7a" stroke-width="0"/><path d="M683.70001,492.90003v-33.60001h-7.5v17.20001c0,2-.20001,3.70001-.70001,5s-1.09998,2.39999-1.79999,3.10001c-.79999.79999-1.59998,1.29999-2.5,1.60001s-1.90002.5-2.79999.5c-1.79999,0-3.20001-.39999-4.20001-1.10001-1-.79999-1.79999-1.70001-2.40002-2.89999-.5-1.20001-.90002-2.39999-1-3.70001-.09998-1.29999-.20001-2.5-.20001-3.5v-16.20001h-7.59998v18.70001c0,.79999,0,1.89999.20001,3.20001s.40002,2.70001.90002,4.10001c.5,1.5,1.20001,2.79999,2.09998,4.10001s2.20001,2.29999,3.90002,3.20001c1.59998.79999,3.70001,1.20001,6.20001,1.20001s5.79999-.70001,8-2.10001c1.20001-.70001,2.20001-1.60001,3-2.60001v3.79999h6.59998l-.20001-.00003Z" fill="#606d7a" stroke-width="0"/><path d="M708.29999,459.20004c-1.09998,0-2.09998.29999-3.09998.60001-1,.29999-1.90002.79999-2.79999,1.29999-1,.60001-1.79999,1.39999-2.5,2.29999-.29999.39999-.59998.89999-.90002,1.29999v-5.39999h-6.59998v33.60001h7.5v-17.10001c0-1.29999.20001-2.5.5-3.60001s.79999-2.10001,1.40002-3c.70001-.89999,1.5-1.60001,2.5-2.10001,1-.60001,2.20001-1,3.5-1.10001s2.40002,0,3.40002.29999v-7c-1-.20001-2-.20001-3.09998-.10001l.19989.00006Z" fill="#606d7a" stroke-width="0"/><path d="M740.29999,460.80002c-2.40002-1.60001-5.40002-2.39999-8.90002-2.39999s-6.20001.70001-8.70001,2.20001-4.5,3.60001-5.90002,6.29999c-1.40002,2.70001-2.09998,5.89999-2.09998,9.60001s.70001,6.39999,2.20001,9c1.40002,2.60001,3.40002,4.70001,6,6.10001,2.59998,1.5,5.59998,2.20001,9,2.20001s6.20001-.79999,8.90002-2.5,4.70001-4,6-7.10001l-7.40002-2.20001c-.70001,1.60001-1.79999,2.70001-3.09998,3.60001s-2.90002,1.20001-4.79999,1.20001c-2.90002,0-5-.89999-6.5-2.79999-1.20001-1.5-1.90002-3.39999-2.09998-5.79999h24.29999c.29999-4-.20001-7.5-1.29999-10.5-1.20001-3-3-5.29999-5.40002-6.89999l-.20001-.00006ZM731.79999,465.00003c2.70001,0,4.70001.79999,6,2.5.90002,1.20001,1.5,2.89999,1.70001,5.10001h-16.5c.29999-1.89999,1-3.5,1.90002-4.70001,1.5-1.89999,3.79999-2.79999,6.79999-2.79999l.09998-.10001Z" fill="#606d7a" stroke-width="0"/><path d="M792.90002,492.90003v-20.89999c0-1.20001,0-2.5-.20001-3.70001-.09998-1.20001-.40002-2.29999-.79999-3.29999-.90002-2.20001-2.40002-3.79999-4.59998-5-2.09998-1.10001-4.79999-1.70001-7.79999-1.70001s-6.70001.79999-9,2.5-3.90002,4-4.59998,7l4.40002,1.29999c.59998-2.20001,1.79999-3.89999,3.29999-4.89999,1.59998-1,3.5-1.60001,5.79999-1.60001,3.29999,0,5.70001.79999,7,2.39999,1.20001,1.5,1.90002,3.70001,1.90002,6.60001-1.09998.20001-2.29999.29999-3.59998.5-2,.20001-4,.5-6.09998.79999s-3.90002.70001-5.59998,1.10001c-1.70001.39999-3.20001,1.10001-4.40002,1.89999s-2.29999,1.89999-3,3.20001-1.09998,2.89999-1.09998,4.70001.40002,3.39999,1.29999,4.89999,2.09998,2.70001,3.79999,3.60001,3.79999,1.39999,6.40002,1.39999,6.20001-.79999,8.59998-2.29999c1.70001-1.10001,3.09998-2.5,4.09998-4.20001v5.60001h4.09998l.09991.10001ZM788,481.10004c-.29999,1.70001-.90002,3.20001-1.90002,4.5s-2.29999,2.39999-3.90002,3.20001-3.5,1.20001-5.59998,1.20001-3.20001-.29999-4.29999-.89999-1.90002-1.39999-2.40002-2.29999-.70001-1.89999-.70001-2.79999.29999-2.20001.90002-3c.59998-.79999,1.29999-1.5,2.20001-1.89999.90002-.5,1.79999-.89999,2.79999-1.10001,1.40002-.39999,3-.70001,4.70001-1,1.79999-.29999,3.5-.5,5.29999-.70001,1.20001-.10001,2.20001-.29999,3.29999-.39999v1.79999c0,1.29999-.20001,2.5-.40002,3.60001l.00006-.20004Z" fill="#606d7a" stroke-width="0"/><path d="M815.5,462.80002c1.79999,0,3.29999.29999,4.5,1,1.20001.60001,2.20001,1.60001,3,2.70001.79999,1.20001,1.29999,2.5,1.70001,4.10001s.5,3.29999.5,5.10001v17.10001h4.59998v-18.5c0-1.5-.09998-3-.40002-4.60001-.29999-1.5-.79999-3-1.40002-4.29999s-1.5-2.60001-2.5-3.60001c-1-1.10001-2.29999-1.89999-3.79999-2.5s-3.29999-.89999-5.29999-.89999-5.20001.60001-7.29999,1.79999c-1.59998.89999-2.90002,2.10001-4,3.70001v-4.70001h-4.09998v33.60001h4.59998v-17.89999c0-1.89999.20001-3.60001.70001-5.10001.40002-1.5,1.09998-2.79999,1.90002-3.79999.79999-1,1.90002-1.79999,3.09998-2.39999,1.20001-.60001,2.70001-.79999,4.29999-.79999l-.09998-.00006Z" fill="#606d7a" stroke-width="0"/><path d="M861.29999,463.30002c-.79999-1-1.70001-1.89999-2.70001-2.60001-2.20001-1.5-4.79999-2.29999-8-2.29999s-5.70001.79999-7.90002,2.29999c-2.20001,1.60001-3.90002,3.70001-5.09998,6.29999-1.20001,2.70001-1.79999,5.70001-1.79999,9s.59998,6.39999,1.79999,9c1.20001,2.70001,2.90002,4.79999,5.09998,6.39999,2.20001,1.60001,4.90002,2.29999,8,2.29999s5.70001-.79999,7.79999-2.29999c1.20001-.89999,2.29999-2,3.20001-3.29999v4.70001h4.09998v-44.79999h-4.59998v15.20001l.10004.09998ZM860.59998,483.00003c-.79999,2-1.90002,3.60001-3.5,4.79999-1.59998,1.20001-3.5,1.70001-5.90002,1.70001s-4.29999-.60001-5.79999-1.79999c-1.59998-1.20001-2.70001-2.79999-3.5-4.79999s-1.20001-4.29999-1.20001-6.89999.40002-4.79999,1.09998-6.79999c.79999-2,1.90002-3.60001,3.5-4.79999,1.59998-1.20001,3.59998-1.79999,6-1.79999s4.29999.60001,5.79999,1.70001,2.70001,2.70001,3.5,4.70001,1.20001,4.29999,1.20001,7-.40002,4.89999-1.20001,6.89999l.00006.09991Z" fill="#606d7a" stroke-width="0"/><path d="M896.79999,466.80002c1.29999-.89999,2.90002-1.39999,4.79999-1.39999s3.29999.5,4.59998,1.5,2.29999,2.39999,2.90002,4.20001l7.5-2c-.79999-3.29999-2.5-5.89999-5.20001-7.79999-2.59998-1.89999-5.90002-2.89999-9.70001-2.89999s-6.29999.79999-8.79999,2.29999-4.40002,3.60001-5.70001,6.29999c-1.29999,2.70001-2,5.70001-2,9.20001,0,3.39999.70001,6.39999,2,9.10001s3.20001,4.79999,5.59998,6.29999c2.40002,1.5,5.40002,2.29999,8.90002,2.29999s6.90002-.89999,9.5-2.79999c2.59998-1.79999,4.40002-4.5,5.40002-7.89999l-7.59998-1.70001c-.59998,1.70001-1.40002,3-2.59998,3.89999-1.20001.89999-2.70001,1.39999-4.70001,1.39999-2.79999,0-4.90002-1-6.40002-3-1.40002-2-2.09998-4.5-2.09998-7.70001s.29999-3.89999.90002-5.5c.59998-1.60001,1.5-2.89999,2.79999-3.79999h-.10004Z" fill="#606d7a" stroke-width="0"/><path d="M951.29999,485.30002c1.40002-2.70001,2.09998-5.70001,2.09998-9.20001s-.70001-6.5-2.09998-9.20001c-1.40002-2.70001-3.29999-4.79999-5.79999-6.29999s-5.5-2.29999-8.79999-2.29999-6.20001.70001-8.70001,2.20001-4.5,3.60001-5.90002,6.20001-2.09998,5.70001-2.09998,9.29999.70001,6.5,2.09998,9.20001c1.40002,2.70001,3.29999,4.79999,5.79999,6.29999s5.40002,2.29999,8.79999,2.29999,6.29999-.79999,8.79999-2.29999,4.5-3.60001,5.90002-6.20001h-.09998ZM936.70001,486.80002c-2.90002,0-5.09998-1-6.5-2.89999-1.5-1.89999-2.20001-4.5-2.20001-7.79999s.29999-4,.90002-5.60001,1.59998-2.89999,2.90002-3.79999c1.29999-.89999,2.90002-1.39999,5-1.39999,2.90002,0,5.09998,1,6.59998,2.89999s2.20001,4.5,2.20001,7.79999-.70001,5.70001-2.20001,7.70001-3.70001,3-6.70001,3v.09998Z" fill="#606d7a" stroke-width="0"/><path d="M996.59998,458.50003c-2.20001,0-4.29999.5-6.09998,1.5-1.70001.89999-3.09998,2.20001-4.20001,3.89999-.79999-1.60001-2-2.79999-3.5-3.79999-1.70001-1.10001-3.79999-1.60001-6.29999-1.60001s-4.29999.5-6.20001,1.5c-1.40002.79999-2.59998,1.79999-3.59998,3v-3.60001h-6.59998v33.60001h7.59998v-20.70001c0-2.10001.59998-3.79999,1.70001-5.10001,1.09998-1.29999,2.70001-2,4.59998-2s3.5.70001,4.70001,2c1.09998,1.29999,1.70001,3.10001,1.70001,5.5v20.29999h7.5v-20.70001c0-1.5.29999-2.70001.79999-3.79999.59998-1.10001,1.29999-1.89999,2.29999-2.39999s2-.79999,3.20001-.79999c1.90002,0,3.5.60001,4.59998,1.89999s1.70001,3.10001,1.70001,5.39999v20.39999h7.5v-22.29999c0-3.60001-1-6.60001-3-8.79999-2-2.20001-4.79999-3.29999-8.5-3.29999l.09998-.10001Z" fill="#606d7a" stroke-width="0"/><path d="M1040.30005,460.70004c-2.30005-1.5-5.09998-2.29999-8.30005-2.29999s-5.90002.79999-8,2.29999c-.40002.29999-.90002.70001-1.29999,1v-2.39999h-6.59998v48.5h7.59998v-16.60001c.09998.10001.29999.20001.39996.29999,2.19995,1.60001,5,2.29999,8.19995,2.29999s5.80005-.79999,8.09998-2.29999c2.30005-1.60001,4.09998-3.70001,5.30005-6.29999,1.30005-2.70001,1.90002-5.70001,1.90002-9s-.59998-6.39999-1.90002-9.10001-3.09998-4.79999-5.40002-6.29999l.00012-.10001ZM1038.80005,481.70004c-.59998,1.70001-1.5,3-2.80005,4s-2.90002,1.5-4.80005,1.5-3.59998-.5-4.90002-1.39999c-1.19995-.89999-2.09998-2.20001-2.70001-3.89999-.59998-1.70001-.90002-3.60001-.90002-5.79999s.29999-4.10001.90002-5.79999c.60004-1.60001,1.49994-2.89999,2.70001-3.89999s2.80005-1.39999,4.69995-1.39999,3.69995.5,5,1.5,2.30005,2.29999,2.90002,4,.90002,3.5.90002,5.5-.30005,3.89999-.90002,5.60001l-.09985.09995Z" fill="#606d7a" stroke-width="0"/><rect x="1055.09998" y="447.20004" width="7.5" height="45.70001" fill="#606d7a" stroke-width="0"/><path d="M1095.59998,460.80002c-2.40002-1.60001-5.40002-2.39999-8.90002-2.39999s-6.19995.70001-8.69995,2.20001-4.5,3.60001-5.90002,6.29999c-1.40002,2.70001-2.09998,5.89999-2.09998,9.60001s.69995,6.39999,2.19995,9c1.40002,2.60001,3.40002,4.70001,6,6.10001,2.59998,1.5,5.59998,2.20001,9,2.20001s6.19995-.79999,8.90002-2.5,4.69995-4,6-7.10001l-7.40002-2.20001c-.69995,1.60001-1.80005,2.70001-3.09998,3.60001s-2.90002,1.20001-4.80005,1.20001c-2.90002,0-5-.89999-6.5-2.79999-1.19995-1.5-1.90002-3.39999-2.09998-5.79999h24.30005c.30005-4-.19995-7.5-1.30005-10.5-1.19995-3-3-5.29999-5.40002-6.89999l-.19995-.00006ZM1087,465.00003c2.69995,0,4.69995.79999,6,2.5.90002,1.20001,1.5,2.89999,1.69995,5.10001h-16.5c.30005-1.89999,1-3.5,1.90002-4.70001,1.5-1.89999,3.80005-2.79999,6.80005-2.79999l.09998-.10001Z" fill="#606d7a" stroke-width="0"/><path d="M1119.09998,450.00003h-7.5v9.29999h-6.09998v5.89999h6.09998v19.10001c0,1.5.40002,3,1.19995,4.39999.90002,1.60001,2.09998,2.79999,3.80005,3.5,1.69995.70001,3.59998,1.10001,5.69995,1.20001,2.09998,0,4.30005-.10001,6.5-.5v-6.29999c-2.09998.29999-4,.39999-5.59998.20001-1.59998-.10001-2.80005-.79999-3.59998-2.10001-.40002-.60001-.59998-1.5-.59998-2.5v-17.10001h9.90002v-5.89999h-9.90002v-9.29999l.09998.09998Z" fill="#606d7a" stroke-width="0"/><path d="M1158.19995,460.80002c-2.40002-1.60001-5.40002-2.39999-8.90002-2.39999s-6.19995.70001-8.69995,2.20001-4.5,3.60001-5.90002,6.29999c-1.40002,2.70001-2.09998,5.89999-2.09998,9.60001s.69995,6.39999,2.19995,9c1.40002,2.60001,3.40002,4.70001,6,6.10001,2.59998,1.5,5.59998,2.20001,9,2.20001s6.19995-.79999,8.90002-2.5,4.69995-4,6-7.10001l-7.40002-2.20001c-.69995,1.60001-1.80005,2.70001-3.09998,3.60001s-2.90002,1.20001-4.80005,1.20001c-2.90002,0-5-.89999-6.5-2.79999-1.19995-1.5-1.90002-3.39999-2.09998-5.79999h24.30005c.30005-4-.19995-7.5-1.30005-10.5-1.19995-3-3-5.29999-5.40002-6.89999l-.19995-.00006ZM1149.69995,465.00003c2.69995,0,4.69995.79999,6,2.5.90002,1.20001,1.5,2.89999,1.69995,5.10001h-16.5c.30005-1.89999,1-3.5,1.90002-4.70001,1.5-1.89999,3.80005-2.79999,6.80005-2.79999l.09998-.10001Z" fill="#606d7a" stroke-width="0"/><path d="M104,540.80002c1.6-1.09998,3.7-1.70001,6.1-1.70001s4.2.59998,5.9,1.70001c1.7,1.09998,3,2.70001,3.7,4.70001l4.5-1.40002c-.9-2.90002-2.7-5.09998-5.2-6.79999s-5.5-2.5-8.9-2.5-6.2.70001-8.5,2.20001-4.1,3.59998-5.4,6.20001c-1.2,2.70001-1.9,5.79999-1.9,9.29999s.7,6.5,1.9,9.20001c1.2,2.70001,3,4.79999,5.3,6.29999s5.2,2.29999,8.6,2.29999,6.2-.79999,8.6-2.29999c2.4-1.59998,4.2-3.79999,5.5-6.79999l-4.6-1.40002c-.8,2-2,3.5-3.7,4.59998s-3.5,1.59998-5.8,1.59998c-3.6,0-6.3-1.20001-8.1-3.70001-1.8-2.40002-2.8-5.70001-2.8-9.70001,0-2.59998.4-4.90002,1.2-6.90002s2-3.59998,3.6-4.70001v-.19989Z" fill="#606d7a" stroke-width="0"/><path d="M143.89999,535.40006c-1.2,0-2.39999.29999-3.5.70001s-2.2,1-3,1.79999c-.7.5-1.39999,1.20001-2,2.09998-.2.29999-.39999.70001-.7,1.09998v-5.29999h-4.10001v33.59998h4.60001v-16.79999c0-1.29999,0-2.70001.3-4s.60001-2.59998,1.10001-3.90002c.60001-1.20001,1.39999-2.29999,2.5-3.09998,1.2-1,2.60001-1.59998,4-1.70001,1.39999-.20001,2.8,0,4,.20001v-4.29999c-1-.20001-2.10001-.29999-3.2-.29999l-.00002-.09998Z" fill="#606d7a" stroke-width="0"/><polygon points="165.2 563.30002 154.2 535.70004 149.3 535.70004 163 569.20004 157.39999 584.20004 162 584.20004 180 535.70004 175.39999 535.70004 165.2 563.30002" fill="#606d7a" stroke-width="0"/><path d="M208.60001,537.10001c-2.2-1.59998-4.8-2.29999-7.89999-2.29999s-5.8.79999-8,2.29999c-1.3.90002-2.3,2-3.2,3.29999v-4.70001h-4.10001v48.5h4.60001v-18.90002c.8,1,1.7,1.90002,2.7,2.59998,2.10001,1.59998,4.7,2.29999,7.8,2.29999s5.8-.79999,8-2.29999c2.2-1.59998,3.89999-3.70001,5.10001-6.40002,1.2-2.70001,1.8-5.70001,1.8-9s-.60001-6.29999-1.8-9-2.89999-4.79999-5.10001-6.29999l.09999-.09991ZM209.39999,559.30002c-.8,2-1.89999,3.70001-3.5,4.79999s-3.5,1.79999-5.8,1.79999-4.39999-.59998-5.89999-1.70001-2.7-2.79999-3.5-4.79999-1.10001-4.40002-1.10001-6.90002.39999-5,1.10001-7c.8-2,1.89999-3.59998,3.5-4.70001,1.5-1.09998,3.5-1.70001,5.8-1.70001s4.39999.59998,6,1.79999,2.7,2.79999,3.5,4.79999,1.2,4.29999,1.2,6.79999-.39999,4.79999-1.2,6.90002l-.10001-.09991Z" fill="#606d7a" stroke-width="0"/><path d="M230.2,526.30002h-4.5v9.29999h-7.2v3.90002h7.2v21.90002c0,1.29999.39999,2.5,1,3.79999.7,1.5,1.8,2.59998,3.3,3.29999,1.39999.70001,3.10001,1.09998,4.89999,1.20001,1.8,0,3.7,0,5.60001-.5v-4c-2.39999.40002-4.39999.5-6,.20001s-2.8-1.09998-3.60001-2.5c-.39999-.70001-.60001-1.59998-.60001-2.5v-20.79999h10.3v-3.90002h-10.3v-9.29999l-.09999-.10004Z" fill="#606d7a" stroke-width="0"/><path d="M268.5,537.00003c-2.39999-1.5-5.20001-2.29999-8.60001-2.29999s-6.10001.70001-8.5,2.20001-4.2,3.5-5.5,6.20001-1.89999,5.70001-1.89999,9.29999.60001,6.5,1.89999,9.20001c1.3,2.70001,3.10001,4.79999,5.39999,6.29999,2.39999,1.5,5.20001,2.29999,8.5,2.29999s6.20001-.70001,8.5-2.20001,4.20001-3.59998,5.5-6.20001,1.89999-5.79999,1.89999-9.29999-.60001-6.5-1.89999-9.20001-3.10001-4.70001-5.39999-6.20001l.10001-.09998ZM268.29999,562.10001c-1.79999,2.5-4.60001,3.70001-8.29999,3.70001s-6.39999-1.20001-8.2-3.70001-2.8-5.70001-2.8-9.70001.39999-4.90002,1.2-6.90002,2-3.59998,3.60001-4.70001,3.7-1.70001,6.2-1.70001c3.70001,0,6.5,1.20001,8.29999,3.59998s2.79999,5.59998,2.79999,9.70001-.89999,7.20001-2.70001,9.70001l-.09998.00006Z" fill="#606d7a" stroke-width="0"/><path d="M317.60001,537.00003c-2.29999-1.5-5.20001-2.29999-8.5-2.29999s-6,.70001-8.39999,2.20001c-2.39999,1.40002-4.20001,3.5-5.5,6.20001s-2,5.79999-2,9.5.70001,6.59998,2,9.29999c1.29999,2.59998,3.20001,4.70001,5.60001,6.09998,2.39999,1.40002,5.20001,2.20001,8.5,2.20001s6.20001-.79999,8.79999-2.40002,4.5-3.90002,5.89999-6.79999l-4.29999-1.59998c-1,2.09998-2.5,3.70001-4.20001,4.79999-1.79999,1.09998-3.89999,1.70001-6.29999,1.70001-3.5,0-6.20001-1.20001-8.20001-3.5-1.70001-2.09998-2.70001-4.90002-2.79999-8.59998h26.39999c.10001-3.90002-.39999-7.29999-1.60001-10.20001-1.20001-2.79999-3-5-5.29999-6.5l-.10001-.10004ZM301,542.40006c1.89999-2.29999,4.70001-3.5,8.29999-3.5s6.10001,1.09998,7.79999,3.29999c1.5,1.79999,2.39999,4.40002,2.70001,7.59998h-21.60001c.29999-3.09998,1.20001-5.59998,2.70001-7.5l.10001.10004Z" fill="#606d7a" stroke-width="0"/><polygon points="357.70001 535.70004 352.20001 535.70004 342.29999 548.80002 332.20001 535.70004 326.79999 535.70004 339.60001 552.30002 326.5 569.20004 332 569.20004 342.29999 555.80002 352.5 569.20004 358 569.20004 344.79999 552.30002 357.70001 535.70004" fill="#606d7a" stroke-width="0"/><path d="M369.5,540.80002c1.60001-1.09998,3.70001-1.70001,6.10001-1.70001s4.10001.59998,5.89999,1.70001c1.70001,1.09998,3,2.70001,3.70001,4.70001l4.5-1.40002c-.89999-2.90002-2.70001-5.09998-5.20001-6.79999s-5.5-2.5-8.89999-2.5-6.20001.70001-8.5,2.20001-4.10001,3.59998-5.39999,6.20001c-1.20001,2.70001-1.89999,5.79999-1.89999,9.29999s.70001,6.5,1.89999,9.20001c1.20001,2.70001,3,4.79999,5.29999,6.29999s5.20001,2.29999,8.60001,2.29999,6.20001-.79999,8.60001-2.29999,4.20001-3.79999,5.5-6.79999l-4.60001-1.40002c-.79999,2-2,3.5-3.70001,4.59998-1.60001,1-3.5,1.59998-5.79999,1.59998-3.60001,0-6.29999-1.20001-8.10001-3.70001-1.79999-2.40002-2.79999-5.70001-2.79999-9.70001,0-2.59998.39999-4.90002,1.20001-6.90002.79999-2,2-3.59998,3.60001-4.70001l-.00003-.19989Z" fill="#606d7a" stroke-width="0"/><path d="M423.10001,541.90006c-.60001-1.40002-1.5-2.59998-2.5-3.59998-1-1.09998-2.29999-1.90002-3.79999-2.5s-3.29999-.90002-5.29999-.90002-5.20001.59998-7.29999,1.79999c-1.60001.90002-2.89999,2.09998-4,3.70001v-15.90002h-4.10001v44.79999h4.60001v-17.90002c0-1.90002.20001-3.59998.70001-5.09998.39999-1.5,1.10001-2.79999,1.89999-3.79999s1.89999-1.79999,3.10001-2.40002c1.20001-.59998,2.70001-.79999,4.29999-.79999s3.29999.29999,4.5,1,2.20001,1.5,3,2.70001,1.29999,2.5,1.70001,4.09998c.39999,1.59998.5,3.29999.5,5.09998v17.09998h4.60001v-18.5c0-1.5-.10001-3-.39999-4.59998-.29999-1.5-.79999-3-1.39999-4.29999l-.10007.00006Z" fill="#606d7a" stroke-width="0"/><path d="M458.5,541.50003c-.89999-2.20001-2.39999-3.79999-4.60001-5s-4.79999-1.70001-7.79999-1.70001-6.70001.79999-9,2.5-3.89999,4-4.60001,7l4.39999,1.29999c.60001-2.20001,1.79999-3.90002,3.29999-4.90002,1.60001-1,3.5-1.59998,5.79999-1.59998,3.29999,0,5.70001.79999,7,2.40002,1.20001,1.5,1.89999,3.70001,1.89999,6.59998-1.10001.20001-2.29999.29999-3.60001.5-2,.20001-4,.5-6.10001.79999s-3.89999.70001-5.60001,1.09998c-1.70001.40002-3.20001,1.09998-4.39999,1.90002-1.29999.79999-2.29999,1.90002-3,3.20001s-1.10001,2.90002-1.10001,4.70001.39999,3.40002,1.29999,4.90002c.79999,1.5,2.10001,2.70001,3.79999,3.59998,1.70001.90002,3.79999,1.40002,6.39999,1.40002s6.20001-.79999,8.60001-2.29999c1.70001-1.09998,3.10001-2.5,4.10001-4.20001v5.59998h4.10001v-20.90002c0-1.20001,0-2.5-.20001-3.70001-.10001-1.20001-.39999-2.29999-.79999-3.29999l.10007.10004ZM454.5,557.40006c-.29999,1.70001-.89999,3.20001-1.89999,4.5s-2.29999,2.40002-3.89999,3.20001-3.5,1.09998-5.60001,1.09998-3.20001-.29999-4.29999-.90002-1.89999-1.40002-2.39999-2.29999c-.5-.90002-.70001-1.90002-.70001-2.79999s.29999-2.20001.89999-3,1.29999-1.5,2.20001-1.90002c.89999-.5,1.79999-.90002,2.79999-1.09998,1.39999-.40002,3-.70001,4.70001-1s3.5-.5,5.29999-.70001c1.20001-.09998,2.20001-.29999,3.29999-.40002v1.79999c0,1.29999-.20001,2.5-.39999,3.59998v-.09991Z" fill="#606d7a" stroke-width="0"/><path d="M494.60001,541.90006c-.60001-1.40002-1.5-2.59998-2.5-3.59998-1-1.09998-2.29999-1.90002-3.79999-2.5s-3.29999-.90002-5.29999-.90002-5.20001.59998-7.29999,1.79999c-1.60001.90002-2.89999,2.09998-4,3.70001v-4.70001h-4.10001v33.59998h4.60001v-17.90002c0-1.90002.20001-3.59998.70001-5.09998.39999-1.5,1.10001-2.79999,1.89999-3.79999s1.89999-1.79999,3.10001-2.40002c1.20001-.59998,2.70001-.79999,4.29999-.79999s3.29999.29999,4.5,1c1.20001.59998,2.20001,1.5,3,2.70001s1.29999,2.5,1.70001,4.09998c.39999,1.59998.5,3.29999.5,5.09998v17.09998h4.60001v-18.5c0-1.5-.10001-3-.39999-4.59998s-.79999-3-1.39999-4.29999l-.10007.00006Z" fill="#606d7a" stroke-width="0"/><path d="M528.59998,540.40006c-.90002-1.29999-2-2.40002-3.20001-3.29999-2.20001-1.5-4.79999-2.29999-8-2.29999s-5.70001.79999-7.89999,2.29999c-2.20001,1.59998-3.89999,3.70001-5.10001,6.29999-1.20001,2.70001-1.79999,5.70001-1.79999,9s.60001,6.40002,1.79999,9c1.20001,2.70001,2.89999,4.79999,5.10001,6.40002,2.20001,1.59998,4.89999,2.29999,8.00003,2.29999s5.70001-.79999,7.79999-2.29999c1-.70001,1.90002-1.59998,2.59998-2.59998v3.5c0,2.59998-.29999,4.79999-1,6.59998s-1.79999,3.09998-3.29999,4-3.5,1.40002-5.90002,1.40002-3.5-.40002-5.20001-1.20001-3-2.20001-3.89999-4l-4.10001,2.29999c1,1.70001,2.10001,3.20001,3.5,4.20001,1.39999,1.09998,2.89999,1.90002,4.59998,2.40002,1.70001.5,3.40002.79999,5.09998.79999,2.70001,0,5.09998-.40002,7.09998-1.20001s3.59998-2,4.79999-3.59998,2-3.70001,2.40002-6.20001c.09998-.79999.20001-1.70001.29999-2.59998v-35.89996h-4.09998v4.70001l.40009-.00012ZM523.90002,564.20004c-1.59998,1.20001-3.5,1.70001-5.90002,1.70001s-4.29999-.59998-5.79999-1.79999c-1.60001-1.20001-2.70001-2.79999-3.5-4.79999s-1.20001-4.29999-1.20001-6.90002.39999-4.79999,1.10001-6.79999c.79999-2,1.89999-3.59998,3.49997-4.79999s3.59998-1.79999,6-1.79999,4.29999.59998,5.79999,1.70001c1.5,1.09998,2.70001,2.70001,3.5,4.70001s1.20001,4.29999,1.20001,7-.40002,4.90002-1.20001,6.90002-1.90002,3.59998-3.5,4.79999l.00006.09991Z" fill="#606d7a" stroke-width="0"/><path d="M563.79999,537.00003c-2.29999-1.5-5.20001-2.29999-8.5-2.29999s-6,.70001-8.40002,2.20001c-2.40002,1.40002-4.20001,3.5-5.5,6.20001s-2,5.79999-2,9.5.70001,6.59998,2,9.29999c1.29999,2.59998,3.20001,4.70001,5.59998,6.09998,2.40002,1.40002,5.20001,2.20001,8.5,2.20001s6.20001-.79999,8.79999-2.40002,4.5-3.90002,5.90002-6.79999l-4.29999-1.59998c-1,2.09998-2.5,3.70001-4.20001,4.79999-1.79999,1.09998-3.90002,1.70001-6.29999,1.70001-3.5,0-6.20001-1.20001-8.20001-3.5-1.70001-2.09998-2.70001-4.90002-2.79999-8.59998h26.40002c.09998-3.90002-.40002-7.29999-1.59998-10.20001-1.20001-2.79999-3-5-5.29999-6.5l-.10004-.10004ZM547.20001,542.40006c1.90002-2.29999,4.70001-3.5,8.29999-3.5s6.09998,1.09998,7.79999,3.29999c1.5,1.79999,2.40002,4.40002,2.70001,7.59998h-21.59998c.29999-3.09998,1.20001-5.59998,2.70001-7.5l.09998.10004Z" fill="#606d7a" stroke-width="0"/><rect x="590.70001" y="524.20004" width="4.59998" height="5.09998" fill="#606d7a" stroke-width="0"/><rect x="590.70001" y="535.70004" width="4.59998" height="33.59998" fill="#606d7a" stroke-width="0"/><path d="M631.59998,541.90006c-.59998-1.40002-1.5-2.59998-2.5-3.59998s-2.29999-1.90002-3.79999-2.5-3.29999-.90002-5.29999-.90002-5.20001.59998-7.29999,1.79999c-1.59998.90002-2.90002,2.09998-4,3.70001v-4.70001h-4.09998v33.59998h4.59998v-17.90002c0-1.90002.20001-3.59998.70001-5.09998s1.09998-2.79999,1.90002-3.79999c.79999-1,1.90002-1.79999,3.09998-2.40002,1.20001-.59998,2.70001-.79999,4.29999-.79999s3.29999.29999,4.5,1,2.20001,1.5,3,2.70001,1.29999,2.5,1.70001,4.09998.5,3.29999.5,5.09998v17.09998h4.59998v-18.5c0-1.5-.09998-3-.40002-4.59998-.29999-1.5-.79999-3-1.40002-4.29999l-.09998.00006Z" fill="#606d7a" stroke-width="0"/><path d="M662,526.30002h-4.5v9.29999h-7.20001v3.90002h7.20001v21.90002c0,1.29999.40002,2.5,1,3.79999.70001,1.5,1.79999,2.59998,3.29999,3.29999,1.40002.70001,3.09998,1.09998,4.90002,1.20001,1.79999,0,3.70001,0,5.59998-.5v-4c-2.40002.40002-4.40002.5-6,.20001s-2.79999-1.09998-3.59998-2.5c-.40002-.70001-.59998-1.59998-.59998-2.5v-20.79999h10.29999v-3.90002h-10.29999v-9.29999l-.10004-.10004Z" fill="#606d7a" stroke-width="0"/><path d="M705.90002,541.90006c-.59998-1.40002-1.5-2.59998-2.5-3.59998-1-1.09998-2.29999-1.90002-3.79999-2.5s-3.29999-.90002-5.29999-.90002-5.20001.59998-7.29999,1.79999c-1.59998.90002-2.90002,2.09998-4,3.70001v-15.90002h-4.09998v44.79999h4.59998v-17.90002c0-1.90002.20001-3.59998.70001-5.09998.40002-1.5,1.09998-2.79999,1.90002-3.79999.79999-1,1.90002-1.79999,3.09998-2.40002,1.20001-.59998,2.70001-.79999,4.29999-.79999s3.29999.29999,4.5,1c1.20001.59998,2.20001,1.5,3,2.70001s1.29999,2.5,1.70001,4.09998.5,3.29999.5,5.09998v17.09998h4.59998v-18.5c0-1.5-.09998-3-.40002-4.59998-.29999-1.5-.79999-3-1.40002-4.29999l-.09998.00006Z" fill="#606d7a" stroke-width="0"/><path d="M738.29999,537.00003c-2.29999-1.5-5.20001-2.29999-8.5-2.29999s-6,.70001-8.40002,2.20001c-2.40002,1.40002-4.20001,3.5-5.5,6.20001s-2,5.79999-2,9.5.70001,6.59998,2,9.29999c1.29999,2.59998,3.20001,4.70001,5.59998,6.09998,2.40002,1.40002,5.20001,2.20001,8.5,2.20001s6.20001-.79999,8.79999-2.40002,4.5-3.90002,5.90002-6.79999l-4.29999-1.59998c-1,2.09998-2.5,3.70001-4.20001,4.79999-1.79999,1.09998-3.90002,1.70001-6.29999,1.70001-3.5,0-6.20001-1.20001-8.20001-3.5-1.70001-2.09998-2.70001-4.90002-2.79999-8.59998h26.40002c.09998-3.90002-.40002-7.29999-1.59998-10.20001-1.20001-2.79999-3-5-5.29999-6.5l-.10004-.10004ZM721.70001,542.40006c1.90002-2.29999,4.70001-3.5,8.29999-3.5s6.09998,1.09998,7.79999,3.29999c1.5,1.79999,2.40002,4.40002,2.70001,7.59998h-21.59998c.29999-3.09998,1.20001-5.59998,2.70001-7.5l.09998.10004Z" fill="#606d7a" stroke-width="0"/><polygon points="794.09998 561.80002 786.09998 535.70004 782 535.70004 774 561.80002 766 535.70004 761.5 535.60001 771.70001 569.20004 775.70001 569.20004 784.09998 542.50003 792.5 569.20004 796.40002 569.20004 806.70001 535.70004 802.09998 535.70004 794.09998 561.80002" fill="#606d7a" stroke-width="0"/><path d="M833.70001,537.00003c-2.40002-1.5-5.20001-2.29999-8.59998-2.29999s-6.09998.70001-8.5,2.20001-4.20001,3.5-5.5,6.20001-1.90002,5.70001-1.90002,9.29999.59998,6.5,1.90002,9.20001c1.29999,2.70001,3.09998,4.79999,5.40002,6.29999s5.20001,2.29999,8.5,2.29999,6.20001-.70001,8.5-2.20001c2.40002-1.5,4.20001-3.59998,5.5-6.20001,1.29999-2.70001,1.90002-5.79999,1.90002-9.29999s-.59998-6.5-1.90002-9.20001c-1.29999-2.70001-3.09998-4.70001-5.40002-6.20001l.09998-.09998ZM833.40002,562.10001c-1.79999,2.5-4.59998,3.70001-8.29999,3.70001s-6.40002-1.20001-8.20001-3.70001c-1.90002-2.40002-2.79999-5.70001-2.79999-9.70001s.40002-4.90002,1.20001-6.90002,2-3.59998,3.59998-4.70001,3.70001-1.70001,6.20001-1.70001c3.70001,0,6.5,1.20001,8.29999,3.59998s2.79999,5.59998,2.79999,9.70001-.90002,7.20001-2.70001,9.70001l-.09998.00006Z" fill="#606d7a" stroke-width="0"/><path d="M861.09998,535.40006c-1.20001,0-2.40002.29999-3.5.70001-1.20001.40002-2.20001,1-3,1.79999-.70001.5-1.40002,1.20001-2,2.09998-.20001.29999-.40002.70001-.70001,1.09998v-5.29999h-4.09998v33.59998h4.59998v-16.79999c0-1.29999,0-2.70001.29999-4s.59998-2.59998,1.09998-3.90002c.59998-1.20001,1.40002-2.29999,2.5-3.09998,1.20001-1,2.59998-1.59998,4-1.70001,1.5-.20001,2.79999,0,4,.20001v-4.29999c-1-.20001-2.09998-.29999-3.20001-.29999l.00006-.09998Z" fill="#606d7a" stroke-width="0"/><rect x="870.79999" y="523.50003" width="4.59998" height="45.70001" fill="#606d7a" stroke-width="0"/><path d="M908.29999,539.60001c-.79999-1-1.70001-1.90002-2.70001-2.59998-2.20001-1.5-4.79999-2.29999-8-2.29999s-5.70001.79999-7.90002,2.29999-3.90002,3.70001-5.09998,6.29999c-1.20001,2.70001-1.79999,5.70001-1.79999,9s.59998,6.40002,1.79999,9c1.20001,2.70001,2.90002,4.79999,5.09998,6.40002,2.20001,1.59998,4.90002,2.29999,8,2.29999s5.70001-.79999,7.79999-2.29999c1.20001-.90002,2.29999-2,3.20001-3.29999v4.70001h4.09998v-44.79999h-4.59998v15.20001l.10004.09991ZM907.59998,559.40006c-.79999,2-1.90002,3.59998-3.5,4.79999s-3.5,1.70001-5.90002,1.70001-4.29999-.59998-5.79999-1.79999c-1.59998-1.20001-2.70001-2.79999-3.5-4.79999s-1.20001-4.29999-1.20001-6.90002.40002-4.79999,1.09998-6.79999c.79999-2,1.90002-3.59998,3.5-4.79999s3.59998-1.79999,6-1.79999,4.29999.59998,5.79999,1.70001c1.5,1.09998,2.70001,2.70001,3.5,4.70001s1.20001,4.29999,1.20001,7-.40002,4.90002-1.20001,6.90002l.00006.09991Z" fill="#606d7a" stroke-width="0"/><polygon points="966.09998 537.50003 976.29999 547.70004 938.40002 547.70004 938.40002 551.60001 976.29999 551.60001 966.09998 561.80002 968.59998 564.20004 983.20001 549.70004 968.59998 535.10001 966.09998 537.50003" fill="#606d7a" stroke-width="0"/><path d="M1216.40002,48.40003H74.2c-19,0-34.5,15.5-34.5,34.5v521.20004c0,19,15.5,34.5,34.5,34.5h1142.19991c19,0,34.5-15.5,34.5-34.5V82.90003c0-19-15.5-34.5-34.5-34.5h.00012ZM1245.90002,604.10001c0,16.29999-13.19995,29.5-29.5,29.5H74.2c-16.3,0-29.5-13.20001-29.5-29.5V82.90003c0-16.3,13.2-29.5,29.5-29.5h1142.19991c16.30005,0,29.5,13.2,29.5,29.5v521.20004l.00012-.00006Z" fill="#606d7a" stroke-width="0"/><path d="M1247.5.40003H43.1C19.3.40003,0,19.70003,0,43.50003v596.09998c0,23.79999,19.3,43.09998,43.1,43.09998h1204.4c23.80005,0,43.09998-19.29999,43.09998-43.09998V43.50003c0-23.8-19.30005-43.1-43.09998-43.1ZM1274.59998,639.50003c0,14.90002-12.19995,27.09998-27.09998,27.09998H43.1c-14.9,0-27.1-12.20001-27.1-27.09998V43.50003c0-14.9,12.2-27.1,27.1-27.1h1204.4c14.90002,0,27.09998,12.2,27.09998,27.1v596.09998-.09998Z" fill="#606d7a" stroke-width="0"/><polygon points="488.89999 241.70003 524.70001 222.90003 560.40002 241.70003 553.59998 201.90003 582.5 173.70003 542.5 167.90003 524.70001 131.70003 506.79999 167.90003 466.79999 173.70003 495.70001 201.90003 488.89999 241.70003" fill="#606d7a" stroke-width="0"/><polygon points="636.90002 241.70003 672.70001 222.90003 708.40002 241.70003 701.59998 201.90003 730.5 173.70003 690.59998 167.90003 672.70001 131.70003 654.79999 167.90003 614.79999 173.70003 643.79999 201.90003 636.90002 241.70003" fill="#606d7a" stroke-width="0"/><polygon points="785 241.70003 820.70001 222.90003 856.5 241.70003 849.59998 201.90003 878.59998 173.70003 838.59998 167.90003 820.70001 131.70003 802.79999 167.90003 762.90002 173.70003 791.79999 201.90003 785 241.70003" fill="#606d7a" stroke-width="0"/><polygon points="933 241.70003 968.79999 222.90003 1004.5 241.70003 997.70001 201.90003 1026.59998 173.70003 986.59998 167.90003 968.79999 131.70003 950.90002 167.90003 910.90002 173.70003 939.79999 201.90003 933 241.70003" fill="#606d7a" stroke-width="0"/><polygon points="1116.80005 131.70003 1098.90002 167.90003 1058.90002 173.70003 1087.90002 201.90003 1081 241.70003 1116.80005 222.90003 1152.5 241.70003 1145.69995 201.90003 1174.59998 173.70003 1134.69995 167.90003 1116.80005 131.70003" fill="#606d7a" stroke-width="0"/></svg>